G04 EAGLE Gerber RS-274X export*
G75*
%MOMM*%
%FSLAX34Y34*%
%LPD*%
%INBottom Copper*%
%IPPOS*%
%AMOC8*
5,1,8,0,0,1.08239X$1,22.5*%
G01*
%ADD10R,1.524000X1.524000*%
%ADD11C,1.524000*%
%ADD12C,1.508000*%
%ADD13C,1.320800*%
%ADD14P,1.732040X8X202.500000*%
%ADD15P,1.732040X8X22.500000*%
%ADD16C,0.756400*%
%ADD17C,0.500000*%
%ADD18C,0.254000*%

G36*
X92860Y10172D02*
X92860Y10172D01*
X92931Y10174D01*
X92980Y10192D01*
X93032Y10200D01*
X93095Y10234D01*
X93162Y10259D01*
X93203Y10291D01*
X93249Y10316D01*
X93298Y10368D01*
X93354Y10412D01*
X93383Y10456D01*
X93418Y10494D01*
X93449Y10559D01*
X93487Y10619D01*
X93500Y10670D01*
X93522Y10717D01*
X93530Y10788D01*
X93547Y10858D01*
X93543Y10910D01*
X93549Y10961D01*
X93534Y11032D01*
X93528Y11103D01*
X93508Y11151D01*
X93497Y11202D01*
X93460Y11263D01*
X93432Y11329D01*
X93387Y11385D01*
X93371Y11413D01*
X93353Y11428D01*
X93327Y11460D01*
X90757Y14030D01*
X89365Y17391D01*
X89365Y36269D01*
X90757Y39630D01*
X93330Y42203D01*
X96691Y43595D01*
X100329Y43595D01*
X103690Y42203D01*
X106263Y39630D01*
X107655Y36269D01*
X107655Y17391D01*
X106263Y14030D01*
X103693Y11460D01*
X103651Y11402D01*
X103602Y11350D01*
X103580Y11303D01*
X103549Y11261D01*
X103528Y11192D01*
X103498Y11127D01*
X103492Y11075D01*
X103477Y11025D01*
X103479Y10954D01*
X103471Y10883D01*
X103482Y10832D01*
X103483Y10780D01*
X103508Y10712D01*
X103523Y10642D01*
X103550Y10597D01*
X103568Y10549D01*
X103613Y10493D01*
X103649Y10431D01*
X103689Y10397D01*
X103721Y10357D01*
X103782Y10318D01*
X103836Y10271D01*
X103885Y10252D01*
X103928Y10224D01*
X103998Y10206D01*
X104064Y10179D01*
X104136Y10171D01*
X104167Y10163D01*
X104190Y10165D01*
X104231Y10161D01*
X118189Y10161D01*
X118260Y10172D01*
X118331Y10174D01*
X118380Y10192D01*
X118432Y10200D01*
X118495Y10234D01*
X118562Y10259D01*
X118603Y10291D01*
X118649Y10316D01*
X118698Y10368D01*
X118754Y10412D01*
X118783Y10456D01*
X118818Y10494D01*
X118849Y10559D01*
X118887Y10619D01*
X118900Y10670D01*
X118922Y10717D01*
X118930Y10788D01*
X118947Y10858D01*
X118943Y10910D01*
X118949Y10961D01*
X118934Y11032D01*
X118928Y11103D01*
X118908Y11151D01*
X118897Y11202D01*
X118860Y11263D01*
X118832Y11329D01*
X118787Y11385D01*
X118771Y11413D01*
X118753Y11428D01*
X118727Y11460D01*
X116157Y14030D01*
X114765Y17391D01*
X114765Y36269D01*
X116157Y39630D01*
X118730Y42203D01*
X122091Y43595D01*
X125729Y43595D01*
X129090Y42203D01*
X131663Y39630D01*
X133055Y36269D01*
X133055Y17391D01*
X131663Y14030D01*
X129093Y11460D01*
X129051Y11402D01*
X129002Y11350D01*
X128980Y11303D01*
X128949Y11261D01*
X128928Y11192D01*
X128898Y11127D01*
X128892Y11075D01*
X128877Y11025D01*
X128879Y10954D01*
X128871Y10883D01*
X128882Y10832D01*
X128883Y10780D01*
X128908Y10712D01*
X128923Y10642D01*
X128950Y10597D01*
X128968Y10549D01*
X129013Y10493D01*
X129049Y10431D01*
X129089Y10397D01*
X129121Y10357D01*
X129182Y10318D01*
X129236Y10271D01*
X129285Y10252D01*
X129328Y10224D01*
X129398Y10206D01*
X129464Y10179D01*
X129536Y10171D01*
X129567Y10163D01*
X129590Y10165D01*
X129631Y10161D01*
X143589Y10161D01*
X143660Y10172D01*
X143731Y10174D01*
X143780Y10192D01*
X143832Y10200D01*
X143895Y10234D01*
X143962Y10259D01*
X144003Y10291D01*
X144049Y10316D01*
X144098Y10368D01*
X144154Y10412D01*
X144183Y10456D01*
X144218Y10494D01*
X144249Y10559D01*
X144287Y10619D01*
X144300Y10670D01*
X144322Y10717D01*
X144330Y10788D01*
X144347Y10858D01*
X144343Y10910D01*
X144349Y10961D01*
X144334Y11032D01*
X144328Y11103D01*
X144308Y11151D01*
X144297Y11202D01*
X144260Y11263D01*
X144232Y11329D01*
X144187Y11385D01*
X144171Y11413D01*
X144153Y11428D01*
X144127Y11460D01*
X141557Y14030D01*
X140165Y17391D01*
X140165Y36269D01*
X141557Y39630D01*
X144130Y42203D01*
X147491Y43595D01*
X151129Y43595D01*
X154490Y42203D01*
X157063Y39630D01*
X158455Y36269D01*
X158455Y17391D01*
X157063Y14030D01*
X154493Y11460D01*
X154451Y11402D01*
X154402Y11350D01*
X154380Y11303D01*
X154349Y11261D01*
X154328Y11192D01*
X154298Y11127D01*
X154292Y11075D01*
X154277Y11025D01*
X154279Y10954D01*
X154271Y10883D01*
X154282Y10832D01*
X154283Y10780D01*
X154308Y10712D01*
X154323Y10642D01*
X154350Y10597D01*
X154368Y10549D01*
X154413Y10493D01*
X154449Y10431D01*
X154489Y10397D01*
X154521Y10357D01*
X154582Y10318D01*
X154636Y10271D01*
X154685Y10252D01*
X154728Y10224D01*
X154798Y10206D01*
X154864Y10179D01*
X154936Y10171D01*
X154967Y10163D01*
X154990Y10165D01*
X155031Y10161D01*
X168989Y10161D01*
X169060Y10172D01*
X169131Y10174D01*
X169180Y10192D01*
X169232Y10200D01*
X169295Y10234D01*
X169362Y10259D01*
X169403Y10291D01*
X169449Y10316D01*
X169498Y10368D01*
X169554Y10412D01*
X169583Y10456D01*
X169618Y10494D01*
X169649Y10559D01*
X169687Y10619D01*
X169700Y10670D01*
X169722Y10717D01*
X169730Y10788D01*
X169747Y10858D01*
X169743Y10910D01*
X169749Y10961D01*
X169734Y11032D01*
X169728Y11103D01*
X169708Y11151D01*
X169697Y11202D01*
X169660Y11263D01*
X169632Y11329D01*
X169587Y11385D01*
X169571Y11413D01*
X169553Y11428D01*
X169527Y11460D01*
X166957Y14030D01*
X165565Y17391D01*
X165565Y36269D01*
X166957Y39630D01*
X169530Y42203D01*
X172891Y43595D01*
X176529Y43595D01*
X179890Y42203D01*
X182463Y39630D01*
X183855Y36269D01*
X183855Y17391D01*
X182463Y14030D01*
X179893Y11460D01*
X179851Y11402D01*
X179802Y11350D01*
X179780Y11303D01*
X179749Y11261D01*
X179728Y11192D01*
X179698Y11127D01*
X179692Y11075D01*
X179677Y11025D01*
X179679Y10954D01*
X179671Y10883D01*
X179682Y10832D01*
X179683Y10780D01*
X179708Y10712D01*
X179723Y10642D01*
X179750Y10597D01*
X179768Y10549D01*
X179813Y10493D01*
X179849Y10431D01*
X179889Y10397D01*
X179921Y10357D01*
X179982Y10318D01*
X180036Y10271D01*
X180085Y10252D01*
X180128Y10224D01*
X180198Y10206D01*
X180264Y10179D01*
X180336Y10171D01*
X180367Y10163D01*
X180390Y10165D01*
X180431Y10161D01*
X194389Y10161D01*
X194460Y10172D01*
X194531Y10174D01*
X194580Y10192D01*
X194632Y10200D01*
X194695Y10234D01*
X194762Y10259D01*
X194803Y10291D01*
X194849Y10316D01*
X194898Y10368D01*
X194954Y10412D01*
X194983Y10456D01*
X195018Y10494D01*
X195049Y10559D01*
X195087Y10619D01*
X195100Y10670D01*
X195122Y10717D01*
X195130Y10788D01*
X195147Y10858D01*
X195143Y10910D01*
X195149Y10961D01*
X195134Y11032D01*
X195128Y11103D01*
X195108Y11151D01*
X195097Y11202D01*
X195060Y11263D01*
X195032Y11329D01*
X194987Y11385D01*
X194971Y11413D01*
X194953Y11428D01*
X194927Y11460D01*
X192357Y14030D01*
X190965Y17391D01*
X190965Y36269D01*
X192357Y39630D01*
X194930Y42203D01*
X198291Y43595D01*
X201929Y43595D01*
X205290Y42203D01*
X207863Y39630D01*
X209255Y36269D01*
X209255Y17391D01*
X207863Y14030D01*
X205293Y11460D01*
X205251Y11402D01*
X205202Y11350D01*
X205180Y11303D01*
X205149Y11261D01*
X205128Y11192D01*
X205098Y11127D01*
X205092Y11075D01*
X205077Y11025D01*
X205079Y10954D01*
X205071Y10883D01*
X205082Y10832D01*
X205083Y10780D01*
X205108Y10712D01*
X205123Y10642D01*
X205150Y10597D01*
X205168Y10549D01*
X205213Y10493D01*
X205249Y10431D01*
X205289Y10397D01*
X205321Y10357D01*
X205382Y10318D01*
X205436Y10271D01*
X205485Y10252D01*
X205528Y10224D01*
X205598Y10206D01*
X205664Y10179D01*
X205736Y10171D01*
X205767Y10163D01*
X205790Y10165D01*
X205831Y10161D01*
X219789Y10161D01*
X219860Y10172D01*
X219931Y10174D01*
X219980Y10192D01*
X220032Y10200D01*
X220095Y10234D01*
X220162Y10259D01*
X220203Y10291D01*
X220249Y10316D01*
X220298Y10368D01*
X220354Y10412D01*
X220383Y10456D01*
X220418Y10494D01*
X220449Y10559D01*
X220487Y10619D01*
X220500Y10670D01*
X220522Y10717D01*
X220530Y10788D01*
X220547Y10858D01*
X220543Y10910D01*
X220549Y10961D01*
X220534Y11032D01*
X220528Y11103D01*
X220508Y11151D01*
X220497Y11202D01*
X220460Y11263D01*
X220432Y11329D01*
X220387Y11385D01*
X220371Y11413D01*
X220353Y11428D01*
X220327Y11460D01*
X217757Y14030D01*
X216365Y17391D01*
X216365Y36269D01*
X217757Y39630D01*
X220330Y42203D01*
X223691Y43595D01*
X227329Y43595D01*
X230690Y42203D01*
X233263Y39630D01*
X234655Y36269D01*
X234655Y17391D01*
X233263Y14030D01*
X230693Y11460D01*
X230651Y11402D01*
X230602Y11350D01*
X230580Y11303D01*
X230549Y11261D01*
X230528Y11192D01*
X230498Y11127D01*
X230492Y11075D01*
X230477Y11025D01*
X230479Y10954D01*
X230471Y10883D01*
X230482Y10832D01*
X230483Y10780D01*
X230508Y10712D01*
X230523Y10642D01*
X230550Y10597D01*
X230568Y10549D01*
X230613Y10493D01*
X230649Y10431D01*
X230689Y10397D01*
X230721Y10357D01*
X230782Y10318D01*
X230836Y10271D01*
X230885Y10252D01*
X230928Y10224D01*
X230998Y10206D01*
X231064Y10179D01*
X231136Y10171D01*
X231167Y10163D01*
X231190Y10165D01*
X231231Y10161D01*
X245189Y10161D01*
X245260Y10172D01*
X245331Y10174D01*
X245380Y10192D01*
X245432Y10200D01*
X245495Y10234D01*
X245562Y10259D01*
X245603Y10291D01*
X245649Y10316D01*
X245698Y10368D01*
X245754Y10412D01*
X245783Y10456D01*
X245818Y10494D01*
X245849Y10559D01*
X245887Y10619D01*
X245900Y10670D01*
X245922Y10717D01*
X245930Y10788D01*
X245947Y10858D01*
X245943Y10910D01*
X245949Y10961D01*
X245934Y11032D01*
X245928Y11103D01*
X245908Y11151D01*
X245897Y11202D01*
X245860Y11263D01*
X245832Y11329D01*
X245787Y11385D01*
X245771Y11413D01*
X245753Y11428D01*
X245727Y11460D01*
X243157Y14030D01*
X241765Y17391D01*
X241765Y36269D01*
X243157Y39630D01*
X245730Y42203D01*
X249091Y43595D01*
X252729Y43595D01*
X256090Y42203D01*
X258663Y39630D01*
X260055Y36269D01*
X260055Y17391D01*
X258663Y14030D01*
X256093Y11460D01*
X256051Y11402D01*
X256002Y11350D01*
X255980Y11303D01*
X255949Y11261D01*
X255928Y11192D01*
X255898Y11127D01*
X255892Y11075D01*
X255877Y11025D01*
X255879Y10954D01*
X255871Y10883D01*
X255882Y10832D01*
X255883Y10780D01*
X255908Y10712D01*
X255923Y10642D01*
X255950Y10597D01*
X255968Y10549D01*
X256013Y10493D01*
X256049Y10431D01*
X256089Y10397D01*
X256121Y10357D01*
X256182Y10318D01*
X256236Y10271D01*
X256285Y10252D01*
X256328Y10224D01*
X256398Y10206D01*
X256464Y10179D01*
X256536Y10171D01*
X256567Y10163D01*
X256590Y10165D01*
X256631Y10161D01*
X270589Y10161D01*
X270660Y10172D01*
X270731Y10174D01*
X270780Y10192D01*
X270832Y10200D01*
X270895Y10234D01*
X270962Y10259D01*
X271003Y10291D01*
X271049Y10316D01*
X271098Y10368D01*
X271154Y10412D01*
X271183Y10456D01*
X271218Y10494D01*
X271249Y10559D01*
X271287Y10619D01*
X271300Y10670D01*
X271322Y10717D01*
X271330Y10788D01*
X271347Y10858D01*
X271343Y10910D01*
X271349Y10961D01*
X271334Y11032D01*
X271328Y11103D01*
X271308Y11151D01*
X271297Y11202D01*
X271260Y11263D01*
X271232Y11329D01*
X271187Y11385D01*
X271171Y11413D01*
X271153Y11428D01*
X271127Y11460D01*
X268557Y14030D01*
X267165Y17391D01*
X267165Y36269D01*
X268557Y39630D01*
X271130Y42203D01*
X274491Y43595D01*
X278129Y43595D01*
X281490Y42203D01*
X284063Y39630D01*
X285455Y36269D01*
X285455Y17391D01*
X284063Y14030D01*
X281493Y11460D01*
X281451Y11402D01*
X281402Y11350D01*
X281380Y11303D01*
X281349Y11261D01*
X281328Y11192D01*
X281298Y11127D01*
X281292Y11075D01*
X281277Y11025D01*
X281279Y10954D01*
X281271Y10883D01*
X281282Y10832D01*
X281283Y10780D01*
X281308Y10712D01*
X281323Y10642D01*
X281350Y10597D01*
X281368Y10549D01*
X281413Y10493D01*
X281449Y10431D01*
X281489Y10397D01*
X281521Y10357D01*
X281582Y10318D01*
X281636Y10271D01*
X281685Y10252D01*
X281728Y10224D01*
X281798Y10206D01*
X281864Y10179D01*
X281936Y10171D01*
X281967Y10163D01*
X281990Y10165D01*
X282031Y10161D01*
X295989Y10161D01*
X296060Y10172D01*
X296131Y10174D01*
X296180Y10192D01*
X296232Y10200D01*
X296295Y10234D01*
X296362Y10259D01*
X296403Y10291D01*
X296449Y10316D01*
X296498Y10368D01*
X296554Y10412D01*
X296583Y10456D01*
X296618Y10494D01*
X296649Y10559D01*
X296687Y10619D01*
X296700Y10670D01*
X296722Y10717D01*
X296730Y10788D01*
X296747Y10858D01*
X296743Y10910D01*
X296749Y10961D01*
X296734Y11032D01*
X296728Y11103D01*
X296708Y11151D01*
X296697Y11202D01*
X296660Y11263D01*
X296632Y11329D01*
X296587Y11385D01*
X296571Y11413D01*
X296553Y11428D01*
X296527Y11460D01*
X293957Y14030D01*
X292565Y17391D01*
X292565Y36269D01*
X293957Y39630D01*
X296530Y42203D01*
X299891Y43595D01*
X303529Y43595D01*
X306890Y42203D01*
X309463Y39630D01*
X310855Y36269D01*
X310855Y17391D01*
X309463Y14030D01*
X306893Y11460D01*
X306851Y11402D01*
X306802Y11350D01*
X306780Y11303D01*
X306749Y11261D01*
X306728Y11192D01*
X306698Y11127D01*
X306692Y11075D01*
X306677Y11025D01*
X306679Y10954D01*
X306671Y10883D01*
X306682Y10832D01*
X306683Y10780D01*
X306708Y10712D01*
X306723Y10642D01*
X306750Y10597D01*
X306768Y10549D01*
X306813Y10493D01*
X306849Y10431D01*
X306889Y10397D01*
X306921Y10357D01*
X306982Y10318D01*
X307036Y10271D01*
X307085Y10252D01*
X307128Y10224D01*
X307198Y10206D01*
X307264Y10179D01*
X307336Y10171D01*
X307367Y10163D01*
X307390Y10165D01*
X307431Y10161D01*
X321389Y10161D01*
X321460Y10172D01*
X321531Y10174D01*
X321580Y10192D01*
X321632Y10200D01*
X321695Y10234D01*
X321762Y10259D01*
X321803Y10291D01*
X321849Y10316D01*
X321898Y10368D01*
X321954Y10412D01*
X321983Y10456D01*
X322018Y10494D01*
X322049Y10559D01*
X322087Y10619D01*
X322100Y10670D01*
X322122Y10717D01*
X322130Y10788D01*
X322147Y10858D01*
X322143Y10910D01*
X322149Y10961D01*
X322134Y11032D01*
X322128Y11103D01*
X322108Y11151D01*
X322097Y11202D01*
X322060Y11263D01*
X322032Y11329D01*
X321987Y11385D01*
X321971Y11413D01*
X321953Y11428D01*
X321927Y11460D01*
X319357Y14030D01*
X317965Y17391D01*
X317965Y36269D01*
X319357Y39630D01*
X321930Y42203D01*
X325291Y43595D01*
X328929Y43595D01*
X332290Y42203D01*
X334863Y39630D01*
X336255Y36269D01*
X336255Y17391D01*
X334863Y14030D01*
X332293Y11460D01*
X332251Y11402D01*
X332202Y11350D01*
X332180Y11303D01*
X332149Y11261D01*
X332128Y11192D01*
X332098Y11127D01*
X332092Y11075D01*
X332077Y11025D01*
X332079Y10954D01*
X332071Y10883D01*
X332082Y10832D01*
X332083Y10780D01*
X332108Y10712D01*
X332123Y10642D01*
X332150Y10597D01*
X332168Y10549D01*
X332213Y10493D01*
X332249Y10431D01*
X332289Y10397D01*
X332321Y10357D01*
X332382Y10318D01*
X332436Y10271D01*
X332485Y10252D01*
X332528Y10224D01*
X332598Y10206D01*
X332664Y10179D01*
X332736Y10171D01*
X332767Y10163D01*
X332790Y10165D01*
X332831Y10161D01*
X346789Y10161D01*
X346860Y10172D01*
X346931Y10174D01*
X346980Y10192D01*
X347032Y10200D01*
X347095Y10234D01*
X347162Y10259D01*
X347203Y10291D01*
X347249Y10316D01*
X347298Y10368D01*
X347354Y10412D01*
X347383Y10456D01*
X347418Y10494D01*
X347449Y10559D01*
X347487Y10619D01*
X347500Y10670D01*
X347522Y10717D01*
X347530Y10788D01*
X347547Y10858D01*
X347543Y10910D01*
X347549Y10961D01*
X347534Y11032D01*
X347528Y11103D01*
X347508Y11151D01*
X347497Y11202D01*
X347460Y11263D01*
X347432Y11329D01*
X347387Y11385D01*
X347371Y11413D01*
X347353Y11428D01*
X347327Y11460D01*
X344757Y14030D01*
X343365Y17391D01*
X343365Y36269D01*
X344757Y39630D01*
X347330Y42203D01*
X350691Y43595D01*
X354329Y43595D01*
X357690Y42203D01*
X360263Y39630D01*
X361655Y36269D01*
X361655Y17391D01*
X360263Y14030D01*
X357693Y11460D01*
X357651Y11402D01*
X357602Y11350D01*
X357580Y11303D01*
X357549Y11261D01*
X357528Y11192D01*
X357498Y11127D01*
X357492Y11075D01*
X357477Y11025D01*
X357479Y10954D01*
X357471Y10883D01*
X357482Y10832D01*
X357483Y10780D01*
X357508Y10712D01*
X357523Y10642D01*
X357550Y10597D01*
X357568Y10549D01*
X357613Y10493D01*
X357649Y10431D01*
X357689Y10397D01*
X357721Y10357D01*
X357782Y10318D01*
X357836Y10271D01*
X357885Y10252D01*
X357928Y10224D01*
X357998Y10206D01*
X358064Y10179D01*
X358136Y10171D01*
X358167Y10163D01*
X358190Y10165D01*
X358231Y10161D01*
X372189Y10161D01*
X372260Y10172D01*
X372331Y10174D01*
X372380Y10192D01*
X372432Y10200D01*
X372495Y10234D01*
X372562Y10259D01*
X372603Y10291D01*
X372649Y10316D01*
X372698Y10368D01*
X372754Y10412D01*
X372783Y10456D01*
X372818Y10494D01*
X372849Y10559D01*
X372887Y10619D01*
X372900Y10670D01*
X372922Y10717D01*
X372930Y10788D01*
X372947Y10858D01*
X372943Y10910D01*
X372949Y10961D01*
X372934Y11032D01*
X372928Y11103D01*
X372908Y11151D01*
X372897Y11202D01*
X372860Y11263D01*
X372832Y11329D01*
X372787Y11385D01*
X372771Y11413D01*
X372753Y11428D01*
X372727Y11460D01*
X370157Y14030D01*
X368765Y17391D01*
X368765Y36269D01*
X370157Y39630D01*
X372730Y42203D01*
X376091Y43595D01*
X379729Y43595D01*
X383090Y42203D01*
X385663Y39630D01*
X387055Y36269D01*
X387055Y17391D01*
X385663Y14030D01*
X383093Y11460D01*
X383051Y11402D01*
X383002Y11350D01*
X382980Y11303D01*
X382949Y11261D01*
X382928Y11192D01*
X382898Y11127D01*
X382892Y11075D01*
X382877Y11025D01*
X382879Y10954D01*
X382871Y10883D01*
X382882Y10832D01*
X382883Y10780D01*
X382908Y10712D01*
X382923Y10642D01*
X382950Y10597D01*
X382968Y10549D01*
X383013Y10493D01*
X383049Y10431D01*
X383089Y10397D01*
X383121Y10357D01*
X383182Y10318D01*
X383236Y10271D01*
X383285Y10252D01*
X383328Y10224D01*
X383398Y10206D01*
X383464Y10179D01*
X383536Y10171D01*
X383567Y10163D01*
X383590Y10165D01*
X383631Y10161D01*
X397589Y10161D01*
X397660Y10172D01*
X397731Y10174D01*
X397780Y10192D01*
X397832Y10200D01*
X397895Y10234D01*
X397962Y10259D01*
X398003Y10291D01*
X398049Y10316D01*
X398098Y10368D01*
X398154Y10412D01*
X398183Y10456D01*
X398218Y10494D01*
X398249Y10559D01*
X398287Y10619D01*
X398300Y10670D01*
X398322Y10717D01*
X398330Y10788D01*
X398347Y10858D01*
X398343Y10910D01*
X398349Y10961D01*
X398334Y11032D01*
X398328Y11103D01*
X398308Y11151D01*
X398297Y11202D01*
X398260Y11263D01*
X398232Y11329D01*
X398187Y11385D01*
X398171Y11413D01*
X398153Y11428D01*
X398127Y11460D01*
X395557Y14030D01*
X394165Y17391D01*
X394165Y36269D01*
X395557Y39630D01*
X398130Y42203D01*
X401491Y43595D01*
X405129Y43595D01*
X408490Y42203D01*
X411063Y39630D01*
X412455Y36269D01*
X412455Y17391D01*
X411063Y14030D01*
X408493Y11460D01*
X408451Y11402D01*
X408402Y11350D01*
X408380Y11303D01*
X408349Y11261D01*
X408328Y11192D01*
X408298Y11127D01*
X408292Y11075D01*
X408277Y11025D01*
X408279Y10954D01*
X408271Y10883D01*
X408282Y10832D01*
X408283Y10780D01*
X408308Y10712D01*
X408323Y10642D01*
X408350Y10597D01*
X408368Y10549D01*
X408413Y10493D01*
X408449Y10431D01*
X408489Y10397D01*
X408521Y10357D01*
X408582Y10318D01*
X408636Y10271D01*
X408685Y10252D01*
X408728Y10224D01*
X408798Y10206D01*
X408864Y10179D01*
X408936Y10171D01*
X408967Y10163D01*
X408990Y10165D01*
X409031Y10161D01*
X421552Y10161D01*
X421623Y10172D01*
X421694Y10174D01*
X421743Y10192D01*
X421795Y10200D01*
X421858Y10234D01*
X421925Y10259D01*
X421966Y10291D01*
X422012Y10316D01*
X422061Y10368D01*
X422117Y10412D01*
X422146Y10456D01*
X422182Y10494D01*
X422212Y10559D01*
X422250Y10619D01*
X422263Y10670D01*
X422285Y10717D01*
X422293Y10788D01*
X422311Y10858D01*
X422306Y10910D01*
X422312Y10961D01*
X422297Y11032D01*
X422291Y11103D01*
X422271Y11151D01*
X422260Y11202D01*
X422223Y11263D01*
X422195Y11329D01*
X422150Y11385D01*
X422134Y11413D01*
X422116Y11428D01*
X422090Y11460D01*
X420960Y12591D01*
X420020Y13885D01*
X419294Y15310D01*
X418799Y16831D01*
X418549Y18410D01*
X418549Y25307D01*
X427948Y25307D01*
X427968Y25310D01*
X427987Y25308D01*
X428089Y25330D01*
X428191Y25347D01*
X428208Y25356D01*
X428228Y25360D01*
X428317Y25413D01*
X428408Y25462D01*
X428422Y25476D01*
X428439Y25486D01*
X428506Y25565D01*
X428577Y25640D01*
X428586Y25658D01*
X428599Y25673D01*
X428637Y25769D01*
X428681Y25863D01*
X428683Y25883D01*
X428691Y25901D01*
X428709Y26068D01*
X428709Y27592D01*
X428706Y27612D01*
X428708Y27631D01*
X428686Y27733D01*
X428669Y27835D01*
X428660Y27852D01*
X428656Y27872D01*
X428603Y27961D01*
X428554Y28052D01*
X428540Y28066D01*
X428530Y28083D01*
X428451Y28150D01*
X428376Y28221D01*
X428358Y28230D01*
X428343Y28243D01*
X428247Y28282D01*
X428153Y28325D01*
X428133Y28327D01*
X428115Y28335D01*
X427948Y28353D01*
X418549Y28353D01*
X418549Y35250D01*
X418799Y36829D01*
X419294Y38350D01*
X420020Y39775D01*
X420960Y41069D01*
X422091Y42200D01*
X423385Y43140D01*
X424810Y43866D01*
X426331Y44361D01*
X426972Y44462D01*
X427033Y44482D01*
X427096Y44493D01*
X427149Y44521D01*
X427206Y44539D01*
X427257Y44578D01*
X427313Y44608D01*
X427355Y44651D01*
X427403Y44687D01*
X427439Y44740D01*
X427483Y44786D01*
X427508Y44840D01*
X427542Y44890D01*
X427559Y44951D01*
X427586Y45009D01*
X427593Y45069D01*
X427609Y45126D01*
X427606Y45190D01*
X427613Y45253D01*
X427601Y45312D01*
X427598Y45372D01*
X427575Y45431D01*
X427561Y45494D01*
X427530Y45545D01*
X427509Y45601D01*
X427468Y45650D01*
X427435Y45705D01*
X427389Y45744D01*
X427351Y45790D01*
X427297Y45823D01*
X427248Y45865D01*
X427192Y45887D01*
X427141Y45919D01*
X427079Y45933D01*
X427020Y45957D01*
X426934Y45966D01*
X426902Y45974D01*
X426877Y45973D01*
X426853Y45975D01*
X88333Y45975D01*
X72224Y62084D01*
X72150Y62137D01*
X72080Y62197D01*
X72050Y62209D01*
X72024Y62228D01*
X71937Y62255D01*
X71852Y62289D01*
X71811Y62293D01*
X71789Y62300D01*
X71757Y62299D01*
X71686Y62307D01*
X71653Y62307D01*
X68665Y63545D01*
X66379Y65831D01*
X65141Y68819D01*
X65141Y85261D01*
X66379Y88249D01*
X68665Y90535D01*
X71653Y91773D01*
X74887Y91773D01*
X77875Y90535D01*
X78936Y89474D01*
X78952Y89462D01*
X78964Y89447D01*
X79052Y89391D01*
X79135Y89331D01*
X79154Y89325D01*
X79171Y89314D01*
X79272Y89289D01*
X79371Y89258D01*
X79390Y89259D01*
X79410Y89254D01*
X79513Y89262D01*
X79616Y89265D01*
X79635Y89271D01*
X79655Y89273D01*
X79750Y89313D01*
X79847Y89349D01*
X79863Y89362D01*
X79881Y89369D01*
X80012Y89474D01*
X116272Y125734D01*
X116325Y125808D01*
X116385Y125877D01*
X116397Y125907D01*
X116416Y125934D01*
X116442Y126021D01*
X116476Y126105D01*
X116481Y126146D01*
X116488Y126169D01*
X116487Y126201D01*
X116495Y126272D01*
X116495Y154641D01*
X116480Y154731D01*
X116473Y154822D01*
X116460Y154852D01*
X116455Y154884D01*
X116412Y154964D01*
X116377Y155048D01*
X116351Y155080D01*
X116340Y155101D01*
X116317Y155123D01*
X116272Y155179D01*
X108781Y162670D01*
X108781Y164930D01*
X108766Y165026D01*
X108756Y165123D01*
X108746Y165147D01*
X108742Y165173D01*
X108696Y165259D01*
X108656Y165348D01*
X108639Y165367D01*
X108626Y165390D01*
X108556Y165457D01*
X108490Y165529D01*
X108467Y165541D01*
X108448Y165560D01*
X108360Y165601D01*
X108274Y165647D01*
X108249Y165652D01*
X108225Y165663D01*
X108128Y165674D01*
X108032Y165691D01*
X108006Y165687D01*
X107981Y165690D01*
X107885Y165670D01*
X107789Y165655D01*
X107766Y165644D01*
X107740Y165638D01*
X107657Y165588D01*
X107570Y165544D01*
X107551Y165525D01*
X107529Y165512D01*
X107466Y165438D01*
X107398Y165368D01*
X107382Y165340D01*
X107369Y165325D01*
X107357Y165294D01*
X107317Y165221D01*
X106803Y163980D01*
X104230Y161407D01*
X100869Y160015D01*
X97231Y160015D01*
X93870Y161407D01*
X91297Y163980D01*
X89905Y167341D01*
X89905Y186219D01*
X91297Y189580D01*
X93870Y192153D01*
X97231Y193545D01*
X100869Y193545D01*
X104230Y192153D01*
X106803Y189580D01*
X107317Y188339D01*
X107368Y188256D01*
X107414Y188170D01*
X107433Y188152D01*
X107446Y188130D01*
X107521Y188067D01*
X107592Y188000D01*
X107616Y187989D01*
X107636Y187973D01*
X107727Y187938D01*
X107815Y187897D01*
X107841Y187894D01*
X107865Y187885D01*
X107963Y187880D01*
X108059Y187870D01*
X108085Y187875D01*
X108111Y187874D01*
X108205Y187901D01*
X108300Y187922D01*
X108322Y187935D01*
X108347Y187943D01*
X108427Y187998D01*
X108511Y188048D01*
X108528Y188068D01*
X108549Y188083D01*
X108608Y188161D01*
X108671Y188235D01*
X108681Y188259D01*
X108696Y188280D01*
X108726Y188373D01*
X108763Y188463D01*
X108766Y188496D01*
X108772Y188514D01*
X108772Y188547D01*
X108781Y188630D01*
X108781Y191687D01*
X108767Y191777D01*
X108759Y191868D01*
X108747Y191898D01*
X108742Y191930D01*
X108699Y192011D01*
X108663Y192095D01*
X108637Y192127D01*
X108626Y192147D01*
X108603Y192170D01*
X108558Y192226D01*
X84017Y216767D01*
X84017Y329480D01*
X84006Y329550D01*
X84004Y329622D01*
X83986Y329671D01*
X83978Y329722D01*
X83944Y329786D01*
X83919Y329853D01*
X83887Y329894D01*
X83862Y329940D01*
X83810Y329989D01*
X83766Y330045D01*
X83722Y330073D01*
X83684Y330109D01*
X83619Y330139D01*
X83559Y330178D01*
X83508Y330191D01*
X83461Y330213D01*
X83390Y330221D01*
X83320Y330238D01*
X83268Y330234D01*
X83217Y330240D01*
X83146Y330225D01*
X83075Y330219D01*
X83027Y330199D01*
X82976Y330188D01*
X82915Y330151D01*
X82849Y330123D01*
X82793Y330078D01*
X82765Y330061D01*
X82750Y330044D01*
X82718Y330018D01*
X81105Y328405D01*
X78117Y327167D01*
X74883Y327167D01*
X71895Y328405D01*
X69609Y330691D01*
X68371Y333679D01*
X68371Y350121D01*
X69609Y353109D01*
X71895Y355395D01*
X74883Y356633D01*
X78117Y356633D01*
X81105Y355395D01*
X82718Y353782D01*
X82776Y353740D01*
X82828Y353691D01*
X82875Y353669D01*
X82917Y353638D01*
X82986Y353617D01*
X83051Y353587D01*
X83103Y353581D01*
X83153Y353566D01*
X83224Y353568D01*
X83295Y353560D01*
X83346Y353571D01*
X83398Y353572D01*
X83466Y353597D01*
X83536Y353612D01*
X83581Y353639D01*
X83629Y353657D01*
X83685Y353702D01*
X83747Y353739D01*
X83781Y353778D01*
X83821Y353811D01*
X83860Y353871D01*
X83907Y353925D01*
X83926Y353974D01*
X83954Y354018D01*
X83972Y354087D01*
X83999Y354154D01*
X84007Y354225D01*
X84015Y354256D01*
X84013Y354279D01*
X84017Y354320D01*
X84017Y405680D01*
X84006Y405750D01*
X84004Y405822D01*
X83986Y405871D01*
X83978Y405922D01*
X83944Y405986D01*
X83919Y406053D01*
X83887Y406094D01*
X83862Y406140D01*
X83810Y406189D01*
X83766Y406245D01*
X83722Y406273D01*
X83684Y406309D01*
X83619Y406339D01*
X83559Y406378D01*
X83508Y406391D01*
X83461Y406413D01*
X83390Y406421D01*
X83320Y406438D01*
X83268Y406434D01*
X83217Y406440D01*
X83146Y406425D01*
X83075Y406419D01*
X83027Y406399D01*
X82976Y406388D01*
X82915Y406351D01*
X82849Y406323D01*
X82793Y406278D01*
X82765Y406261D01*
X82750Y406244D01*
X82718Y406218D01*
X81105Y404605D01*
X78117Y403367D01*
X74883Y403367D01*
X71895Y404605D01*
X69609Y406891D01*
X68371Y409879D01*
X68371Y426321D01*
X69609Y429309D01*
X71895Y431595D01*
X74883Y432833D01*
X78117Y432833D01*
X81105Y431595D01*
X82718Y429982D01*
X82776Y429940D01*
X82828Y429891D01*
X82875Y429869D01*
X82917Y429838D01*
X82986Y429817D01*
X83051Y429787D01*
X83103Y429781D01*
X83153Y429766D01*
X83224Y429768D01*
X83295Y429760D01*
X83346Y429771D01*
X83398Y429772D01*
X83466Y429797D01*
X83536Y429812D01*
X83581Y429839D01*
X83629Y429857D01*
X83685Y429902D01*
X83747Y429939D01*
X83781Y429978D01*
X83821Y430011D01*
X83860Y430071D01*
X83907Y430125D01*
X83926Y430174D01*
X83954Y430218D01*
X83972Y430287D01*
X83999Y430354D01*
X84007Y430425D01*
X84015Y430456D01*
X84013Y430479D01*
X84017Y430520D01*
X84017Y439975D01*
X116272Y472230D01*
X116325Y472304D01*
X116385Y472373D01*
X116397Y472403D01*
X116416Y472429D01*
X116442Y472516D01*
X116476Y472601D01*
X116481Y472642D01*
X116488Y472664D01*
X116487Y472697D01*
X116495Y472768D01*
X116495Y496724D01*
X116480Y496814D01*
X116473Y496905D01*
X116460Y496935D01*
X116455Y496967D01*
X116412Y497048D01*
X116377Y497132D01*
X116351Y497164D01*
X116340Y497184D01*
X116317Y497207D01*
X116272Y497263D01*
X115213Y498322D01*
X115213Y502718D01*
X118322Y505826D01*
X122718Y505826D01*
X125826Y502718D01*
X125826Y498322D01*
X124767Y497263D01*
X124714Y497189D01*
X124655Y497119D01*
X124643Y497089D01*
X124624Y497063D01*
X124597Y496976D01*
X124563Y496891D01*
X124558Y496850D01*
X124551Y496828D01*
X124552Y496796D01*
X124544Y496724D01*
X124544Y473113D01*
X124556Y473043D01*
X124558Y472971D01*
X124576Y472922D01*
X124584Y472871D01*
X124618Y472807D01*
X124642Y472740D01*
X124675Y472699D01*
X124699Y472653D01*
X124751Y472604D01*
X124796Y472548D01*
X124840Y472520D01*
X124878Y472484D01*
X124943Y472454D01*
X125003Y472415D01*
X125053Y472402D01*
X125101Y472380D01*
X125172Y472372D01*
X125241Y472355D01*
X125293Y472359D01*
X125345Y472353D01*
X125415Y472368D01*
X125487Y472374D01*
X125535Y472394D01*
X125585Y472405D01*
X125647Y472442D01*
X125713Y472470D01*
X125769Y472515D01*
X125797Y472532D01*
X125812Y472549D01*
X125844Y472575D01*
X128452Y475184D01*
X128505Y475258D01*
X128565Y475327D01*
X128577Y475357D01*
X128596Y475383D01*
X128623Y475470D01*
X128657Y475555D01*
X128661Y475596D01*
X128668Y475618D01*
X128667Y475651D01*
X128675Y475722D01*
X128675Y520238D01*
X128661Y520328D01*
X128653Y520419D01*
X128641Y520449D01*
X128636Y520481D01*
X128593Y520561D01*
X128557Y520645D01*
X128531Y520677D01*
X128520Y520698D01*
X128497Y520720D01*
X128452Y520776D01*
X123174Y526054D01*
X123174Y533946D01*
X128754Y539526D01*
X136646Y539526D01*
X142226Y533946D01*
X142226Y526054D01*
X136948Y520776D01*
X136895Y520702D01*
X136835Y520633D01*
X136823Y520603D01*
X136804Y520577D01*
X136777Y520490D01*
X136743Y520405D01*
X136739Y520364D01*
X136732Y520341D01*
X136733Y520309D01*
X136725Y520238D01*
X136725Y476067D01*
X136728Y476046D01*
X136726Y476029D01*
X136739Y475971D01*
X136742Y475905D01*
X136758Y475866D01*
X136764Y475825D01*
X136775Y475805D01*
X136779Y475788D01*
X136808Y475739D01*
X136833Y475676D01*
X136860Y475644D01*
X136880Y475607D01*
X136896Y475592D01*
X136905Y475577D01*
X136948Y475540D01*
X136992Y475488D01*
X137028Y475467D01*
X137058Y475438D01*
X137079Y475428D01*
X137092Y475417D01*
X137145Y475396D01*
X137202Y475361D01*
X137243Y475352D01*
X137281Y475334D01*
X137304Y475332D01*
X137320Y475325D01*
X137405Y475316D01*
X137442Y475307D01*
X137462Y475309D01*
X137487Y475307D01*
X142198Y475307D01*
X145307Y472198D01*
X145307Y470700D01*
X145309Y470687D01*
X145308Y470678D01*
X145319Y470627D01*
X145321Y470610D01*
X145329Y470519D01*
X145341Y470490D01*
X145346Y470458D01*
X145389Y470377D01*
X145425Y470293D01*
X145451Y470261D01*
X145462Y470240D01*
X145485Y470218D01*
X145530Y470162D01*
X154144Y461548D01*
X156725Y458967D01*
X156725Y438067D01*
X152790Y434132D01*
X152748Y434074D01*
X152699Y434022D01*
X152677Y433975D01*
X152646Y433933D01*
X152625Y433864D01*
X152595Y433799D01*
X152589Y433747D01*
X152574Y433697D01*
X152576Y433626D01*
X152568Y433555D01*
X152579Y433504D01*
X152580Y433452D01*
X152605Y433384D01*
X152620Y433314D01*
X152647Y433269D01*
X152665Y433221D01*
X152710Y433165D01*
X152746Y433103D01*
X152786Y433069D01*
X152818Y433029D01*
X152879Y432990D01*
X152933Y432943D01*
X152982Y432924D01*
X153025Y432896D01*
X153095Y432878D01*
X153161Y432851D01*
X153233Y432843D01*
X153264Y432835D01*
X153287Y432837D01*
X153328Y432833D01*
X154317Y432833D01*
X157305Y431595D01*
X159591Y429309D01*
X160829Y426321D01*
X160829Y409879D01*
X159591Y406891D01*
X157305Y404605D01*
X154317Y403367D01*
X153328Y403367D01*
X153257Y403356D01*
X153186Y403354D01*
X153137Y403336D01*
X153085Y403328D01*
X153022Y403294D01*
X152955Y403269D01*
X152914Y403237D01*
X152868Y403212D01*
X152819Y403160D01*
X152763Y403116D01*
X152734Y403072D01*
X152699Y403034D01*
X152668Y402969D01*
X152630Y402909D01*
X152617Y402858D01*
X152595Y402811D01*
X152587Y402740D01*
X152570Y402670D01*
X152574Y402618D01*
X152568Y402567D01*
X152583Y402496D01*
X152589Y402425D01*
X152609Y402377D01*
X152620Y402326D01*
X152657Y402265D01*
X152685Y402199D01*
X152730Y402143D01*
X152746Y402115D01*
X152764Y402100D01*
X152790Y402068D01*
X156725Y398133D01*
X156725Y356144D01*
X156744Y356029D01*
X156761Y355913D01*
X156763Y355907D01*
X156764Y355901D01*
X156819Y355799D01*
X156872Y355694D01*
X156877Y355689D01*
X156880Y355684D01*
X156964Y355604D01*
X157048Y355522D01*
X157054Y355518D01*
X157058Y355515D01*
X157075Y355507D01*
X157195Y355441D01*
X157305Y355395D01*
X159591Y353109D01*
X160829Y350121D01*
X160829Y333679D01*
X159591Y330691D01*
X157305Y328405D01*
X154317Y327167D01*
X151083Y327167D01*
X148095Y328405D01*
X145809Y330691D01*
X144571Y333679D01*
X144571Y350121D01*
X145809Y353109D01*
X148095Y355395D01*
X148205Y355441D01*
X148305Y355502D01*
X148405Y355562D01*
X148409Y355567D01*
X148414Y355570D01*
X148489Y355660D01*
X148565Y355749D01*
X148567Y355755D01*
X148571Y355760D01*
X148613Y355868D01*
X148657Y355977D01*
X148658Y355985D01*
X148659Y355989D01*
X148660Y356008D01*
X148675Y356144D01*
X148675Y394483D01*
X148661Y394573D01*
X148653Y394664D01*
X148641Y394694D01*
X148636Y394726D01*
X148593Y394807D01*
X148557Y394891D01*
X148531Y394923D01*
X148520Y394943D01*
X148497Y394966D01*
X148452Y395022D01*
X138047Y405427D01*
X138047Y430773D01*
X148452Y441178D01*
X148505Y441252D01*
X148565Y441322D01*
X148577Y441352D01*
X148596Y441378D01*
X148623Y441465D01*
X148657Y441550D01*
X148661Y441591D01*
X148668Y441613D01*
X148667Y441645D01*
X148675Y441717D01*
X148675Y455318D01*
X148661Y455408D01*
X148653Y455499D01*
X148641Y455528D01*
X148636Y455560D01*
X148593Y455641D01*
X148557Y455725D01*
X148531Y455757D01*
X148520Y455778D01*
X148497Y455800D01*
X148452Y455856D01*
X139838Y464470D01*
X139764Y464523D01*
X139694Y464583D01*
X139664Y464595D01*
X139638Y464614D01*
X139551Y464641D01*
X139466Y464675D01*
X139425Y464679D01*
X139403Y464686D01*
X139371Y464685D01*
X139300Y464693D01*
X137802Y464693D01*
X134693Y467802D01*
X134693Y468203D01*
X134682Y468274D01*
X134680Y468345D01*
X134662Y468394D01*
X134654Y468446D01*
X134620Y468509D01*
X134595Y468576D01*
X134563Y468617D01*
X134538Y468663D01*
X134486Y468712D01*
X134442Y468768D01*
X134398Y468797D01*
X134360Y468833D01*
X134295Y468863D01*
X134235Y468901D01*
X134184Y468914D01*
X134137Y468936D01*
X134066Y468944D01*
X133996Y468962D01*
X133944Y468957D01*
X133893Y468963D01*
X133822Y468948D01*
X133751Y468942D01*
X133703Y468922D01*
X133652Y468911D01*
X133591Y468874D01*
X133525Y468846D01*
X133469Y468801D01*
X133441Y468785D01*
X133426Y468767D01*
X133394Y468741D01*
X120920Y456267D01*
X120867Y456193D01*
X120807Y456124D01*
X120795Y456094D01*
X120776Y456067D01*
X120749Y455981D01*
X120715Y455896D01*
X120711Y455855D01*
X120704Y455832D01*
X120705Y455800D01*
X120697Y455729D01*
X120697Y431434D01*
X120708Y431364D01*
X120710Y431292D01*
X120728Y431243D01*
X120736Y431192D01*
X120770Y431128D01*
X120795Y431061D01*
X120827Y431020D01*
X120852Y430974D01*
X120904Y430925D01*
X120948Y430869D01*
X120992Y430841D01*
X121030Y430805D01*
X121095Y430775D01*
X121155Y430736D01*
X121206Y430723D01*
X121253Y430701D01*
X121324Y430693D01*
X121394Y430676D01*
X121446Y430680D01*
X121497Y430674D01*
X121568Y430689D01*
X121639Y430695D01*
X121687Y430715D01*
X121738Y430726D01*
X121799Y430763D01*
X121865Y430791D01*
X121921Y430836D01*
X121949Y430853D01*
X121964Y430870D01*
X121996Y430896D01*
X122695Y431595D01*
X125683Y432833D01*
X128917Y432833D01*
X131905Y431595D01*
X134191Y429309D01*
X135429Y426321D01*
X135429Y409879D01*
X134191Y406891D01*
X131905Y404605D01*
X128917Y403367D01*
X125683Y403367D01*
X122695Y404605D01*
X121996Y405304D01*
X121938Y405346D01*
X121886Y405395D01*
X121839Y405417D01*
X121797Y405448D01*
X121728Y405469D01*
X121663Y405499D01*
X121611Y405505D01*
X121561Y405520D01*
X121490Y405518D01*
X121419Y405526D01*
X121368Y405515D01*
X121316Y405514D01*
X121248Y405489D01*
X121178Y405474D01*
X121133Y405447D01*
X121085Y405429D01*
X121029Y405384D01*
X120967Y405347D01*
X120933Y405308D01*
X120893Y405275D01*
X120854Y405215D01*
X120807Y405161D01*
X120788Y405112D01*
X120760Y405068D01*
X120742Y404999D01*
X120715Y404932D01*
X120707Y404861D01*
X120699Y404830D01*
X120701Y404807D01*
X120697Y404766D01*
X120697Y355234D01*
X120708Y355164D01*
X120710Y355092D01*
X120728Y355043D01*
X120736Y354992D01*
X120770Y354928D01*
X120795Y354861D01*
X120827Y354820D01*
X120852Y354774D01*
X120904Y354725D01*
X120948Y354669D01*
X120992Y354641D01*
X121030Y354605D01*
X121095Y354575D01*
X121155Y354536D01*
X121206Y354523D01*
X121253Y354501D01*
X121324Y354493D01*
X121394Y354476D01*
X121446Y354480D01*
X121497Y354474D01*
X121568Y354489D01*
X121639Y354495D01*
X121687Y354515D01*
X121738Y354526D01*
X121799Y354563D01*
X121865Y354591D01*
X121921Y354636D01*
X121949Y354653D01*
X121964Y354670D01*
X121996Y354696D01*
X122695Y355395D01*
X125050Y356371D01*
X125089Y356395D01*
X125132Y356410D01*
X125193Y356459D01*
X125259Y356500D01*
X125288Y356535D01*
X125324Y356564D01*
X125366Y356630D01*
X125416Y356690D01*
X125432Y356733D01*
X125457Y356771D01*
X125476Y356847D01*
X125504Y356919D01*
X125506Y356965D01*
X125517Y357010D01*
X125511Y357087D01*
X125515Y357165D01*
X125502Y357209D01*
X125498Y357255D01*
X125468Y357326D01*
X125446Y357401D01*
X125420Y357439D01*
X125402Y357481D01*
X125316Y357588D01*
X125306Y357603D01*
X125302Y357606D01*
X125297Y357612D01*
X124693Y358216D01*
X124693Y362612D01*
X127802Y365721D01*
X132198Y365721D01*
X135307Y362612D01*
X135307Y361535D01*
X135321Y361445D01*
X135329Y361354D01*
X135341Y361324D01*
X135346Y361292D01*
X135389Y361211D01*
X135425Y361127D01*
X135451Y361095D01*
X135462Y361075D01*
X135485Y361052D01*
X135530Y360996D01*
X142867Y353659D01*
X142867Y242774D01*
X142878Y242704D01*
X142880Y242632D01*
X142898Y242583D01*
X142906Y242532D01*
X142940Y242468D01*
X142965Y242401D01*
X142997Y242360D01*
X143022Y242314D01*
X143074Y242265D01*
X143118Y242209D01*
X143162Y242181D01*
X143200Y242145D01*
X143265Y242115D01*
X143325Y242076D01*
X143376Y242063D01*
X143423Y242041D01*
X143494Y242033D01*
X143564Y242016D01*
X143616Y242020D01*
X143667Y242014D01*
X143738Y242029D01*
X143809Y242035D01*
X143857Y242055D01*
X143908Y242066D01*
X143969Y242103D01*
X144035Y242131D01*
X144091Y242176D01*
X144119Y242193D01*
X144134Y242210D01*
X144166Y242236D01*
X144865Y242935D01*
X147853Y244173D01*
X151087Y244173D01*
X154075Y242935D01*
X155136Y241874D01*
X155152Y241862D01*
X155164Y241847D01*
X155252Y241791D01*
X155335Y241731D01*
X155354Y241725D01*
X155371Y241714D01*
X155472Y241689D01*
X155571Y241658D01*
X155590Y241659D01*
X155610Y241654D01*
X155713Y241662D01*
X155816Y241665D01*
X155835Y241671D01*
X155855Y241673D01*
X155950Y241713D01*
X156047Y241749D01*
X156063Y241762D01*
X156081Y241769D01*
X156212Y241874D01*
X224652Y310314D01*
X224700Y310381D01*
X224744Y310426D01*
X224750Y310440D01*
X224765Y310458D01*
X224777Y310488D01*
X224796Y310514D01*
X224819Y310588D01*
X224847Y310649D01*
X224849Y310666D01*
X224857Y310686D01*
X224861Y310727D01*
X224868Y310749D01*
X224867Y310781D01*
X224875Y310852D01*
X224875Y318283D01*
X224861Y318373D01*
X224853Y318464D01*
X224841Y318494D01*
X224836Y318526D01*
X224793Y318607D01*
X224757Y318691D01*
X224731Y318723D01*
X224720Y318743D01*
X224697Y318766D01*
X224652Y318822D01*
X214247Y329227D01*
X214247Y354573D01*
X224652Y364978D01*
X224705Y365052D01*
X224765Y365122D01*
X224777Y365152D01*
X224796Y365178D01*
X224823Y365265D01*
X224857Y365350D01*
X224861Y365391D01*
X224868Y365413D01*
X224867Y365445D01*
X224875Y365517D01*
X224875Y403856D01*
X224856Y403971D01*
X224839Y404087D01*
X224837Y404093D01*
X224836Y404099D01*
X224781Y404201D01*
X224728Y404306D01*
X224723Y404311D01*
X224720Y404316D01*
X224636Y404396D01*
X224552Y404478D01*
X224546Y404482D01*
X224542Y404485D01*
X224525Y404493D01*
X224405Y404559D01*
X224295Y404605D01*
X222009Y406891D01*
X220771Y409879D01*
X220771Y426321D01*
X222009Y429309D01*
X224295Y431595D01*
X227283Y432833D01*
X230517Y432833D01*
X231587Y432389D01*
X231682Y432367D01*
X231775Y432339D01*
X231801Y432339D01*
X231826Y432333D01*
X231923Y432342D01*
X232021Y432345D01*
X232045Y432354D01*
X232071Y432356D01*
X232160Y432396D01*
X232252Y432429D01*
X232272Y432446D01*
X232296Y432456D01*
X232368Y432522D01*
X232444Y432583D01*
X232458Y432605D01*
X232477Y432623D01*
X232524Y432708D01*
X232577Y432790D01*
X232583Y432815D01*
X232596Y432838D01*
X232613Y432934D01*
X232637Y433029D01*
X232635Y433055D01*
X232639Y433080D01*
X232625Y433177D01*
X232618Y433274D01*
X232607Y433298D01*
X232604Y433324D01*
X232559Y433411D01*
X232521Y433500D01*
X232501Y433526D01*
X232492Y433543D01*
X232468Y433566D01*
X232417Y433631D01*
X186577Y479470D01*
X186503Y479523D01*
X186434Y479583D01*
X186404Y479595D01*
X186378Y479614D01*
X186291Y479641D01*
X186206Y479675D01*
X186165Y479679D01*
X186143Y479686D01*
X186110Y479685D01*
X186039Y479693D01*
X182802Y479693D01*
X179693Y482802D01*
X179693Y487198D01*
X182802Y490307D01*
X187198Y490307D01*
X190307Y487198D01*
X190307Y483961D01*
X190321Y483871D01*
X190329Y483780D01*
X190341Y483750D01*
X190346Y483718D01*
X190389Y483638D01*
X190425Y483554D01*
X190451Y483522D01*
X190462Y483501D01*
X190485Y483479D01*
X190530Y483423D01*
X242795Y431158D01*
X242795Y373556D01*
X242798Y373536D01*
X242796Y373517D01*
X242818Y373415D01*
X242834Y373313D01*
X242844Y373296D01*
X242848Y373276D01*
X242901Y373187D01*
X242950Y373096D01*
X242964Y373082D01*
X242974Y373065D01*
X243053Y372998D01*
X243128Y372926D01*
X243146Y372918D01*
X243161Y372905D01*
X243257Y372866D01*
X243351Y372823D01*
X243371Y372821D01*
X243389Y372813D01*
X243556Y372795D01*
X254975Y372795D01*
X255065Y372809D01*
X255156Y372817D01*
X255185Y372829D01*
X255217Y372834D01*
X255298Y372877D01*
X255382Y372913D01*
X255414Y372939D01*
X255435Y372950D01*
X255457Y372973D01*
X255513Y373018D01*
X257802Y375307D01*
X262198Y375307D01*
X264462Y373043D01*
X264478Y373032D01*
X264490Y373016D01*
X264578Y372960D01*
X264661Y372900D01*
X264680Y372894D01*
X264697Y372883D01*
X264798Y372858D01*
X264897Y372827D01*
X264916Y372828D01*
X264936Y372823D01*
X265039Y372831D01*
X265142Y372834D01*
X265161Y372840D01*
X265181Y372842D01*
X265276Y372882D01*
X265373Y372918D01*
X265389Y372931D01*
X265407Y372938D01*
X265538Y373043D01*
X267802Y375307D01*
X272198Y375307D01*
X275307Y372198D01*
X275307Y367802D01*
X272198Y364693D01*
X268961Y364693D01*
X268871Y364679D01*
X268780Y364671D01*
X268750Y364659D01*
X268718Y364654D01*
X268638Y364611D01*
X268554Y364575D01*
X268522Y364549D01*
X268501Y364538D01*
X268479Y364515D01*
X268423Y364470D01*
X261158Y357205D01*
X245025Y357205D01*
X244935Y357191D01*
X244844Y357183D01*
X244815Y357171D01*
X244783Y357166D01*
X244702Y357123D01*
X244618Y357087D01*
X244586Y357061D01*
X244565Y357050D01*
X244543Y357027D01*
X244487Y356982D01*
X242198Y354693D01*
X237802Y354693D01*
X234693Y357802D01*
X234693Y362198D01*
X237802Y365307D01*
X242198Y365307D01*
X244487Y363018D01*
X244561Y362965D01*
X244631Y362905D01*
X244661Y362893D01*
X244687Y362874D01*
X244774Y362847D01*
X244859Y362813D01*
X244900Y362809D01*
X244922Y362802D01*
X244954Y362803D01*
X245025Y362795D01*
X258527Y362795D01*
X258617Y362809D01*
X258708Y362817D01*
X258738Y362829D01*
X258770Y362834D01*
X258850Y362877D01*
X258934Y362913D01*
X258967Y362939D01*
X258987Y362950D01*
X259009Y362973D01*
X259065Y363018D01*
X259441Y363394D01*
X259483Y363452D01*
X259533Y363504D01*
X259555Y363551D01*
X259585Y363593D01*
X259606Y363662D01*
X259636Y363727D01*
X259642Y363779D01*
X259657Y363829D01*
X259655Y363900D01*
X259663Y363971D01*
X259652Y364022D01*
X259651Y364074D01*
X259626Y364142D01*
X259611Y364212D01*
X259584Y364257D01*
X259566Y364305D01*
X259522Y364361D01*
X259485Y364423D01*
X259445Y364457D01*
X259413Y364497D01*
X259353Y364536D01*
X259298Y364583D01*
X259250Y364602D01*
X259206Y364630D01*
X259136Y364648D01*
X259070Y364675D01*
X258999Y364683D01*
X258967Y364691D01*
X258944Y364689D01*
X258903Y364693D01*
X257802Y364693D01*
X255513Y366982D01*
X255439Y367035D01*
X255369Y367095D01*
X255339Y367107D01*
X255313Y367126D01*
X255226Y367153D01*
X255141Y367187D01*
X255100Y367191D01*
X255078Y367198D01*
X255046Y367197D01*
X254975Y367205D01*
X238842Y367205D01*
X237205Y368842D01*
X237205Y406478D01*
X237189Y406575D01*
X237180Y406672D01*
X237170Y406696D01*
X237166Y406721D01*
X237120Y406808D01*
X237080Y406897D01*
X237062Y406916D01*
X237050Y406938D01*
X236979Y407006D01*
X236913Y407078D01*
X236891Y407090D01*
X236872Y407108D01*
X236783Y407149D01*
X236697Y407196D01*
X236672Y407201D01*
X236649Y407211D01*
X236552Y407222D01*
X236455Y407239D01*
X236430Y407236D01*
X236405Y407238D01*
X236309Y407218D01*
X236212Y407203D01*
X236189Y407192D01*
X236164Y407186D01*
X236080Y407136D01*
X235993Y407091D01*
X235975Y407073D01*
X235953Y407060D01*
X235905Y407004D01*
X235898Y406999D01*
X233505Y404605D01*
X233395Y404559D01*
X233295Y404498D01*
X233195Y404438D01*
X233191Y404433D01*
X233186Y404430D01*
X233111Y404340D01*
X233035Y404251D01*
X233033Y404245D01*
X233029Y404240D01*
X232987Y404132D01*
X232943Y404023D01*
X232942Y404015D01*
X232941Y404011D01*
X232940Y403992D01*
X232925Y403856D01*
X232925Y361867D01*
X229895Y358837D01*
X229826Y358741D01*
X229754Y358643D01*
X229753Y358640D01*
X229751Y358638D01*
X229716Y358524D01*
X229680Y358409D01*
X229680Y358406D01*
X229679Y358403D01*
X229682Y358282D01*
X229684Y358163D01*
X229685Y358160D01*
X229685Y358157D01*
X229727Y358042D01*
X229767Y357931D01*
X229769Y357929D01*
X229770Y357926D01*
X229845Y357832D01*
X229919Y357738D01*
X229922Y357736D01*
X229923Y357734D01*
X230025Y357668D01*
X230125Y357603D01*
X230128Y357602D01*
X230130Y357601D01*
X230141Y357598D01*
X230285Y357552D01*
X231567Y357297D01*
X233232Y356608D01*
X234730Y355607D01*
X236003Y354334D01*
X237004Y352836D01*
X237693Y351171D01*
X238045Y349405D01*
X238045Y343423D01*
X229662Y343423D01*
X229642Y343420D01*
X229623Y343422D01*
X229521Y343400D01*
X229419Y343383D01*
X229402Y343374D01*
X229382Y343370D01*
X229293Y343317D01*
X229202Y343268D01*
X229188Y343254D01*
X229171Y343244D01*
X229104Y343165D01*
X229033Y343090D01*
X229024Y343072D01*
X229011Y343057D01*
X228973Y342961D01*
X228929Y342867D01*
X228927Y342847D01*
X228919Y342829D01*
X228901Y342662D01*
X228901Y341138D01*
X228904Y341118D01*
X228902Y341099D01*
X228924Y340997D01*
X228941Y340895D01*
X228950Y340878D01*
X228954Y340858D01*
X229007Y340769D01*
X229056Y340678D01*
X229070Y340664D01*
X229080Y340647D01*
X229159Y340580D01*
X229234Y340509D01*
X229252Y340500D01*
X229267Y340487D01*
X229363Y340448D01*
X229457Y340405D01*
X229477Y340403D01*
X229495Y340395D01*
X229662Y340377D01*
X238045Y340377D01*
X238045Y334395D01*
X237693Y332629D01*
X237004Y330964D01*
X236003Y329466D01*
X234730Y328193D01*
X233232Y327192D01*
X231567Y326503D01*
X230285Y326248D01*
X230173Y326206D01*
X230060Y326164D01*
X230057Y326162D01*
X230054Y326161D01*
X229962Y326086D01*
X229868Y326011D01*
X229866Y326008D01*
X229864Y326006D01*
X229800Y325906D01*
X229735Y325804D01*
X229734Y325801D01*
X229732Y325798D01*
X229703Y325680D01*
X229675Y325565D01*
X229675Y325562D01*
X229674Y325559D01*
X229684Y325440D01*
X229694Y325320D01*
X229695Y325317D01*
X229695Y325314D01*
X229743Y325203D01*
X229790Y325094D01*
X229792Y325091D01*
X229793Y325088D01*
X229801Y325080D01*
X229895Y324963D01*
X232925Y321933D01*
X232925Y307203D01*
X170226Y244504D01*
X170169Y244425D01*
X170107Y244350D01*
X170098Y244325D01*
X170082Y244304D01*
X170054Y244211D01*
X170019Y244120D01*
X170018Y244094D01*
X170010Y244069D01*
X170012Y243972D01*
X170008Y243875D01*
X170016Y243849D01*
X170016Y243823D01*
X170050Y243732D01*
X170077Y243638D01*
X170092Y243617D01*
X170101Y243592D01*
X170162Y243516D01*
X170217Y243436D01*
X170238Y243421D01*
X170254Y243400D01*
X170336Y243348D01*
X170415Y243290D01*
X170439Y243281D01*
X170461Y243267D01*
X170556Y243244D01*
X170648Y243213D01*
X170675Y243214D01*
X170700Y243207D01*
X170797Y243215D01*
X170894Y243216D01*
X170926Y243225D01*
X170945Y243226D01*
X170975Y243239D01*
X171055Y243262D01*
X173253Y244173D01*
X176487Y244173D01*
X179475Y242935D01*
X181761Y240649D01*
X182999Y237661D01*
X182999Y221219D01*
X181761Y218231D01*
X179475Y215945D01*
X176487Y214707D01*
X173253Y214707D01*
X172916Y214847D01*
X172821Y214869D01*
X172728Y214898D01*
X172702Y214897D01*
X172677Y214903D01*
X172580Y214894D01*
X172482Y214891D01*
X172458Y214882D01*
X172432Y214880D01*
X172343Y214840D01*
X172251Y214807D01*
X172231Y214791D01*
X172207Y214780D01*
X172135Y214714D01*
X172059Y214653D01*
X172045Y214631D01*
X172026Y214613D01*
X171979Y214528D01*
X171926Y214446D01*
X171920Y214421D01*
X171907Y214398D01*
X171890Y214302D01*
X171866Y214208D01*
X171868Y214182D01*
X171864Y214156D01*
X171878Y214059D01*
X171885Y213963D01*
X171896Y213939D01*
X171899Y213913D01*
X171944Y213826D01*
X171982Y213736D01*
X172002Y213711D01*
X172011Y213693D01*
X172035Y213670D01*
X172087Y213605D01*
X185400Y200292D01*
X185474Y200239D01*
X185544Y200179D01*
X185574Y200167D01*
X185600Y200148D01*
X185687Y200121D01*
X185772Y200087D01*
X185813Y200083D01*
X185835Y200076D01*
X185867Y200077D01*
X185938Y200069D01*
X283340Y200069D01*
X285921Y197488D01*
X293625Y189784D01*
X293641Y189772D01*
X293654Y189757D01*
X293741Y189701D01*
X293825Y189641D01*
X293844Y189635D01*
X293860Y189624D01*
X293961Y189599D01*
X294060Y189568D01*
X294080Y189569D01*
X294099Y189564D01*
X294202Y189572D01*
X294306Y189575D01*
X294324Y189581D01*
X294344Y189583D01*
X294439Y189623D01*
X294537Y189659D01*
X294552Y189671D01*
X294571Y189679D01*
X294701Y189784D01*
X297070Y192153D01*
X300431Y193545D01*
X304069Y193545D01*
X307430Y192153D01*
X310003Y189580D01*
X311395Y186219D01*
X311395Y167341D01*
X310003Y163980D01*
X307430Y161407D01*
X304069Y160015D01*
X300431Y160015D01*
X297070Y161407D01*
X294497Y163980D01*
X293105Y167341D01*
X293105Y178605D01*
X293091Y178695D01*
X293083Y178786D01*
X293071Y178815D01*
X293066Y178847D01*
X293023Y178928D01*
X292987Y179012D01*
X292961Y179044D01*
X292950Y179065D01*
X292927Y179087D01*
X292882Y179143D01*
X287294Y184731D01*
X287236Y184773D01*
X287184Y184822D01*
X287137Y184844D01*
X287095Y184875D01*
X287026Y184896D01*
X286961Y184926D01*
X286909Y184932D01*
X286859Y184947D01*
X286788Y184945D01*
X286717Y184953D01*
X286666Y184942D01*
X286614Y184941D01*
X286546Y184916D01*
X286476Y184901D01*
X286431Y184874D01*
X286383Y184856D01*
X286327Y184811D01*
X286265Y184775D01*
X286231Y184735D01*
X286191Y184702D01*
X286152Y184642D01*
X286105Y184588D01*
X286086Y184539D01*
X286058Y184496D01*
X286040Y184426D01*
X286013Y184359D01*
X286005Y184288D01*
X285997Y184257D01*
X285999Y184234D01*
X285995Y184193D01*
X285995Y167341D01*
X284603Y163980D01*
X282030Y161407D01*
X278669Y160015D01*
X275031Y160015D01*
X271670Y161407D01*
X269097Y163980D01*
X267705Y167341D01*
X267705Y186219D01*
X269097Y189580D01*
X270237Y190720D01*
X270279Y190778D01*
X270328Y190830D01*
X270350Y190877D01*
X270381Y190919D01*
X270402Y190988D01*
X270432Y191053D01*
X270438Y191105D01*
X270453Y191155D01*
X270451Y191226D01*
X270459Y191297D01*
X270448Y191348D01*
X270447Y191400D01*
X270422Y191468D01*
X270407Y191538D01*
X270380Y191583D01*
X270362Y191631D01*
X270317Y191687D01*
X270281Y191749D01*
X270241Y191783D01*
X270209Y191823D01*
X270148Y191862D01*
X270094Y191909D01*
X270045Y191928D01*
X270002Y191956D01*
X269932Y191974D01*
X269866Y192001D01*
X269794Y192009D01*
X269763Y192017D01*
X269740Y192015D01*
X269699Y192019D01*
X258601Y192019D01*
X258530Y192008D01*
X258459Y192006D01*
X258410Y191988D01*
X258358Y191980D01*
X258295Y191946D01*
X258228Y191921D01*
X258187Y191889D01*
X258141Y191864D01*
X258092Y191812D01*
X258036Y191768D01*
X258007Y191724D01*
X257972Y191686D01*
X257941Y191621D01*
X257903Y191561D01*
X257890Y191510D01*
X257868Y191463D01*
X257860Y191392D01*
X257843Y191322D01*
X257847Y191270D01*
X257841Y191219D01*
X257856Y191148D01*
X257862Y191077D01*
X257882Y191029D01*
X257893Y190978D01*
X257930Y190917D01*
X257958Y190851D01*
X258003Y190795D01*
X258019Y190767D01*
X258037Y190752D01*
X258063Y190720D01*
X259203Y189580D01*
X260595Y186219D01*
X260595Y167341D01*
X259203Y163980D01*
X256630Y161407D01*
X253269Y160015D01*
X249631Y160015D01*
X246270Y161407D01*
X243697Y163980D01*
X242305Y167341D01*
X242305Y186219D01*
X243697Y189580D01*
X244837Y190720D01*
X244879Y190778D01*
X244928Y190830D01*
X244950Y190877D01*
X244981Y190919D01*
X245002Y190988D01*
X245032Y191053D01*
X245038Y191105D01*
X245053Y191155D01*
X245051Y191226D01*
X245059Y191297D01*
X245048Y191348D01*
X245047Y191400D01*
X245022Y191468D01*
X245007Y191538D01*
X244980Y191583D01*
X244962Y191631D01*
X244917Y191687D01*
X244881Y191749D01*
X244841Y191783D01*
X244809Y191823D01*
X244748Y191862D01*
X244694Y191909D01*
X244645Y191928D01*
X244602Y191956D01*
X244532Y191974D01*
X244466Y192001D01*
X244394Y192009D01*
X244363Y192017D01*
X244340Y192015D01*
X244299Y192019D01*
X233201Y192019D01*
X233130Y192008D01*
X233059Y192006D01*
X233010Y191988D01*
X232958Y191980D01*
X232895Y191946D01*
X232828Y191921D01*
X232787Y191889D01*
X232741Y191864D01*
X232692Y191812D01*
X232636Y191768D01*
X232607Y191724D01*
X232572Y191686D01*
X232541Y191621D01*
X232503Y191561D01*
X232490Y191510D01*
X232468Y191463D01*
X232460Y191392D01*
X232443Y191322D01*
X232447Y191270D01*
X232441Y191219D01*
X232456Y191148D01*
X232462Y191077D01*
X232482Y191029D01*
X232493Y190978D01*
X232530Y190917D01*
X232558Y190851D01*
X232603Y190795D01*
X232619Y190767D01*
X232637Y190752D01*
X232663Y190720D01*
X233803Y189580D01*
X235195Y186219D01*
X235195Y167341D01*
X233803Y163980D01*
X231230Y161407D01*
X227869Y160015D01*
X224231Y160015D01*
X220870Y161407D01*
X218297Y163980D01*
X216905Y167341D01*
X216905Y186219D01*
X218297Y189580D01*
X219437Y190720D01*
X219479Y190778D01*
X219528Y190830D01*
X219550Y190877D01*
X219581Y190919D01*
X219602Y190988D01*
X219632Y191053D01*
X219638Y191105D01*
X219653Y191155D01*
X219651Y191226D01*
X219659Y191297D01*
X219648Y191348D01*
X219647Y191400D01*
X219622Y191468D01*
X219607Y191538D01*
X219580Y191583D01*
X219562Y191631D01*
X219517Y191687D01*
X219481Y191749D01*
X219441Y191783D01*
X219409Y191823D01*
X219348Y191862D01*
X219294Y191909D01*
X219245Y191928D01*
X219202Y191956D01*
X219132Y191974D01*
X219066Y192001D01*
X218994Y192009D01*
X218963Y192017D01*
X218940Y192015D01*
X218899Y192019D01*
X207801Y192019D01*
X207730Y192008D01*
X207659Y192006D01*
X207610Y191988D01*
X207558Y191980D01*
X207495Y191946D01*
X207428Y191921D01*
X207387Y191889D01*
X207341Y191864D01*
X207292Y191812D01*
X207236Y191768D01*
X207207Y191724D01*
X207172Y191686D01*
X207141Y191621D01*
X207103Y191561D01*
X207090Y191510D01*
X207068Y191463D01*
X207060Y191392D01*
X207043Y191322D01*
X207047Y191270D01*
X207041Y191219D01*
X207056Y191148D01*
X207062Y191077D01*
X207082Y191029D01*
X207093Y190978D01*
X207130Y190917D01*
X207158Y190851D01*
X207203Y190795D01*
X207219Y190767D01*
X207237Y190752D01*
X207263Y190720D01*
X208403Y189580D01*
X209795Y186219D01*
X209795Y167341D01*
X208403Y163980D01*
X205830Y161407D01*
X202469Y160015D01*
X198831Y160015D01*
X195470Y161407D01*
X192897Y163980D01*
X191505Y167341D01*
X191505Y186219D01*
X192897Y189580D01*
X194037Y190720D01*
X194079Y190778D01*
X194128Y190830D01*
X194150Y190877D01*
X194181Y190919D01*
X194202Y190988D01*
X194232Y191053D01*
X194238Y191105D01*
X194253Y191155D01*
X194251Y191226D01*
X194259Y191297D01*
X194248Y191348D01*
X194247Y191400D01*
X194222Y191468D01*
X194207Y191538D01*
X194180Y191583D01*
X194162Y191631D01*
X194117Y191687D01*
X194081Y191749D01*
X194041Y191783D01*
X194009Y191823D01*
X193948Y191862D01*
X193894Y191909D01*
X193845Y191928D01*
X193802Y191956D01*
X193732Y191974D01*
X193666Y192001D01*
X193594Y192009D01*
X193563Y192017D01*
X193540Y192015D01*
X193499Y192019D01*
X182401Y192019D01*
X182330Y192008D01*
X182259Y192006D01*
X182210Y191988D01*
X182158Y191980D01*
X182095Y191946D01*
X182028Y191921D01*
X181987Y191889D01*
X181941Y191864D01*
X181892Y191812D01*
X181836Y191768D01*
X181807Y191724D01*
X181772Y191686D01*
X181741Y191621D01*
X181703Y191561D01*
X181690Y191510D01*
X181668Y191463D01*
X181660Y191392D01*
X181643Y191322D01*
X181647Y191270D01*
X181641Y191219D01*
X181656Y191148D01*
X181662Y191077D01*
X181682Y191029D01*
X181693Y190978D01*
X181730Y190917D01*
X181758Y190851D01*
X181803Y190795D01*
X181819Y190767D01*
X181837Y190752D01*
X181863Y190720D01*
X183003Y189580D01*
X184395Y186219D01*
X184395Y167341D01*
X183003Y163980D01*
X180430Y161407D01*
X177069Y160015D01*
X175457Y160015D01*
X175387Y160004D01*
X175315Y160002D01*
X175266Y159984D01*
X175214Y159976D01*
X175151Y159942D01*
X175084Y159917D01*
X175043Y159885D01*
X174997Y159860D01*
X174948Y159808D01*
X174892Y159764D01*
X174864Y159720D01*
X174828Y159682D01*
X174798Y159617D01*
X174759Y159557D01*
X174746Y159506D01*
X174724Y159459D01*
X174716Y159388D01*
X174699Y159318D01*
X174703Y159266D01*
X174697Y159215D01*
X174712Y159144D01*
X174718Y159073D01*
X174738Y159025D01*
X174749Y158974D01*
X174786Y158913D01*
X174814Y158847D01*
X174859Y158791D01*
X174875Y158763D01*
X174893Y158748D01*
X174919Y158716D01*
X229387Y104248D01*
X229461Y104195D01*
X229530Y104135D01*
X229561Y104123D01*
X229587Y104104D01*
X229674Y104077D01*
X229759Y104043D01*
X229800Y104039D01*
X229822Y104032D01*
X229854Y104033D01*
X229925Y104025D01*
X481667Y104025D01*
X495658Y90034D01*
X495674Y90022D01*
X495686Y90007D01*
X495774Y89951D01*
X495857Y89891D01*
X495876Y89885D01*
X495893Y89874D01*
X495994Y89849D01*
X496093Y89818D01*
X496112Y89819D01*
X496132Y89814D01*
X496235Y89822D01*
X496338Y89825D01*
X496357Y89831D01*
X496377Y89833D01*
X496472Y89873D01*
X496569Y89909D01*
X496585Y89922D01*
X496603Y89929D01*
X496734Y90034D01*
X497045Y90345D01*
X500033Y91583D01*
X503267Y91583D01*
X506255Y90345D01*
X508541Y88059D01*
X509779Y85071D01*
X509779Y68629D01*
X508868Y66431D01*
X508846Y66337D01*
X508818Y66244D01*
X508818Y66217D01*
X508812Y66192D01*
X508821Y66095D01*
X508824Y65998D01*
X508833Y65973D01*
X508835Y65947D01*
X508875Y65858D01*
X508908Y65767D01*
X508925Y65746D01*
X508935Y65722D01*
X509001Y65651D01*
X509062Y65575D01*
X509084Y65561D01*
X509102Y65541D01*
X509187Y65494D01*
X509269Y65442D01*
X509294Y65435D01*
X509317Y65423D01*
X509413Y65405D01*
X509508Y65382D01*
X509534Y65384D01*
X509559Y65379D01*
X509656Y65393D01*
X509753Y65401D01*
X509777Y65411D01*
X509803Y65415D01*
X509890Y65459D01*
X509979Y65497D01*
X510004Y65517D01*
X510022Y65526D01*
X510045Y65550D01*
X510110Y65602D01*
X518698Y74190D01*
X518751Y74264D01*
X518811Y74334D01*
X518823Y74364D01*
X518842Y74390D01*
X518869Y74477D01*
X518903Y74562D01*
X518907Y74603D01*
X518914Y74625D01*
X518913Y74657D01*
X518921Y74728D01*
X518921Y85071D01*
X520159Y88059D01*
X522445Y90345D01*
X525433Y91583D01*
X528667Y91583D01*
X531655Y90345D01*
X533941Y88059D01*
X535179Y85071D01*
X535179Y68629D01*
X533941Y65641D01*
X531655Y63355D01*
X528667Y62117D01*
X525433Y62117D01*
X522445Y63355D01*
X521384Y64416D01*
X521368Y64428D01*
X521356Y64443D01*
X521268Y64499D01*
X521185Y64559D01*
X521166Y64565D01*
X521149Y64576D01*
X521048Y64601D01*
X520949Y64632D01*
X520930Y64631D01*
X520910Y64636D01*
X520807Y64628D01*
X520704Y64625D01*
X520685Y64619D01*
X520665Y64617D01*
X520570Y64577D01*
X520473Y64541D01*
X520457Y64528D01*
X520439Y64521D01*
X520308Y64416D01*
X504448Y48556D01*
X501867Y45975D01*
X430567Y45975D01*
X430504Y45965D01*
X430440Y45965D01*
X430383Y45945D01*
X430324Y45936D01*
X430268Y45906D01*
X430207Y45885D01*
X430160Y45848D01*
X430107Y45820D01*
X430063Y45774D01*
X430012Y45735D01*
X429979Y45686D01*
X429937Y45642D01*
X429910Y45584D01*
X429875Y45531D01*
X429859Y45473D01*
X429834Y45419D01*
X429827Y45355D01*
X429810Y45294D01*
X429813Y45234D01*
X429807Y45175D01*
X429820Y45112D01*
X429824Y45048D01*
X429846Y44993D01*
X429859Y44934D01*
X429892Y44879D01*
X429915Y44820D01*
X429954Y44775D01*
X429985Y44723D01*
X430034Y44682D01*
X430075Y44633D01*
X430126Y44602D01*
X430172Y44563D01*
X430231Y44539D01*
X430286Y44506D01*
X430369Y44484D01*
X430400Y44471D01*
X430424Y44469D01*
X430448Y44462D01*
X431089Y44361D01*
X432610Y43866D01*
X434035Y43140D01*
X435329Y42200D01*
X436460Y41069D01*
X437400Y39775D01*
X438126Y38350D01*
X438621Y36829D01*
X438871Y35250D01*
X438871Y28353D01*
X429472Y28353D01*
X429452Y28350D01*
X429433Y28352D01*
X429331Y28330D01*
X429229Y28313D01*
X429212Y28304D01*
X429192Y28300D01*
X429103Y28247D01*
X429012Y28198D01*
X428998Y28184D01*
X428981Y28174D01*
X428914Y28095D01*
X428843Y28020D01*
X428834Y28002D01*
X428821Y27987D01*
X428783Y27891D01*
X428739Y27797D01*
X428737Y27777D01*
X428729Y27759D01*
X428711Y27592D01*
X428711Y26068D01*
X428714Y26048D01*
X428712Y26029D01*
X428734Y25927D01*
X428751Y25825D01*
X428760Y25808D01*
X428764Y25788D01*
X428817Y25699D01*
X428866Y25608D01*
X428880Y25594D01*
X428890Y25577D01*
X428969Y25510D01*
X429044Y25439D01*
X429062Y25430D01*
X429077Y25417D01*
X429173Y25378D01*
X429267Y25335D01*
X429287Y25333D01*
X429305Y25325D01*
X429472Y25307D01*
X438871Y25307D01*
X438871Y18410D01*
X438621Y16831D01*
X438126Y15310D01*
X437400Y13885D01*
X436460Y12591D01*
X435330Y11460D01*
X435288Y11402D01*
X435238Y11350D01*
X435217Y11303D01*
X435186Y11261D01*
X435165Y11192D01*
X435135Y11127D01*
X435129Y11075D01*
X435114Y11025D01*
X435116Y10954D01*
X435108Y10883D01*
X435119Y10832D01*
X435120Y10780D01*
X435145Y10712D01*
X435160Y10642D01*
X435187Y10597D01*
X435205Y10549D01*
X435249Y10493D01*
X435286Y10431D01*
X435326Y10397D01*
X435358Y10357D01*
X435419Y10318D01*
X435473Y10271D01*
X435521Y10252D01*
X435565Y10224D01*
X435635Y10206D01*
X435701Y10179D01*
X435773Y10171D01*
X435804Y10163D01*
X435827Y10165D01*
X435868Y10161D01*
X522679Y10161D01*
X522750Y10172D01*
X522821Y10174D01*
X522870Y10192D01*
X522922Y10200D01*
X522985Y10234D01*
X523052Y10259D01*
X523093Y10291D01*
X523139Y10316D01*
X523188Y10368D01*
X523244Y10412D01*
X523273Y10456D01*
X523308Y10494D01*
X523339Y10559D01*
X523377Y10619D01*
X523390Y10670D01*
X523412Y10717D01*
X523420Y10788D01*
X523437Y10858D01*
X523433Y10910D01*
X523439Y10961D01*
X523424Y11032D01*
X523418Y11103D01*
X523398Y11151D01*
X523387Y11202D01*
X523350Y11263D01*
X523322Y11329D01*
X523277Y11385D01*
X523261Y11413D01*
X523243Y11428D01*
X523217Y11460D01*
X520627Y14050D01*
X519235Y17411D01*
X519235Y36289D01*
X520627Y39650D01*
X523200Y42223D01*
X526561Y43615D01*
X530199Y43615D01*
X533560Y42223D01*
X536133Y39650D01*
X537525Y36289D01*
X537525Y17411D01*
X536133Y14050D01*
X533543Y11460D01*
X533501Y11402D01*
X533452Y11350D01*
X533430Y11303D01*
X533399Y11261D01*
X533378Y11192D01*
X533348Y11127D01*
X533342Y11075D01*
X533327Y11025D01*
X533329Y10954D01*
X533321Y10883D01*
X533332Y10832D01*
X533333Y10780D01*
X533358Y10712D01*
X533373Y10642D01*
X533400Y10597D01*
X533418Y10549D01*
X533463Y10493D01*
X533499Y10431D01*
X533539Y10397D01*
X533571Y10357D01*
X533632Y10318D01*
X533686Y10271D01*
X533735Y10252D01*
X533778Y10224D01*
X533848Y10206D01*
X533914Y10179D01*
X533986Y10171D01*
X534017Y10163D01*
X534040Y10165D01*
X534081Y10161D01*
X548079Y10161D01*
X548150Y10172D01*
X548221Y10174D01*
X548270Y10192D01*
X548322Y10200D01*
X548385Y10234D01*
X548452Y10259D01*
X548493Y10291D01*
X548539Y10316D01*
X548588Y10368D01*
X548644Y10412D01*
X548673Y10456D01*
X548708Y10494D01*
X548739Y10559D01*
X548777Y10619D01*
X548790Y10670D01*
X548812Y10717D01*
X548820Y10788D01*
X548837Y10858D01*
X548833Y10910D01*
X548839Y10961D01*
X548824Y11032D01*
X548818Y11103D01*
X548798Y11151D01*
X548787Y11202D01*
X548750Y11263D01*
X548722Y11329D01*
X548677Y11385D01*
X548661Y11413D01*
X548643Y11428D01*
X548617Y11460D01*
X546027Y14050D01*
X544635Y17411D01*
X544635Y36289D01*
X546027Y39650D01*
X548600Y42223D01*
X551961Y43615D01*
X555599Y43615D01*
X558960Y42223D01*
X561533Y39650D01*
X562925Y36289D01*
X562925Y17411D01*
X561533Y14050D01*
X558943Y11460D01*
X558901Y11402D01*
X558852Y11350D01*
X558830Y11303D01*
X558799Y11261D01*
X558778Y11192D01*
X558748Y11127D01*
X558742Y11075D01*
X558727Y11025D01*
X558729Y10954D01*
X558721Y10883D01*
X558732Y10832D01*
X558733Y10780D01*
X558758Y10712D01*
X558773Y10642D01*
X558800Y10597D01*
X558818Y10549D01*
X558863Y10493D01*
X558899Y10431D01*
X558939Y10397D01*
X558971Y10357D01*
X559032Y10318D01*
X559086Y10271D01*
X559135Y10252D01*
X559178Y10224D01*
X559248Y10206D01*
X559314Y10179D01*
X559386Y10171D01*
X559417Y10163D01*
X559440Y10165D01*
X559481Y10161D01*
X573479Y10161D01*
X573550Y10172D01*
X573621Y10174D01*
X573670Y10192D01*
X573722Y10200D01*
X573785Y10234D01*
X573852Y10259D01*
X573893Y10291D01*
X573939Y10316D01*
X573988Y10368D01*
X574044Y10412D01*
X574073Y10456D01*
X574108Y10494D01*
X574139Y10559D01*
X574177Y10619D01*
X574190Y10670D01*
X574212Y10717D01*
X574220Y10788D01*
X574237Y10858D01*
X574233Y10910D01*
X574239Y10961D01*
X574224Y11032D01*
X574218Y11103D01*
X574198Y11151D01*
X574187Y11202D01*
X574150Y11263D01*
X574122Y11329D01*
X574077Y11385D01*
X574061Y11413D01*
X574043Y11428D01*
X574017Y11460D01*
X571427Y14050D01*
X570035Y17411D01*
X570035Y36289D01*
X571427Y39650D01*
X574000Y42223D01*
X577361Y43615D01*
X580999Y43615D01*
X584360Y42223D01*
X586933Y39650D01*
X588325Y36289D01*
X588325Y17411D01*
X586933Y14050D01*
X584343Y11460D01*
X584301Y11402D01*
X584252Y11350D01*
X584230Y11303D01*
X584199Y11261D01*
X584178Y11192D01*
X584148Y11127D01*
X584142Y11075D01*
X584127Y11025D01*
X584129Y10954D01*
X584121Y10883D01*
X584132Y10832D01*
X584133Y10780D01*
X584158Y10712D01*
X584173Y10642D01*
X584200Y10597D01*
X584218Y10549D01*
X584263Y10493D01*
X584299Y10431D01*
X584339Y10397D01*
X584371Y10357D01*
X584432Y10318D01*
X584486Y10271D01*
X584535Y10252D01*
X584578Y10224D01*
X584648Y10206D01*
X584714Y10179D01*
X584786Y10171D01*
X584817Y10163D01*
X584840Y10165D01*
X584881Y10161D01*
X598879Y10161D01*
X598950Y10172D01*
X599021Y10174D01*
X599070Y10192D01*
X599122Y10200D01*
X599185Y10234D01*
X599252Y10259D01*
X599293Y10291D01*
X599339Y10316D01*
X599388Y10368D01*
X599444Y10412D01*
X599473Y10456D01*
X599508Y10494D01*
X599539Y10559D01*
X599577Y10619D01*
X599590Y10670D01*
X599612Y10717D01*
X599620Y10788D01*
X599637Y10858D01*
X599633Y10910D01*
X599639Y10961D01*
X599624Y11032D01*
X599618Y11103D01*
X599598Y11151D01*
X599587Y11202D01*
X599550Y11263D01*
X599522Y11329D01*
X599477Y11385D01*
X599461Y11413D01*
X599443Y11428D01*
X599417Y11460D01*
X596827Y14050D01*
X595435Y17411D01*
X595435Y36289D01*
X596827Y39650D01*
X599400Y42223D01*
X602761Y43615D01*
X606399Y43615D01*
X609760Y42223D01*
X612333Y39650D01*
X613725Y36289D01*
X613725Y17411D01*
X612333Y14050D01*
X609743Y11460D01*
X609701Y11402D01*
X609652Y11350D01*
X609630Y11303D01*
X609599Y11261D01*
X609578Y11192D01*
X609548Y11127D01*
X609542Y11075D01*
X609527Y11025D01*
X609529Y10954D01*
X609521Y10883D01*
X609532Y10832D01*
X609533Y10780D01*
X609558Y10712D01*
X609573Y10642D01*
X609600Y10597D01*
X609618Y10549D01*
X609663Y10493D01*
X609699Y10431D01*
X609739Y10397D01*
X609771Y10357D01*
X609832Y10318D01*
X609886Y10271D01*
X609935Y10252D01*
X609978Y10224D01*
X610048Y10206D01*
X610114Y10179D01*
X610186Y10171D01*
X610217Y10163D01*
X610240Y10165D01*
X610281Y10161D01*
X624279Y10161D01*
X624350Y10172D01*
X624421Y10174D01*
X624470Y10192D01*
X624522Y10200D01*
X624585Y10234D01*
X624652Y10259D01*
X624693Y10291D01*
X624739Y10316D01*
X624788Y10368D01*
X624844Y10412D01*
X624873Y10456D01*
X624908Y10494D01*
X624939Y10559D01*
X624977Y10619D01*
X624990Y10670D01*
X625012Y10717D01*
X625020Y10788D01*
X625037Y10858D01*
X625033Y10910D01*
X625039Y10961D01*
X625024Y11032D01*
X625018Y11103D01*
X624998Y11151D01*
X624987Y11202D01*
X624950Y11263D01*
X624922Y11329D01*
X624877Y11385D01*
X624861Y11413D01*
X624843Y11428D01*
X624817Y11460D01*
X622227Y14050D01*
X620835Y17411D01*
X620835Y36289D01*
X622227Y39650D01*
X624800Y42223D01*
X628161Y43615D01*
X631799Y43615D01*
X635160Y42223D01*
X637733Y39650D01*
X639125Y36289D01*
X639125Y17411D01*
X637733Y14050D01*
X635143Y11460D01*
X635101Y11402D01*
X635052Y11350D01*
X635030Y11303D01*
X634999Y11261D01*
X634978Y11192D01*
X634948Y11127D01*
X634942Y11075D01*
X634927Y11025D01*
X634929Y10954D01*
X634921Y10883D01*
X634932Y10832D01*
X634933Y10780D01*
X634958Y10712D01*
X634973Y10642D01*
X635000Y10597D01*
X635018Y10549D01*
X635063Y10493D01*
X635099Y10431D01*
X635139Y10397D01*
X635171Y10357D01*
X635232Y10318D01*
X635286Y10271D01*
X635335Y10252D01*
X635378Y10224D01*
X635448Y10206D01*
X635514Y10179D01*
X635586Y10171D01*
X635617Y10163D01*
X635640Y10165D01*
X635681Y10161D01*
X649679Y10161D01*
X649750Y10172D01*
X649821Y10174D01*
X649870Y10192D01*
X649922Y10200D01*
X649985Y10234D01*
X650052Y10259D01*
X650093Y10291D01*
X650139Y10316D01*
X650188Y10368D01*
X650244Y10412D01*
X650273Y10456D01*
X650308Y10494D01*
X650339Y10559D01*
X650377Y10619D01*
X650390Y10670D01*
X650412Y10717D01*
X650420Y10788D01*
X650437Y10858D01*
X650433Y10910D01*
X650439Y10961D01*
X650424Y11032D01*
X650418Y11103D01*
X650398Y11151D01*
X650387Y11202D01*
X650350Y11263D01*
X650322Y11329D01*
X650277Y11385D01*
X650261Y11413D01*
X650243Y11428D01*
X650217Y11460D01*
X647627Y14050D01*
X646235Y17411D01*
X646235Y36289D01*
X647627Y39650D01*
X650200Y42223D01*
X653561Y43615D01*
X657199Y43615D01*
X660560Y42223D01*
X663133Y39650D01*
X664525Y36289D01*
X664525Y17411D01*
X663133Y14050D01*
X660543Y11460D01*
X660501Y11402D01*
X660452Y11350D01*
X660430Y11303D01*
X660399Y11261D01*
X660378Y11192D01*
X660348Y11127D01*
X660342Y11075D01*
X660327Y11025D01*
X660329Y10954D01*
X660321Y10883D01*
X660332Y10832D01*
X660333Y10780D01*
X660358Y10712D01*
X660373Y10642D01*
X660400Y10597D01*
X660418Y10549D01*
X660463Y10493D01*
X660499Y10431D01*
X660539Y10397D01*
X660571Y10357D01*
X660632Y10318D01*
X660686Y10271D01*
X660735Y10252D01*
X660778Y10224D01*
X660848Y10206D01*
X660914Y10179D01*
X660986Y10171D01*
X661017Y10163D01*
X661040Y10165D01*
X661081Y10161D01*
X675079Y10161D01*
X675150Y10172D01*
X675221Y10174D01*
X675270Y10192D01*
X675322Y10200D01*
X675385Y10234D01*
X675452Y10259D01*
X675493Y10291D01*
X675539Y10316D01*
X675588Y10368D01*
X675644Y10412D01*
X675673Y10456D01*
X675708Y10494D01*
X675739Y10559D01*
X675777Y10619D01*
X675790Y10670D01*
X675812Y10717D01*
X675820Y10788D01*
X675837Y10858D01*
X675833Y10910D01*
X675839Y10961D01*
X675824Y11032D01*
X675818Y11103D01*
X675798Y11151D01*
X675787Y11202D01*
X675750Y11263D01*
X675722Y11329D01*
X675677Y11385D01*
X675661Y11413D01*
X675643Y11428D01*
X675617Y11460D01*
X673027Y14050D01*
X671635Y17411D01*
X671635Y36289D01*
X673027Y39650D01*
X675600Y42223D01*
X678961Y43615D01*
X682599Y43615D01*
X685960Y42223D01*
X688533Y39650D01*
X689925Y36289D01*
X689925Y17411D01*
X688533Y14050D01*
X685943Y11460D01*
X685901Y11402D01*
X685852Y11350D01*
X685830Y11303D01*
X685799Y11261D01*
X685778Y11192D01*
X685748Y11127D01*
X685742Y11075D01*
X685727Y11025D01*
X685729Y10954D01*
X685721Y10883D01*
X685732Y10832D01*
X685733Y10780D01*
X685758Y10712D01*
X685773Y10642D01*
X685800Y10597D01*
X685818Y10549D01*
X685863Y10493D01*
X685899Y10431D01*
X685939Y10397D01*
X685971Y10357D01*
X686032Y10318D01*
X686086Y10271D01*
X686135Y10252D01*
X686178Y10224D01*
X686248Y10206D01*
X686314Y10179D01*
X686386Y10171D01*
X686417Y10163D01*
X686440Y10165D01*
X686481Y10161D01*
X700479Y10161D01*
X700550Y10172D01*
X700621Y10174D01*
X700670Y10192D01*
X700722Y10200D01*
X700785Y10234D01*
X700852Y10259D01*
X700893Y10291D01*
X700939Y10316D01*
X700988Y10368D01*
X701044Y10412D01*
X701073Y10456D01*
X701108Y10494D01*
X701139Y10559D01*
X701177Y10619D01*
X701190Y10670D01*
X701212Y10717D01*
X701220Y10788D01*
X701237Y10858D01*
X701233Y10910D01*
X701239Y10961D01*
X701224Y11032D01*
X701218Y11103D01*
X701198Y11151D01*
X701187Y11202D01*
X701150Y11263D01*
X701122Y11329D01*
X701077Y11385D01*
X701061Y11413D01*
X701043Y11428D01*
X701017Y11460D01*
X698427Y14050D01*
X697035Y17411D01*
X697035Y36289D01*
X698427Y39650D01*
X701000Y42223D01*
X704361Y43615D01*
X707999Y43615D01*
X711360Y42223D01*
X713933Y39650D01*
X715325Y36289D01*
X715325Y17411D01*
X713933Y14050D01*
X711343Y11460D01*
X711301Y11402D01*
X711252Y11350D01*
X711230Y11303D01*
X711199Y11261D01*
X711178Y11192D01*
X711148Y11127D01*
X711142Y11075D01*
X711127Y11025D01*
X711129Y10954D01*
X711121Y10883D01*
X711132Y10832D01*
X711133Y10780D01*
X711158Y10712D01*
X711173Y10642D01*
X711200Y10597D01*
X711218Y10549D01*
X711263Y10493D01*
X711299Y10431D01*
X711339Y10397D01*
X711371Y10357D01*
X711432Y10318D01*
X711486Y10271D01*
X711535Y10252D01*
X711578Y10224D01*
X711648Y10206D01*
X711714Y10179D01*
X711786Y10171D01*
X711817Y10163D01*
X711840Y10165D01*
X711881Y10161D01*
X725879Y10161D01*
X725950Y10172D01*
X726021Y10174D01*
X726070Y10192D01*
X726122Y10200D01*
X726185Y10234D01*
X726252Y10259D01*
X726293Y10291D01*
X726339Y10316D01*
X726388Y10368D01*
X726444Y10412D01*
X726473Y10456D01*
X726508Y10494D01*
X726539Y10559D01*
X726577Y10619D01*
X726590Y10670D01*
X726612Y10717D01*
X726620Y10788D01*
X726637Y10858D01*
X726633Y10910D01*
X726639Y10961D01*
X726624Y11032D01*
X726618Y11103D01*
X726598Y11151D01*
X726587Y11202D01*
X726550Y11263D01*
X726522Y11329D01*
X726477Y11385D01*
X726461Y11413D01*
X726443Y11428D01*
X726417Y11460D01*
X723827Y14050D01*
X722435Y17411D01*
X722435Y36289D01*
X723827Y39650D01*
X726400Y42223D01*
X729761Y43615D01*
X733399Y43615D01*
X736760Y42223D01*
X739333Y39650D01*
X740725Y36289D01*
X740725Y17411D01*
X739333Y14050D01*
X736743Y11460D01*
X736701Y11402D01*
X736652Y11350D01*
X736630Y11303D01*
X736599Y11261D01*
X736578Y11192D01*
X736548Y11127D01*
X736542Y11075D01*
X736527Y11025D01*
X736529Y10954D01*
X736521Y10883D01*
X736532Y10832D01*
X736533Y10780D01*
X736558Y10712D01*
X736573Y10642D01*
X736600Y10597D01*
X736618Y10549D01*
X736663Y10493D01*
X736699Y10431D01*
X736739Y10397D01*
X736771Y10357D01*
X736832Y10318D01*
X736886Y10271D01*
X736935Y10252D01*
X736978Y10224D01*
X737048Y10206D01*
X737114Y10179D01*
X737186Y10171D01*
X737217Y10163D01*
X737240Y10165D01*
X737281Y10161D01*
X751279Y10161D01*
X751350Y10172D01*
X751421Y10174D01*
X751470Y10192D01*
X751522Y10200D01*
X751585Y10234D01*
X751652Y10259D01*
X751693Y10291D01*
X751739Y10316D01*
X751788Y10368D01*
X751844Y10412D01*
X751873Y10456D01*
X751908Y10494D01*
X751939Y10559D01*
X751977Y10619D01*
X751990Y10670D01*
X752012Y10717D01*
X752020Y10788D01*
X752037Y10858D01*
X752033Y10910D01*
X752039Y10961D01*
X752024Y11032D01*
X752018Y11103D01*
X751998Y11151D01*
X751987Y11202D01*
X751950Y11263D01*
X751922Y11329D01*
X751877Y11385D01*
X751861Y11413D01*
X751843Y11428D01*
X751817Y11460D01*
X749227Y14050D01*
X747835Y17411D01*
X747835Y36289D01*
X749227Y39650D01*
X751800Y42223D01*
X755161Y43615D01*
X758799Y43615D01*
X762160Y42223D01*
X764733Y39650D01*
X766125Y36289D01*
X766125Y17411D01*
X764733Y14050D01*
X762143Y11460D01*
X762101Y11402D01*
X762052Y11350D01*
X762030Y11303D01*
X761999Y11261D01*
X761978Y11192D01*
X761948Y11127D01*
X761942Y11075D01*
X761927Y11025D01*
X761929Y10954D01*
X761921Y10883D01*
X761932Y10832D01*
X761933Y10780D01*
X761958Y10712D01*
X761973Y10642D01*
X762000Y10597D01*
X762018Y10549D01*
X762063Y10493D01*
X762099Y10431D01*
X762139Y10397D01*
X762171Y10357D01*
X762232Y10318D01*
X762286Y10271D01*
X762335Y10252D01*
X762378Y10224D01*
X762448Y10206D01*
X762514Y10179D01*
X762586Y10171D01*
X762617Y10163D01*
X762640Y10165D01*
X762681Y10161D01*
X776679Y10161D01*
X776750Y10172D01*
X776821Y10174D01*
X776870Y10192D01*
X776922Y10200D01*
X776985Y10234D01*
X777052Y10259D01*
X777093Y10291D01*
X777139Y10316D01*
X777188Y10368D01*
X777244Y10412D01*
X777273Y10456D01*
X777308Y10494D01*
X777339Y10559D01*
X777377Y10619D01*
X777390Y10670D01*
X777412Y10717D01*
X777420Y10788D01*
X777437Y10858D01*
X777433Y10910D01*
X777439Y10961D01*
X777424Y11032D01*
X777418Y11103D01*
X777398Y11151D01*
X777387Y11202D01*
X777350Y11263D01*
X777322Y11329D01*
X777277Y11385D01*
X777261Y11413D01*
X777243Y11428D01*
X777217Y11460D01*
X774627Y14050D01*
X773235Y17411D01*
X773235Y36289D01*
X774627Y39650D01*
X777200Y42223D01*
X780561Y43615D01*
X784199Y43615D01*
X787560Y42223D01*
X790133Y39650D01*
X791525Y36289D01*
X791525Y17411D01*
X790133Y14050D01*
X787543Y11460D01*
X787501Y11402D01*
X787452Y11350D01*
X787430Y11303D01*
X787399Y11261D01*
X787378Y11192D01*
X787348Y11127D01*
X787342Y11075D01*
X787327Y11025D01*
X787329Y10954D01*
X787321Y10883D01*
X787332Y10832D01*
X787333Y10780D01*
X787358Y10712D01*
X787373Y10642D01*
X787400Y10597D01*
X787418Y10549D01*
X787463Y10493D01*
X787499Y10431D01*
X787539Y10397D01*
X787571Y10357D01*
X787632Y10318D01*
X787686Y10271D01*
X787735Y10252D01*
X787778Y10224D01*
X787848Y10206D01*
X787914Y10179D01*
X787986Y10171D01*
X788017Y10163D01*
X788040Y10165D01*
X788081Y10161D01*
X802079Y10161D01*
X802150Y10172D01*
X802221Y10174D01*
X802270Y10192D01*
X802322Y10200D01*
X802385Y10234D01*
X802452Y10259D01*
X802493Y10291D01*
X802539Y10316D01*
X802588Y10368D01*
X802644Y10412D01*
X802673Y10456D01*
X802708Y10494D01*
X802739Y10559D01*
X802777Y10619D01*
X802790Y10670D01*
X802812Y10717D01*
X802820Y10788D01*
X802837Y10858D01*
X802833Y10910D01*
X802839Y10961D01*
X802824Y11032D01*
X802818Y11103D01*
X802798Y11151D01*
X802787Y11202D01*
X802750Y11263D01*
X802722Y11329D01*
X802677Y11385D01*
X802661Y11413D01*
X802643Y11428D01*
X802617Y11460D01*
X800027Y14050D01*
X798635Y17411D01*
X798635Y36289D01*
X800027Y39650D01*
X802600Y42223D01*
X805961Y43615D01*
X809599Y43615D01*
X812960Y42223D01*
X815533Y39650D01*
X816925Y36289D01*
X816925Y17411D01*
X815533Y14050D01*
X812943Y11460D01*
X812901Y11402D01*
X812852Y11350D01*
X812830Y11303D01*
X812799Y11261D01*
X812778Y11192D01*
X812748Y11127D01*
X812742Y11075D01*
X812727Y11025D01*
X812729Y10954D01*
X812721Y10883D01*
X812732Y10832D01*
X812733Y10780D01*
X812758Y10712D01*
X812773Y10642D01*
X812800Y10597D01*
X812818Y10549D01*
X812863Y10493D01*
X812899Y10431D01*
X812939Y10397D01*
X812971Y10357D01*
X813032Y10318D01*
X813086Y10271D01*
X813135Y10252D01*
X813178Y10224D01*
X813248Y10206D01*
X813314Y10179D01*
X813386Y10171D01*
X813417Y10163D01*
X813440Y10165D01*
X813481Y10161D01*
X827479Y10161D01*
X827550Y10172D01*
X827621Y10174D01*
X827670Y10192D01*
X827722Y10200D01*
X827785Y10234D01*
X827852Y10259D01*
X827893Y10291D01*
X827939Y10316D01*
X827988Y10368D01*
X828044Y10412D01*
X828073Y10456D01*
X828108Y10494D01*
X828139Y10559D01*
X828177Y10619D01*
X828190Y10670D01*
X828212Y10717D01*
X828220Y10788D01*
X828237Y10858D01*
X828233Y10910D01*
X828239Y10961D01*
X828224Y11032D01*
X828218Y11103D01*
X828198Y11151D01*
X828187Y11202D01*
X828150Y11263D01*
X828122Y11329D01*
X828077Y11385D01*
X828061Y11413D01*
X828043Y11428D01*
X828017Y11460D01*
X825427Y14050D01*
X824035Y17411D01*
X824035Y36289D01*
X825427Y39650D01*
X828000Y42223D01*
X831361Y43615D01*
X834999Y43615D01*
X838360Y42223D01*
X840933Y39650D01*
X842325Y36289D01*
X842325Y17411D01*
X840933Y14050D01*
X838343Y11460D01*
X838301Y11402D01*
X838252Y11350D01*
X838230Y11303D01*
X838199Y11261D01*
X838178Y11192D01*
X838148Y11127D01*
X838142Y11075D01*
X838127Y11025D01*
X838129Y10954D01*
X838121Y10883D01*
X838132Y10832D01*
X838133Y10780D01*
X838158Y10712D01*
X838173Y10642D01*
X838200Y10597D01*
X838218Y10549D01*
X838263Y10493D01*
X838299Y10431D01*
X838339Y10397D01*
X838371Y10357D01*
X838432Y10318D01*
X838486Y10271D01*
X838535Y10252D01*
X838578Y10224D01*
X838648Y10206D01*
X838714Y10179D01*
X838786Y10171D01*
X838817Y10163D01*
X838840Y10165D01*
X838881Y10161D01*
X851442Y10161D01*
X851513Y10172D01*
X851584Y10174D01*
X851633Y10192D01*
X851685Y10200D01*
X851748Y10234D01*
X851815Y10259D01*
X851856Y10291D01*
X851902Y10316D01*
X851951Y10368D01*
X852007Y10412D01*
X852036Y10456D01*
X852072Y10494D01*
X852102Y10559D01*
X852140Y10619D01*
X852153Y10670D01*
X852175Y10717D01*
X852183Y10788D01*
X852201Y10858D01*
X852196Y10910D01*
X852202Y10961D01*
X852187Y11032D01*
X852181Y11103D01*
X852161Y11151D01*
X852150Y11202D01*
X852113Y11263D01*
X852085Y11329D01*
X852040Y11385D01*
X852024Y11413D01*
X852006Y11428D01*
X851980Y11460D01*
X850830Y12611D01*
X849890Y13905D01*
X849164Y15330D01*
X848669Y16851D01*
X848419Y18430D01*
X848419Y25327D01*
X857818Y25327D01*
X857838Y25330D01*
X857857Y25328D01*
X857959Y25350D01*
X858061Y25367D01*
X858078Y25376D01*
X858098Y25380D01*
X858187Y25433D01*
X858278Y25482D01*
X858292Y25496D01*
X858309Y25506D01*
X858376Y25585D01*
X858447Y25660D01*
X858456Y25678D01*
X858469Y25693D01*
X858507Y25789D01*
X858551Y25883D01*
X858553Y25903D01*
X858561Y25921D01*
X858579Y26088D01*
X858579Y26851D01*
X859342Y26851D01*
X859362Y26854D01*
X859381Y26852D01*
X859483Y26874D01*
X859585Y26891D01*
X859602Y26900D01*
X859622Y26904D01*
X859711Y26957D01*
X859802Y27006D01*
X859816Y27020D01*
X859833Y27030D01*
X859900Y27109D01*
X859971Y27184D01*
X859980Y27202D01*
X859993Y27217D01*
X860032Y27313D01*
X860075Y27407D01*
X860077Y27427D01*
X860085Y27445D01*
X860103Y27612D01*
X860103Y44516D01*
X860959Y44381D01*
X862480Y43886D01*
X863905Y43160D01*
X865199Y42220D01*
X866330Y41089D01*
X867270Y39795D01*
X867996Y38370D01*
X868354Y37269D01*
X868356Y37266D01*
X868357Y37262D01*
X868411Y37158D01*
X868467Y37051D01*
X868470Y37048D01*
X868472Y37044D01*
X868557Y36963D01*
X868643Y36880D01*
X868647Y36878D01*
X868650Y36875D01*
X868758Y36825D01*
X868865Y36774D01*
X868869Y36773D01*
X868873Y36771D01*
X868990Y36758D01*
X869110Y36744D01*
X869114Y36745D01*
X869117Y36744D01*
X869233Y36770D01*
X869350Y36794D01*
X869354Y36796D01*
X869358Y36797D01*
X869460Y36858D01*
X869563Y36918D01*
X869566Y36921D01*
X869569Y36923D01*
X869647Y37013D01*
X869725Y37103D01*
X869726Y37107D01*
X869729Y37110D01*
X869774Y37221D01*
X869819Y37330D01*
X869819Y37334D01*
X869821Y37338D01*
X869839Y37505D01*
X869839Y399078D01*
X869836Y399098D01*
X869838Y399117D01*
X869816Y399219D01*
X869800Y399321D01*
X869790Y399338D01*
X869786Y399358D01*
X869733Y399447D01*
X869684Y399538D01*
X869670Y399552D01*
X869660Y399569D01*
X869581Y399636D01*
X869506Y399708D01*
X869488Y399716D01*
X869473Y399729D01*
X869377Y399768D01*
X869283Y399811D01*
X869263Y399813D01*
X869245Y399821D01*
X869078Y399839D01*
X739395Y399839D01*
X739324Y399828D01*
X739252Y399826D01*
X739203Y399808D01*
X739152Y399800D01*
X739089Y399766D01*
X739021Y399741D01*
X738981Y399709D01*
X738935Y399684D01*
X738885Y399632D01*
X738829Y399588D01*
X738801Y399544D01*
X738765Y399506D01*
X738735Y399441D01*
X738696Y399381D01*
X738684Y399330D01*
X738662Y399283D01*
X738654Y399212D01*
X738636Y399142D01*
X738640Y399090D01*
X738635Y399039D01*
X738650Y398968D01*
X738655Y398897D01*
X738676Y398849D01*
X738687Y398798D01*
X738724Y398737D01*
X738752Y398671D01*
X738797Y398615D01*
X738813Y398587D01*
X738831Y398572D01*
X738857Y398540D01*
X739145Y398252D01*
X739145Y381748D01*
X738252Y380855D01*
X721748Y380855D01*
X720855Y381748D01*
X720855Y398252D01*
X721143Y398540D01*
X721185Y398598D01*
X721235Y398650D01*
X721257Y398697D01*
X721287Y398739D01*
X721308Y398808D01*
X721338Y398873D01*
X721344Y398925D01*
X721359Y398975D01*
X721357Y399046D01*
X721365Y399117D01*
X721354Y399168D01*
X721353Y399220D01*
X721328Y399288D01*
X721313Y399358D01*
X721286Y399403D01*
X721269Y399451D01*
X721224Y399507D01*
X721187Y399569D01*
X721147Y399603D01*
X721115Y399643D01*
X721055Y399682D01*
X721000Y399729D01*
X720952Y399748D01*
X720908Y399776D01*
X720839Y399794D01*
X720772Y399821D01*
X720701Y399829D01*
X720669Y399837D01*
X720646Y399835D01*
X720605Y399839D01*
X319786Y399839D01*
X319716Y399828D01*
X319644Y399826D01*
X319595Y399808D01*
X319544Y399800D01*
X319480Y399766D01*
X319413Y399741D01*
X319372Y399709D01*
X319326Y399684D01*
X319277Y399632D01*
X319221Y399588D01*
X319193Y399544D01*
X319157Y399506D01*
X319127Y399441D01*
X319088Y399381D01*
X319075Y399330D01*
X319053Y399283D01*
X319045Y399212D01*
X319028Y399142D01*
X319032Y399090D01*
X319026Y399039D01*
X319041Y398968D01*
X319047Y398897D01*
X319067Y398849D01*
X319078Y398798D01*
X319115Y398737D01*
X319143Y398671D01*
X319188Y398615D01*
X319205Y398587D01*
X319222Y398572D01*
X319248Y398540D01*
X431515Y286273D01*
X431589Y286220D01*
X431659Y286160D01*
X431689Y286148D01*
X431715Y286129D01*
X431802Y286102D01*
X431887Y286068D01*
X431928Y286064D01*
X431950Y286057D01*
X431982Y286058D01*
X432053Y286050D01*
X469376Y286050D01*
X469393Y286035D01*
X469424Y286023D01*
X469450Y286004D01*
X469537Y285977D01*
X469622Y285943D01*
X469663Y285939D01*
X469685Y285932D01*
X469717Y285933D01*
X469788Y285925D01*
X492210Y285925D01*
X492230Y285928D01*
X492249Y285926D01*
X492351Y285948D01*
X492453Y285964D01*
X492470Y285974D01*
X492490Y285978D01*
X492579Y286031D01*
X492670Y286080D01*
X492684Y286094D01*
X492701Y286104D01*
X492768Y286183D01*
X492840Y286258D01*
X492848Y286276D01*
X492861Y286291D01*
X492900Y286387D01*
X492943Y286481D01*
X492945Y286501D01*
X492953Y286519D01*
X492971Y286686D01*
X492971Y290121D01*
X494209Y293109D01*
X496495Y295395D01*
X499483Y296633D01*
X502717Y296633D01*
X505705Y295395D01*
X507991Y293109D01*
X509229Y290121D01*
X509229Y273679D01*
X507991Y270691D01*
X505705Y268405D01*
X502717Y267167D01*
X499483Y267167D01*
X496495Y268405D01*
X494209Y270691D01*
X492971Y273679D01*
X492971Y277114D01*
X492968Y277134D01*
X492970Y277153D01*
X492948Y277255D01*
X492932Y277357D01*
X492922Y277374D01*
X492918Y277394D01*
X492865Y277483D01*
X492816Y277574D01*
X492802Y277588D01*
X492792Y277605D01*
X492713Y277672D01*
X492638Y277744D01*
X492620Y277752D01*
X492605Y277765D01*
X492509Y277804D01*
X492415Y277847D01*
X492395Y277849D01*
X492377Y277857D01*
X492210Y277875D01*
X470134Y277875D01*
X470063Y277864D01*
X469992Y277862D01*
X469943Y277844D01*
X469891Y277836D01*
X469828Y277802D01*
X469761Y277777D01*
X469720Y277745D01*
X469674Y277720D01*
X469624Y277668D01*
X469568Y277624D01*
X469540Y277580D01*
X469504Y277542D01*
X469474Y277477D01*
X469435Y277417D01*
X469423Y277366D01*
X469401Y277319D01*
X469393Y277248D01*
X469375Y277178D01*
X469379Y277126D01*
X469374Y277075D01*
X469389Y277004D01*
X469395Y276933D01*
X469415Y276885D01*
X469426Y276834D01*
X469463Y276773D01*
X469491Y276707D01*
X469536Y276651D01*
X469552Y276623D01*
X469570Y276608D01*
X469596Y276576D01*
X472226Y273946D01*
X472226Y266054D01*
X466646Y260474D01*
X458754Y260474D01*
X453174Y266054D01*
X453174Y273946D01*
X455929Y276701D01*
X455971Y276759D01*
X456021Y276811D01*
X456042Y276858D01*
X456073Y276900D01*
X456094Y276969D01*
X456124Y277034D01*
X456130Y277086D01*
X456145Y277136D01*
X456143Y277207D01*
X456151Y277278D01*
X456140Y277329D01*
X456139Y277381D01*
X456114Y277449D01*
X456099Y277519D01*
X456072Y277564D01*
X456054Y277612D01*
X456010Y277668D01*
X455973Y277730D01*
X455933Y277764D01*
X455901Y277804D01*
X455840Y277843D01*
X455786Y277890D01*
X455738Y277909D01*
X455694Y277937D01*
X455624Y277955D01*
X455558Y277982D01*
X455486Y277990D01*
X455455Y277998D01*
X455432Y277996D01*
X455391Y278000D01*
X446046Y278000D01*
X445975Y277989D01*
X445903Y277987D01*
X445854Y277969D01*
X445803Y277961D01*
X445740Y277927D01*
X445672Y277902D01*
X445632Y277870D01*
X445586Y277845D01*
X445536Y277793D01*
X445480Y277749D01*
X445452Y277705D01*
X445416Y277667D01*
X445386Y277602D01*
X445347Y277542D01*
X445335Y277491D01*
X445313Y277444D01*
X445305Y277373D01*
X445287Y277303D01*
X445291Y277251D01*
X445286Y277200D01*
X445301Y277129D01*
X445306Y277058D01*
X445327Y277010D01*
X445338Y276959D01*
X445375Y276898D01*
X445403Y276832D01*
X445447Y276776D01*
X445464Y276748D01*
X445482Y276733D01*
X445507Y276701D01*
X447842Y274367D01*
X447842Y271523D01*
X438062Y271523D01*
X438042Y271520D01*
X438023Y271522D01*
X437921Y271500D01*
X437819Y271483D01*
X437802Y271474D01*
X437782Y271470D01*
X437693Y271417D01*
X437602Y271368D01*
X437588Y271354D01*
X437571Y271344D01*
X437504Y271265D01*
X437433Y271190D01*
X437424Y271172D01*
X437411Y271157D01*
X437373Y271061D01*
X437329Y270967D01*
X437327Y270947D01*
X437319Y270929D01*
X437301Y270762D01*
X437301Y269999D01*
X437299Y269999D01*
X437299Y270762D01*
X437296Y270782D01*
X437298Y270801D01*
X437276Y270903D01*
X437259Y271005D01*
X437250Y271022D01*
X437246Y271042D01*
X437193Y271131D01*
X437144Y271222D01*
X437130Y271236D01*
X437120Y271253D01*
X437041Y271320D01*
X436966Y271391D01*
X436948Y271400D01*
X436933Y271413D01*
X436837Y271452D01*
X436743Y271495D01*
X436723Y271497D01*
X436705Y271505D01*
X436538Y271523D01*
X426758Y271523D01*
X426758Y274367D01*
X429093Y276701D01*
X429134Y276759D01*
X429184Y276811D01*
X429206Y276858D01*
X429236Y276900D01*
X429257Y276969D01*
X429287Y277034D01*
X429293Y277086D01*
X429308Y277136D01*
X429307Y277207D01*
X429314Y277278D01*
X429303Y277329D01*
X429302Y277381D01*
X429277Y277449D01*
X429262Y277519D01*
X429235Y277564D01*
X429218Y277612D01*
X429173Y277668D01*
X429136Y277730D01*
X429096Y277764D01*
X429064Y277804D01*
X429004Y277843D01*
X428949Y277890D01*
X428901Y277909D01*
X428857Y277937D01*
X428788Y277955D01*
X428721Y277982D01*
X428650Y277990D01*
X428618Y277998D01*
X428595Y277996D01*
X428554Y278000D01*
X428404Y278000D01*
X425823Y280581D01*
X310444Y395960D01*
X310386Y396002D01*
X310334Y396051D01*
X310287Y396073D01*
X310245Y396103D01*
X310176Y396125D01*
X310111Y396155D01*
X310059Y396161D01*
X310009Y396176D01*
X309938Y396174D01*
X309867Y396182D01*
X309816Y396171D01*
X309764Y396169D01*
X309696Y396145D01*
X309626Y396130D01*
X309582Y396103D01*
X309533Y396085D01*
X309477Y396040D01*
X309415Y396003D01*
X309381Y395964D01*
X309341Y395931D01*
X309302Y395871D01*
X309255Y395817D01*
X309236Y395768D01*
X309208Y395724D01*
X309190Y395655D01*
X309163Y395588D01*
X309155Y395517D01*
X309147Y395486D01*
X309149Y395463D01*
X309145Y395422D01*
X309145Y381748D01*
X308252Y380855D01*
X291748Y380855D01*
X290855Y381748D01*
X290855Y398252D01*
X291748Y399145D01*
X305422Y399145D01*
X305492Y399156D01*
X305564Y399158D01*
X305613Y399176D01*
X305664Y399184D01*
X305728Y399218D01*
X305795Y399243D01*
X305836Y399275D01*
X305882Y399300D01*
X305931Y399352D01*
X305987Y399396D01*
X306015Y399440D01*
X306051Y399478D01*
X306081Y399543D01*
X306120Y399603D01*
X306133Y399654D01*
X306155Y399701D01*
X306163Y399772D01*
X306180Y399842D01*
X306176Y399894D01*
X306182Y399945D01*
X306167Y400016D01*
X306161Y400087D01*
X306141Y400135D01*
X306130Y400186D01*
X306093Y400247D01*
X306065Y400313D01*
X306020Y400369D01*
X306003Y400397D01*
X305991Y400407D01*
X305989Y400412D01*
X305980Y400419D01*
X305960Y400444D01*
X303315Y403089D01*
X303315Y430678D01*
X303301Y430768D01*
X303293Y430859D01*
X303281Y430888D01*
X303276Y430920D01*
X303233Y431001D01*
X303197Y431085D01*
X303171Y431117D01*
X303160Y431138D01*
X303137Y431160D01*
X303092Y431216D01*
X269838Y464470D01*
X269764Y464523D01*
X269694Y464583D01*
X269664Y464595D01*
X269638Y464614D01*
X269551Y464641D01*
X269466Y464675D01*
X269425Y464679D01*
X269403Y464686D01*
X269371Y464685D01*
X269300Y464693D01*
X267802Y464693D01*
X264693Y467802D01*
X264693Y472198D01*
X267802Y475307D01*
X272198Y475307D01*
X275307Y472198D01*
X275307Y470700D01*
X275309Y470687D01*
X275308Y470678D01*
X275319Y470627D01*
X275321Y470610D01*
X275329Y470519D01*
X275341Y470490D01*
X275346Y470458D01*
X275389Y470377D01*
X275425Y470293D01*
X275451Y470261D01*
X275462Y470240D01*
X275485Y470218D01*
X275530Y470162D01*
X308540Y437152D01*
X308598Y437110D01*
X308650Y437061D01*
X308697Y437039D01*
X308739Y437009D01*
X308808Y436987D01*
X308873Y436957D01*
X308925Y436951D01*
X308975Y436936D01*
X309046Y436938D01*
X309117Y436930D01*
X309168Y436941D01*
X309220Y436943D01*
X309288Y436967D01*
X309358Y436982D01*
X309403Y437009D01*
X309451Y437027D01*
X309507Y437072D01*
X309569Y437109D01*
X309603Y437148D01*
X309643Y437181D01*
X309682Y437241D01*
X309729Y437295D01*
X309748Y437344D01*
X309776Y437388D01*
X309794Y437457D01*
X309821Y437524D01*
X309829Y437595D01*
X309837Y437626D01*
X309835Y437649D01*
X309839Y437690D01*
X309839Y580605D01*
X309828Y580676D01*
X309826Y580748D01*
X309808Y580797D01*
X309800Y580848D01*
X309766Y580911D01*
X309741Y580979D01*
X309709Y581019D01*
X309684Y581065D01*
X309632Y581115D01*
X309588Y581171D01*
X309544Y581199D01*
X309506Y581235D01*
X309441Y581265D01*
X309381Y581304D01*
X309330Y581316D01*
X309283Y581338D01*
X309212Y581346D01*
X309142Y581364D01*
X309090Y581360D01*
X309039Y581365D01*
X308968Y581350D01*
X308897Y581345D01*
X308849Y581324D01*
X308798Y581313D01*
X308737Y581276D01*
X308671Y581248D01*
X308615Y581203D01*
X308587Y581187D01*
X308572Y581169D01*
X308540Y581143D01*
X308252Y580855D01*
X291748Y580855D01*
X290855Y581748D01*
X290855Y598252D01*
X291748Y599145D01*
X308252Y599145D01*
X308540Y598857D01*
X308598Y598815D01*
X308650Y598765D01*
X308697Y598743D01*
X308739Y598713D01*
X308808Y598692D01*
X308873Y598662D01*
X308925Y598656D01*
X308975Y598641D01*
X309046Y598643D01*
X309117Y598635D01*
X309168Y598646D01*
X309220Y598647D01*
X309288Y598672D01*
X309358Y598687D01*
X309403Y598714D01*
X309451Y598731D01*
X309507Y598776D01*
X309569Y598813D01*
X309603Y598853D01*
X309643Y598885D01*
X309682Y598945D01*
X309729Y599000D01*
X309748Y599048D01*
X309776Y599092D01*
X309794Y599161D01*
X309821Y599228D01*
X309829Y599299D01*
X309837Y599331D01*
X309835Y599354D01*
X309839Y599395D01*
X309839Y780605D01*
X309828Y780676D01*
X309826Y780748D01*
X309808Y780797D01*
X309800Y780848D01*
X309766Y780911D01*
X309741Y780979D01*
X309709Y781019D01*
X309684Y781065D01*
X309632Y781115D01*
X309588Y781171D01*
X309544Y781199D01*
X309506Y781235D01*
X309441Y781265D01*
X309381Y781304D01*
X309330Y781316D01*
X309283Y781338D01*
X309212Y781346D01*
X309142Y781364D01*
X309090Y781360D01*
X309039Y781365D01*
X308968Y781350D01*
X308897Y781345D01*
X308849Y781324D01*
X308798Y781313D01*
X308737Y781276D01*
X308671Y781248D01*
X308615Y781203D01*
X308587Y781187D01*
X308572Y781169D01*
X308540Y781143D01*
X308252Y780855D01*
X291748Y780855D01*
X290855Y781748D01*
X290855Y798252D01*
X291143Y798540D01*
X291185Y798598D01*
X291235Y798650D01*
X291257Y798697D01*
X291287Y798739D01*
X291308Y798808D01*
X291338Y798873D01*
X291344Y798925D01*
X291359Y798975D01*
X291357Y799046D01*
X291365Y799117D01*
X291354Y799168D01*
X291353Y799220D01*
X291328Y799288D01*
X291313Y799358D01*
X291286Y799403D01*
X291269Y799451D01*
X291224Y799507D01*
X291187Y799569D01*
X291147Y799603D01*
X291115Y799643D01*
X291055Y799682D01*
X291000Y799729D01*
X290952Y799748D01*
X290908Y799776D01*
X290839Y799794D01*
X290772Y799821D01*
X290701Y799829D01*
X290669Y799837D01*
X290646Y799835D01*
X290605Y799839D01*
X159395Y799839D01*
X159324Y799828D01*
X159252Y799826D01*
X159203Y799808D01*
X159152Y799800D01*
X159089Y799766D01*
X159021Y799741D01*
X158981Y799709D01*
X158935Y799684D01*
X158885Y799632D01*
X158829Y799588D01*
X158801Y799544D01*
X158765Y799506D01*
X158735Y799441D01*
X158696Y799381D01*
X158684Y799330D01*
X158662Y799283D01*
X158654Y799212D01*
X158636Y799142D01*
X158640Y799090D01*
X158635Y799039D01*
X158650Y798968D01*
X158655Y798897D01*
X158676Y798849D01*
X158687Y798798D01*
X158724Y798737D01*
X158752Y798671D01*
X158797Y798615D01*
X158813Y798587D01*
X158831Y798572D01*
X158857Y798540D01*
X159145Y798252D01*
X159145Y781748D01*
X158252Y780855D01*
X141748Y780855D01*
X140855Y781748D01*
X140855Y798252D01*
X141143Y798540D01*
X141185Y798598D01*
X141235Y798650D01*
X141257Y798697D01*
X141287Y798739D01*
X141308Y798808D01*
X141338Y798873D01*
X141344Y798925D01*
X141359Y798975D01*
X141357Y799046D01*
X141365Y799117D01*
X141354Y799168D01*
X141353Y799220D01*
X141328Y799288D01*
X141313Y799358D01*
X141286Y799403D01*
X141269Y799451D01*
X141224Y799507D01*
X141187Y799569D01*
X141147Y799603D01*
X141115Y799643D01*
X141055Y799682D01*
X141000Y799729D01*
X140952Y799748D01*
X140908Y799776D01*
X140839Y799794D01*
X140772Y799821D01*
X140701Y799829D01*
X140669Y799837D01*
X140646Y799835D01*
X140605Y799839D01*
X10922Y799839D01*
X10902Y799836D01*
X10883Y799838D01*
X10781Y799816D01*
X10679Y799800D01*
X10662Y799790D01*
X10642Y799786D01*
X10553Y799733D01*
X10462Y799684D01*
X10448Y799670D01*
X10431Y799660D01*
X10364Y799581D01*
X10292Y799506D01*
X10284Y799488D01*
X10271Y799473D01*
X10232Y799377D01*
X10189Y799283D01*
X10187Y799263D01*
X10179Y799245D01*
X10161Y799078D01*
X10161Y10922D01*
X10164Y10902D01*
X10162Y10883D01*
X10184Y10781D01*
X10200Y10679D01*
X10210Y10662D01*
X10214Y10642D01*
X10267Y10553D01*
X10316Y10462D01*
X10330Y10448D01*
X10340Y10431D01*
X10419Y10364D01*
X10494Y10292D01*
X10512Y10284D01*
X10527Y10271D01*
X10623Y10232D01*
X10717Y10189D01*
X10737Y10187D01*
X10755Y10179D01*
X10922Y10161D01*
X92789Y10161D01*
X92860Y10172D01*
G37*
G36*
X498308Y54039D02*
X498308Y54039D01*
X498399Y54047D01*
X498428Y54059D01*
X498460Y54064D01*
X498541Y54107D01*
X498625Y54143D01*
X498657Y54169D01*
X498678Y54180D01*
X498700Y54203D01*
X498756Y54248D01*
X506294Y61786D01*
X506351Y61865D01*
X506413Y61940D01*
X506422Y61964D01*
X506438Y61986D01*
X506466Y62079D01*
X506501Y62170D01*
X506502Y62196D01*
X506510Y62221D01*
X506508Y62318D01*
X506512Y62415D01*
X506504Y62441D01*
X506504Y62467D01*
X506470Y62558D01*
X506443Y62652D01*
X506428Y62673D01*
X506419Y62698D01*
X506358Y62774D01*
X506303Y62854D01*
X506282Y62869D01*
X506266Y62890D01*
X506184Y62942D01*
X506106Y63000D01*
X506081Y63009D01*
X506059Y63023D01*
X505964Y63046D01*
X505872Y63077D01*
X505845Y63076D01*
X505820Y63083D01*
X505723Y63075D01*
X505626Y63074D01*
X505594Y63065D01*
X505575Y63064D01*
X505545Y63051D01*
X505465Y63028D01*
X503267Y62117D01*
X500033Y62117D01*
X497045Y63355D01*
X494759Y65641D01*
X493521Y68629D01*
X493521Y80472D01*
X493507Y80562D01*
X493499Y80653D01*
X493487Y80682D01*
X493482Y80714D01*
X493439Y80795D01*
X493403Y80879D01*
X493377Y80911D01*
X493366Y80932D01*
X493343Y80954D01*
X493298Y81010D01*
X478556Y95752D01*
X478482Y95805D01*
X478412Y95865D01*
X478382Y95877D01*
X478356Y95896D01*
X478269Y95923D01*
X478184Y95957D01*
X478143Y95961D01*
X478121Y95968D01*
X478089Y95967D01*
X478018Y95975D01*
X226276Y95975D01*
X159581Y162670D01*
X159581Y164930D01*
X159566Y165026D01*
X159556Y165123D01*
X159546Y165147D01*
X159542Y165173D01*
X159496Y165259D01*
X159456Y165348D01*
X159439Y165367D01*
X159426Y165390D01*
X159356Y165457D01*
X159290Y165529D01*
X159267Y165541D01*
X159248Y165560D01*
X159160Y165601D01*
X159074Y165647D01*
X159049Y165652D01*
X159025Y165663D01*
X158928Y165674D01*
X158832Y165691D01*
X158806Y165687D01*
X158781Y165690D01*
X158685Y165670D01*
X158589Y165655D01*
X158566Y165644D01*
X158540Y165638D01*
X158457Y165588D01*
X158370Y165544D01*
X158351Y165525D01*
X158329Y165512D01*
X158266Y165438D01*
X158198Y165368D01*
X158182Y165340D01*
X158169Y165325D01*
X158157Y165294D01*
X158117Y165221D01*
X157603Y163980D01*
X155030Y161407D01*
X151669Y160015D01*
X148031Y160015D01*
X144670Y161407D01*
X142097Y163980D01*
X140705Y167341D01*
X140705Y186219D01*
X142097Y189580D01*
X143237Y190720D01*
X143279Y190778D01*
X143328Y190830D01*
X143350Y190877D01*
X143381Y190919D01*
X143402Y190988D01*
X143432Y191053D01*
X143438Y191105D01*
X143453Y191155D01*
X143451Y191226D01*
X143459Y191297D01*
X143448Y191348D01*
X143447Y191400D01*
X143422Y191468D01*
X143407Y191538D01*
X143380Y191583D01*
X143362Y191631D01*
X143317Y191687D01*
X143281Y191749D01*
X143241Y191783D01*
X143209Y191823D01*
X143148Y191862D01*
X143094Y191909D01*
X143045Y191928D01*
X143002Y191956D01*
X142932Y191974D01*
X142866Y192001D01*
X142794Y192009D01*
X142763Y192017D01*
X142740Y192015D01*
X142699Y192019D01*
X131601Y192019D01*
X131530Y192008D01*
X131459Y192006D01*
X131410Y191988D01*
X131358Y191980D01*
X131295Y191946D01*
X131228Y191921D01*
X131187Y191889D01*
X131141Y191864D01*
X131092Y191812D01*
X131036Y191768D01*
X131007Y191724D01*
X130972Y191686D01*
X130941Y191621D01*
X130903Y191561D01*
X130890Y191510D01*
X130868Y191463D01*
X130860Y191392D01*
X130843Y191322D01*
X130847Y191270D01*
X130841Y191219D01*
X130856Y191148D01*
X130862Y191077D01*
X130882Y191029D01*
X130893Y190978D01*
X130930Y190917D01*
X130958Y190851D01*
X131003Y190795D01*
X131019Y190767D01*
X131037Y190752D01*
X131063Y190720D01*
X132203Y189580D01*
X133595Y186219D01*
X133595Y167341D01*
X132203Y163980D01*
X129630Y161407D01*
X126269Y160015D01*
X124657Y160015D01*
X124587Y160004D01*
X124515Y160002D01*
X124466Y159984D01*
X124414Y159976D01*
X124351Y159942D01*
X124284Y159917D01*
X124243Y159885D01*
X124197Y159860D01*
X124148Y159809D01*
X124092Y159764D01*
X124064Y159720D01*
X124028Y159682D01*
X123998Y159617D01*
X123959Y159557D01*
X123946Y159506D01*
X123924Y159459D01*
X123916Y159388D01*
X123899Y159318D01*
X123903Y159266D01*
X123897Y159215D01*
X123912Y159144D01*
X123918Y159073D01*
X123938Y159025D01*
X123949Y158974D01*
X123986Y158913D01*
X124014Y158847D01*
X124059Y158791D01*
X124075Y158763D01*
X124093Y158748D01*
X124119Y158716D01*
X124544Y158290D01*
X124544Y122623D01*
X94026Y92104D01*
X93969Y92025D01*
X93907Y91950D01*
X93898Y91925D01*
X93882Y91904D01*
X93854Y91811D01*
X93819Y91720D01*
X93818Y91694D01*
X93810Y91669D01*
X93812Y91572D01*
X93808Y91475D01*
X93816Y91449D01*
X93816Y91423D01*
X93850Y91332D01*
X93877Y91238D01*
X93892Y91217D01*
X93901Y91192D01*
X93962Y91116D01*
X94017Y91036D01*
X94038Y91021D01*
X94054Y91000D01*
X94137Y90947D01*
X94215Y90889D01*
X94239Y90881D01*
X94261Y90867D01*
X94356Y90843D01*
X94448Y90813D01*
X94475Y90814D01*
X94500Y90807D01*
X94597Y90815D01*
X94694Y90816D01*
X94726Y90825D01*
X94745Y90826D01*
X94775Y90839D01*
X94855Y90862D01*
X97053Y91773D01*
X100287Y91773D01*
X103275Y90535D01*
X105561Y88249D01*
X105826Y87610D01*
X105850Y87571D01*
X105866Y87528D01*
X105914Y87467D01*
X105955Y87401D01*
X105991Y87372D01*
X106019Y87336D01*
X106085Y87294D01*
X106145Y87244D01*
X106188Y87228D01*
X106226Y87203D01*
X106302Y87184D01*
X106374Y87156D01*
X106420Y87154D01*
X106465Y87143D01*
X106542Y87149D01*
X106620Y87146D01*
X106664Y87159D01*
X106710Y87162D01*
X106781Y87193D01*
X106856Y87214D01*
X106894Y87241D01*
X106936Y87258D01*
X107043Y87344D01*
X107058Y87355D01*
X107061Y87359D01*
X107067Y87363D01*
X115420Y95716D01*
X118001Y98297D01*
X206339Y98297D01*
X216486Y88150D01*
X217273Y87363D01*
X217310Y87337D01*
X217341Y87303D01*
X217409Y87265D01*
X217473Y87220D01*
X217516Y87206D01*
X217557Y87184D01*
X217633Y87170D01*
X217708Y87147D01*
X217754Y87149D01*
X217799Y87140D01*
X217876Y87152D01*
X217954Y87154D01*
X217997Y87170D01*
X218042Y87176D01*
X218111Y87211D01*
X218185Y87238D01*
X218220Y87267D01*
X218261Y87288D01*
X218316Y87343D01*
X218377Y87392D01*
X218401Y87431D01*
X218434Y87463D01*
X218499Y87583D01*
X218510Y87599D01*
X218511Y87604D01*
X218514Y87610D01*
X218779Y88249D01*
X221065Y90535D01*
X224053Y91773D01*
X227287Y91773D01*
X230275Y90535D01*
X232561Y88249D01*
X233799Y85261D01*
X233799Y68819D01*
X232561Y65831D01*
X231862Y65132D01*
X231820Y65074D01*
X231771Y65022D01*
X231749Y64975D01*
X231718Y64933D01*
X231697Y64864D01*
X231667Y64799D01*
X231661Y64747D01*
X231646Y64697D01*
X231648Y64626D01*
X231640Y64555D01*
X231651Y64504D01*
X231652Y64452D01*
X231677Y64384D01*
X231692Y64314D01*
X231719Y64269D01*
X231737Y64221D01*
X231782Y64165D01*
X231819Y64103D01*
X231858Y64069D01*
X231891Y64029D01*
X231951Y63990D01*
X232005Y63943D01*
X232054Y63924D01*
X232098Y63896D01*
X232167Y63878D01*
X232234Y63851D01*
X232305Y63843D01*
X232336Y63835D01*
X232359Y63837D01*
X232400Y63833D01*
X244340Y63833D01*
X244410Y63844D01*
X244482Y63846D01*
X244531Y63864D01*
X244582Y63872D01*
X244646Y63906D01*
X244713Y63931D01*
X244754Y63963D01*
X244800Y63988D01*
X244849Y64040D01*
X244905Y64084D01*
X244933Y64128D01*
X244969Y64166D01*
X244999Y64231D01*
X245038Y64291D01*
X245051Y64342D01*
X245073Y64389D01*
X245081Y64460D01*
X245098Y64530D01*
X245094Y64582D01*
X245100Y64633D01*
X245085Y64704D01*
X245079Y64775D01*
X245059Y64823D01*
X245048Y64874D01*
X245011Y64935D01*
X244983Y65001D01*
X244938Y65057D01*
X244921Y65085D01*
X244904Y65100D01*
X244878Y65132D01*
X244179Y65831D01*
X242941Y68819D01*
X242941Y85261D01*
X244179Y88249D01*
X246465Y90535D01*
X249453Y91773D01*
X252687Y91773D01*
X255675Y90535D01*
X257961Y88249D01*
X259199Y85261D01*
X259199Y68819D01*
X257961Y65831D01*
X257262Y65132D01*
X257220Y65074D01*
X257171Y65022D01*
X257149Y64975D01*
X257118Y64933D01*
X257097Y64864D01*
X257067Y64799D01*
X257061Y64747D01*
X257046Y64697D01*
X257048Y64626D01*
X257040Y64555D01*
X257051Y64504D01*
X257052Y64452D01*
X257077Y64384D01*
X257092Y64314D01*
X257119Y64269D01*
X257137Y64221D01*
X257182Y64165D01*
X257219Y64103D01*
X257258Y64069D01*
X257291Y64029D01*
X257351Y63990D01*
X257405Y63943D01*
X257454Y63924D01*
X257498Y63896D01*
X257567Y63878D01*
X257634Y63851D01*
X257705Y63843D01*
X257736Y63835D01*
X257759Y63837D01*
X257800Y63833D01*
X269740Y63833D01*
X269810Y63844D01*
X269882Y63846D01*
X269931Y63864D01*
X269982Y63872D01*
X270046Y63906D01*
X270113Y63931D01*
X270154Y63963D01*
X270200Y63988D01*
X270249Y64040D01*
X270305Y64084D01*
X270333Y64128D01*
X270369Y64166D01*
X270399Y64231D01*
X270438Y64291D01*
X270451Y64342D01*
X270473Y64389D01*
X270481Y64460D01*
X270498Y64530D01*
X270494Y64582D01*
X270500Y64633D01*
X270485Y64704D01*
X270479Y64775D01*
X270459Y64823D01*
X270448Y64874D01*
X270411Y64935D01*
X270383Y65001D01*
X270338Y65057D01*
X270321Y65085D01*
X270304Y65100D01*
X270278Y65132D01*
X269579Y65831D01*
X268341Y68819D01*
X268341Y85261D01*
X269579Y88249D01*
X271865Y90535D01*
X274853Y91773D01*
X278087Y91773D01*
X281075Y90535D01*
X283361Y88249D01*
X284599Y85261D01*
X284599Y68819D01*
X283361Y65831D01*
X282662Y65132D01*
X282620Y65074D01*
X282571Y65022D01*
X282549Y64975D01*
X282518Y64933D01*
X282497Y64864D01*
X282467Y64799D01*
X282461Y64747D01*
X282446Y64697D01*
X282448Y64626D01*
X282440Y64555D01*
X282451Y64504D01*
X282452Y64452D01*
X282477Y64384D01*
X282492Y64314D01*
X282519Y64269D01*
X282537Y64221D01*
X282582Y64165D01*
X282619Y64103D01*
X282658Y64069D01*
X282691Y64029D01*
X282751Y63990D01*
X282805Y63943D01*
X282854Y63924D01*
X282898Y63896D01*
X282967Y63878D01*
X283034Y63851D01*
X283105Y63843D01*
X283136Y63835D01*
X283159Y63837D01*
X283200Y63833D01*
X295140Y63833D01*
X295210Y63844D01*
X295282Y63846D01*
X295331Y63864D01*
X295382Y63872D01*
X295446Y63906D01*
X295513Y63931D01*
X295554Y63963D01*
X295600Y63988D01*
X295649Y64040D01*
X295705Y64084D01*
X295733Y64128D01*
X295769Y64166D01*
X295799Y64231D01*
X295838Y64291D01*
X295851Y64342D01*
X295873Y64389D01*
X295881Y64460D01*
X295898Y64530D01*
X295894Y64582D01*
X295900Y64633D01*
X295885Y64704D01*
X295879Y64775D01*
X295859Y64823D01*
X295848Y64874D01*
X295811Y64935D01*
X295783Y65001D01*
X295738Y65057D01*
X295721Y65085D01*
X295704Y65100D01*
X295678Y65132D01*
X294979Y65831D01*
X293741Y68819D01*
X293741Y85261D01*
X294979Y88249D01*
X297265Y90535D01*
X300253Y91773D01*
X303487Y91773D01*
X306475Y90535D01*
X308761Y88249D01*
X309999Y85261D01*
X309999Y68819D01*
X308761Y65831D01*
X308062Y65132D01*
X308020Y65074D01*
X307971Y65022D01*
X307949Y64975D01*
X307918Y64933D01*
X307897Y64864D01*
X307867Y64799D01*
X307861Y64747D01*
X307846Y64697D01*
X307848Y64626D01*
X307840Y64555D01*
X307851Y64504D01*
X307852Y64452D01*
X307877Y64384D01*
X307892Y64314D01*
X307919Y64269D01*
X307937Y64221D01*
X307982Y64165D01*
X308019Y64103D01*
X308058Y64069D01*
X308091Y64029D01*
X308151Y63990D01*
X308205Y63943D01*
X308254Y63924D01*
X308298Y63896D01*
X308367Y63878D01*
X308434Y63851D01*
X308505Y63843D01*
X308536Y63835D01*
X308559Y63837D01*
X308600Y63833D01*
X320540Y63833D01*
X320610Y63844D01*
X320682Y63846D01*
X320731Y63864D01*
X320782Y63872D01*
X320846Y63906D01*
X320913Y63931D01*
X320954Y63963D01*
X321000Y63988D01*
X321049Y64040D01*
X321105Y64084D01*
X321133Y64128D01*
X321169Y64166D01*
X321199Y64231D01*
X321238Y64291D01*
X321251Y64342D01*
X321273Y64389D01*
X321281Y64460D01*
X321298Y64530D01*
X321294Y64582D01*
X321300Y64633D01*
X321285Y64704D01*
X321279Y64775D01*
X321259Y64823D01*
X321248Y64874D01*
X321211Y64935D01*
X321183Y65001D01*
X321138Y65057D01*
X321121Y65085D01*
X321104Y65100D01*
X321078Y65132D01*
X320379Y65831D01*
X319141Y68819D01*
X319141Y85261D01*
X320379Y88249D01*
X322665Y90535D01*
X325653Y91773D01*
X328887Y91773D01*
X331875Y90535D01*
X334161Y88249D01*
X335399Y85261D01*
X335399Y68819D01*
X334161Y65831D01*
X333462Y65132D01*
X333420Y65074D01*
X333371Y65022D01*
X333349Y64975D01*
X333318Y64933D01*
X333297Y64864D01*
X333267Y64799D01*
X333261Y64747D01*
X333246Y64697D01*
X333248Y64626D01*
X333240Y64555D01*
X333251Y64504D01*
X333252Y64452D01*
X333277Y64384D01*
X333292Y64314D01*
X333319Y64269D01*
X333337Y64221D01*
X333382Y64165D01*
X333419Y64103D01*
X333458Y64069D01*
X333491Y64029D01*
X333551Y63990D01*
X333605Y63943D01*
X333654Y63924D01*
X333698Y63896D01*
X333767Y63878D01*
X333834Y63851D01*
X333905Y63843D01*
X333936Y63835D01*
X333959Y63837D01*
X334000Y63833D01*
X345940Y63833D01*
X346010Y63844D01*
X346082Y63846D01*
X346131Y63864D01*
X346182Y63872D01*
X346246Y63906D01*
X346313Y63931D01*
X346354Y63963D01*
X346400Y63988D01*
X346449Y64040D01*
X346505Y64084D01*
X346533Y64128D01*
X346569Y64166D01*
X346599Y64231D01*
X346638Y64291D01*
X346651Y64342D01*
X346673Y64389D01*
X346681Y64460D01*
X346698Y64530D01*
X346694Y64582D01*
X346700Y64633D01*
X346685Y64704D01*
X346679Y64775D01*
X346659Y64823D01*
X346648Y64874D01*
X346611Y64935D01*
X346583Y65001D01*
X346538Y65057D01*
X346521Y65085D01*
X346504Y65100D01*
X346478Y65132D01*
X345779Y65831D01*
X344541Y68819D01*
X344541Y85261D01*
X345779Y88249D01*
X348065Y90535D01*
X351053Y91773D01*
X354287Y91773D01*
X357275Y90535D01*
X359561Y88249D01*
X360799Y85261D01*
X360799Y68819D01*
X359561Y65831D01*
X358862Y65132D01*
X358820Y65074D01*
X358771Y65022D01*
X358749Y64975D01*
X358718Y64933D01*
X358697Y64864D01*
X358667Y64799D01*
X358661Y64747D01*
X358646Y64697D01*
X358648Y64626D01*
X358640Y64555D01*
X358651Y64504D01*
X358652Y64452D01*
X358677Y64384D01*
X358692Y64314D01*
X358719Y64269D01*
X358737Y64221D01*
X358782Y64165D01*
X358819Y64103D01*
X358858Y64069D01*
X358891Y64029D01*
X358951Y63990D01*
X359005Y63943D01*
X359054Y63924D01*
X359098Y63896D01*
X359167Y63878D01*
X359234Y63851D01*
X359305Y63843D01*
X359336Y63835D01*
X359359Y63837D01*
X359400Y63833D01*
X371340Y63833D01*
X371410Y63844D01*
X371482Y63846D01*
X371531Y63864D01*
X371582Y63872D01*
X371646Y63906D01*
X371713Y63931D01*
X371754Y63963D01*
X371800Y63988D01*
X371849Y64040D01*
X371905Y64084D01*
X371933Y64128D01*
X371969Y64166D01*
X371999Y64231D01*
X372038Y64291D01*
X372051Y64342D01*
X372073Y64389D01*
X372081Y64460D01*
X372098Y64530D01*
X372094Y64582D01*
X372100Y64633D01*
X372085Y64704D01*
X372079Y64775D01*
X372059Y64823D01*
X372048Y64874D01*
X372011Y64935D01*
X371983Y65001D01*
X371938Y65057D01*
X371921Y65085D01*
X371904Y65100D01*
X371878Y65132D01*
X371179Y65831D01*
X369941Y68819D01*
X369941Y85261D01*
X371179Y88249D01*
X373465Y90535D01*
X376453Y91773D01*
X379687Y91773D01*
X382675Y90535D01*
X384961Y88249D01*
X386199Y85261D01*
X386199Y68819D01*
X384961Y65831D01*
X384262Y65132D01*
X384220Y65074D01*
X384171Y65022D01*
X384149Y64975D01*
X384118Y64933D01*
X384097Y64864D01*
X384067Y64799D01*
X384061Y64747D01*
X384046Y64697D01*
X384048Y64626D01*
X384040Y64555D01*
X384051Y64504D01*
X384052Y64452D01*
X384077Y64384D01*
X384092Y64314D01*
X384119Y64269D01*
X384137Y64221D01*
X384182Y64165D01*
X384219Y64103D01*
X384258Y64069D01*
X384291Y64029D01*
X384351Y63990D01*
X384405Y63943D01*
X384454Y63924D01*
X384498Y63896D01*
X384567Y63878D01*
X384634Y63851D01*
X384705Y63843D01*
X384736Y63835D01*
X384759Y63837D01*
X384800Y63833D01*
X396740Y63833D01*
X396810Y63844D01*
X396882Y63846D01*
X396931Y63864D01*
X396982Y63872D01*
X397046Y63906D01*
X397113Y63931D01*
X397154Y63963D01*
X397200Y63988D01*
X397249Y64040D01*
X397305Y64084D01*
X397333Y64128D01*
X397369Y64166D01*
X397399Y64231D01*
X397438Y64291D01*
X397451Y64342D01*
X397473Y64389D01*
X397481Y64460D01*
X397498Y64530D01*
X397494Y64582D01*
X397500Y64633D01*
X397485Y64704D01*
X397479Y64775D01*
X397459Y64823D01*
X397448Y64874D01*
X397411Y64935D01*
X397383Y65001D01*
X397338Y65057D01*
X397321Y65085D01*
X397304Y65100D01*
X397278Y65132D01*
X396579Y65831D01*
X395341Y68819D01*
X395341Y85261D01*
X396579Y88249D01*
X398865Y90535D01*
X401853Y91773D01*
X405087Y91773D01*
X408075Y90535D01*
X410361Y88249D01*
X411599Y85261D01*
X411599Y68819D01*
X410361Y65831D01*
X409662Y65132D01*
X409620Y65074D01*
X409571Y65022D01*
X409549Y64975D01*
X409518Y64933D01*
X409497Y64864D01*
X409467Y64799D01*
X409461Y64747D01*
X409446Y64697D01*
X409448Y64626D01*
X409440Y64555D01*
X409451Y64504D01*
X409452Y64452D01*
X409477Y64384D01*
X409492Y64314D01*
X409519Y64269D01*
X409537Y64221D01*
X409582Y64165D01*
X409619Y64103D01*
X409658Y64069D01*
X409691Y64029D01*
X409751Y63990D01*
X409805Y63943D01*
X409854Y63924D01*
X409898Y63896D01*
X409967Y63878D01*
X410034Y63851D01*
X410105Y63843D01*
X410136Y63835D01*
X410159Y63837D01*
X410200Y63833D01*
X420860Y63833D01*
X420977Y63852D01*
X421097Y63871D01*
X421099Y63872D01*
X421102Y63872D01*
X421207Y63928D01*
X421315Y63984D01*
X421317Y63986D01*
X421320Y63988D01*
X421402Y64074D01*
X421486Y64161D01*
X421487Y64164D01*
X421489Y64166D01*
X421539Y64274D01*
X421591Y64383D01*
X421592Y64386D01*
X421593Y64389D01*
X421606Y64507D01*
X421620Y64627D01*
X421620Y64630D01*
X421620Y64633D01*
X421595Y64750D01*
X421570Y64868D01*
X421568Y64871D01*
X421568Y64874D01*
X421562Y64883D01*
X421493Y65017D01*
X420766Y66104D01*
X420077Y67769D01*
X419725Y69535D01*
X419725Y75517D01*
X428108Y75517D01*
X428128Y75520D01*
X428147Y75518D01*
X428249Y75540D01*
X428351Y75557D01*
X428368Y75566D01*
X428388Y75570D01*
X428477Y75623D01*
X428568Y75672D01*
X428582Y75686D01*
X428599Y75696D01*
X428666Y75775D01*
X428737Y75850D01*
X428746Y75868D01*
X428759Y75883D01*
X428797Y75979D01*
X428841Y76073D01*
X428843Y76093D01*
X428851Y76111D01*
X428869Y76278D01*
X428869Y77041D01*
X428871Y77041D01*
X428871Y76278D01*
X428874Y76258D01*
X428872Y76239D01*
X428894Y76137D01*
X428911Y76035D01*
X428920Y76018D01*
X428924Y75998D01*
X428977Y75909D01*
X429026Y75818D01*
X429040Y75804D01*
X429050Y75787D01*
X429129Y75720D01*
X429204Y75649D01*
X429222Y75640D01*
X429237Y75627D01*
X429333Y75588D01*
X429427Y75545D01*
X429447Y75543D01*
X429465Y75535D01*
X429632Y75517D01*
X438019Y75517D01*
X438026Y75474D01*
X438028Y75402D01*
X438046Y75353D01*
X438054Y75302D01*
X438088Y75238D01*
X438113Y75171D01*
X438145Y75130D01*
X438170Y75084D01*
X438222Y75035D01*
X438266Y74979D01*
X438310Y74951D01*
X438348Y74915D01*
X438413Y74885D01*
X438473Y74846D01*
X438524Y74833D01*
X438571Y74811D01*
X438642Y74803D01*
X438712Y74786D01*
X438764Y74790D01*
X438815Y74784D01*
X438886Y74799D01*
X438957Y74805D01*
X439005Y74825D01*
X439056Y74836D01*
X439117Y74873D01*
X439183Y74901D01*
X439239Y74946D01*
X439267Y74963D01*
X439282Y74980D01*
X439314Y75006D01*
X444470Y80162D01*
X444523Y80236D01*
X444583Y80306D01*
X444595Y80336D01*
X444614Y80362D01*
X444641Y80449D01*
X444675Y80534D01*
X444679Y80575D01*
X444686Y80597D01*
X444685Y80629D01*
X444693Y80700D01*
X444693Y82198D01*
X447802Y85307D01*
X452198Y85307D01*
X455307Y82198D01*
X455307Y77802D01*
X452198Y74693D01*
X450700Y74693D01*
X450610Y74679D01*
X450519Y74671D01*
X450490Y74659D01*
X450458Y74654D01*
X450377Y74611D01*
X450293Y74575D01*
X450261Y74549D01*
X450240Y74538D01*
X450218Y74515D01*
X450162Y74470D01*
X443746Y68054D01*
X443693Y67980D01*
X443633Y67910D01*
X443621Y67880D01*
X443602Y67854D01*
X443575Y67767D01*
X443541Y67682D01*
X443537Y67641D01*
X443530Y67619D01*
X443531Y67587D01*
X443523Y67516D01*
X443523Y64367D01*
X440942Y61786D01*
X437520Y58364D01*
X434939Y55783D01*
X219601Y55783D01*
X217020Y58364D01*
X213598Y61786D01*
X211017Y64367D01*
X211017Y81920D01*
X211003Y82010D01*
X210995Y82101D01*
X210983Y82131D01*
X210978Y82163D01*
X210935Y82243D01*
X210899Y82327D01*
X210873Y82359D01*
X210862Y82380D01*
X210839Y82402D01*
X210794Y82458D01*
X209698Y83554D01*
X209640Y83596D01*
X209588Y83645D01*
X209541Y83667D01*
X209499Y83698D01*
X209430Y83719D01*
X209365Y83749D01*
X209313Y83755D01*
X209263Y83770D01*
X209192Y83768D01*
X209121Y83776D01*
X209070Y83765D01*
X209018Y83764D01*
X208950Y83739D01*
X208880Y83724D01*
X208835Y83697D01*
X208787Y83679D01*
X208731Y83634D01*
X208669Y83598D01*
X208635Y83558D01*
X208595Y83526D01*
X208556Y83465D01*
X208509Y83411D01*
X208490Y83362D01*
X208462Y83319D01*
X208444Y83249D01*
X208417Y83183D01*
X208409Y83111D01*
X208401Y83080D01*
X208403Y83057D01*
X208399Y83016D01*
X208399Y68819D01*
X207161Y65831D01*
X204875Y63545D01*
X201887Y62307D01*
X198653Y62307D01*
X195665Y63545D01*
X193379Y65831D01*
X192141Y68819D01*
X192141Y85261D01*
X193379Y88249D01*
X194078Y88948D01*
X194120Y89006D01*
X194169Y89058D01*
X194191Y89105D01*
X194222Y89147D01*
X194243Y89216D01*
X194273Y89281D01*
X194279Y89333D01*
X194294Y89383D01*
X194292Y89454D01*
X194300Y89525D01*
X194289Y89576D01*
X194288Y89628D01*
X194263Y89696D01*
X194248Y89766D01*
X194221Y89811D01*
X194203Y89859D01*
X194158Y89915D01*
X194121Y89977D01*
X194082Y90011D01*
X194049Y90051D01*
X193989Y90090D01*
X193935Y90137D01*
X193886Y90156D01*
X193842Y90184D01*
X193773Y90202D01*
X193706Y90229D01*
X193635Y90237D01*
X193604Y90245D01*
X193581Y90243D01*
X193540Y90247D01*
X181600Y90247D01*
X181530Y90236D01*
X181458Y90234D01*
X181409Y90216D01*
X181358Y90208D01*
X181294Y90174D01*
X181227Y90149D01*
X181186Y90117D01*
X181140Y90092D01*
X181091Y90040D01*
X181035Y89996D01*
X181007Y89952D01*
X180971Y89914D01*
X180941Y89849D01*
X180902Y89789D01*
X180889Y89738D01*
X180867Y89691D01*
X180859Y89620D01*
X180842Y89550D01*
X180846Y89498D01*
X180840Y89447D01*
X180855Y89376D01*
X180861Y89305D01*
X180881Y89257D01*
X180892Y89206D01*
X180929Y89145D01*
X180957Y89079D01*
X181002Y89023D01*
X181019Y88995D01*
X181036Y88980D01*
X181062Y88948D01*
X181761Y88249D01*
X182999Y85261D01*
X182999Y68819D01*
X181761Y65831D01*
X179475Y63545D01*
X176487Y62307D01*
X173253Y62307D01*
X170265Y63545D01*
X167979Y65831D01*
X166741Y68819D01*
X166741Y85261D01*
X167979Y88249D01*
X168678Y88948D01*
X168720Y89006D01*
X168769Y89058D01*
X168791Y89105D01*
X168822Y89147D01*
X168843Y89216D01*
X168873Y89281D01*
X168879Y89333D01*
X168894Y89383D01*
X168892Y89454D01*
X168900Y89525D01*
X168889Y89576D01*
X168888Y89628D01*
X168863Y89696D01*
X168848Y89766D01*
X168821Y89811D01*
X168803Y89859D01*
X168758Y89915D01*
X168721Y89977D01*
X168682Y90011D01*
X168649Y90051D01*
X168589Y90090D01*
X168535Y90137D01*
X168486Y90156D01*
X168442Y90184D01*
X168373Y90202D01*
X168306Y90229D01*
X168235Y90237D01*
X168204Y90245D01*
X168181Y90243D01*
X168140Y90247D01*
X156200Y90247D01*
X156130Y90236D01*
X156058Y90234D01*
X156009Y90216D01*
X155958Y90208D01*
X155894Y90174D01*
X155827Y90149D01*
X155786Y90117D01*
X155740Y90092D01*
X155691Y90040D01*
X155635Y89996D01*
X155607Y89952D01*
X155571Y89914D01*
X155541Y89849D01*
X155502Y89789D01*
X155489Y89738D01*
X155467Y89691D01*
X155459Y89620D01*
X155442Y89550D01*
X155446Y89498D01*
X155440Y89447D01*
X155455Y89376D01*
X155461Y89305D01*
X155481Y89257D01*
X155492Y89206D01*
X155529Y89145D01*
X155557Y89079D01*
X155602Y89023D01*
X155619Y88995D01*
X155636Y88980D01*
X155662Y88948D01*
X156361Y88249D01*
X157599Y85261D01*
X157599Y68819D01*
X156361Y65831D01*
X154075Y63545D01*
X151087Y62307D01*
X147853Y62307D01*
X144865Y63545D01*
X142579Y65831D01*
X141341Y68819D01*
X141341Y85261D01*
X142579Y88249D01*
X143278Y88948D01*
X143320Y89006D01*
X143369Y89058D01*
X143391Y89105D01*
X143422Y89147D01*
X143443Y89216D01*
X143473Y89281D01*
X143479Y89333D01*
X143494Y89383D01*
X143492Y89454D01*
X143500Y89525D01*
X143489Y89576D01*
X143488Y89628D01*
X143463Y89696D01*
X143448Y89766D01*
X143421Y89811D01*
X143403Y89859D01*
X143358Y89915D01*
X143321Y89977D01*
X143282Y90011D01*
X143249Y90051D01*
X143189Y90090D01*
X143135Y90137D01*
X143086Y90156D01*
X143042Y90184D01*
X142973Y90202D01*
X142906Y90229D01*
X142835Y90237D01*
X142804Y90245D01*
X142781Y90243D01*
X142740Y90247D01*
X130800Y90247D01*
X130730Y90236D01*
X130658Y90234D01*
X130609Y90216D01*
X130558Y90208D01*
X130494Y90174D01*
X130427Y90149D01*
X130386Y90117D01*
X130340Y90092D01*
X130291Y90040D01*
X130235Y89996D01*
X130207Y89952D01*
X130171Y89914D01*
X130141Y89849D01*
X130102Y89789D01*
X130089Y89738D01*
X130067Y89691D01*
X130059Y89620D01*
X130042Y89550D01*
X130046Y89498D01*
X130040Y89447D01*
X130055Y89376D01*
X130061Y89305D01*
X130081Y89257D01*
X130092Y89206D01*
X130129Y89145D01*
X130157Y89079D01*
X130202Y89023D01*
X130219Y88995D01*
X130236Y88980D01*
X130262Y88948D01*
X130961Y88249D01*
X132199Y85261D01*
X132199Y68819D01*
X130961Y65831D01*
X128675Y63545D01*
X125687Y62307D01*
X122453Y62307D01*
X119465Y63545D01*
X117179Y65831D01*
X115941Y68819D01*
X115941Y83016D01*
X115930Y83087D01*
X115928Y83158D01*
X115910Y83207D01*
X115902Y83259D01*
X115868Y83322D01*
X115843Y83389D01*
X115811Y83430D01*
X115786Y83476D01*
X115734Y83525D01*
X115690Y83581D01*
X115646Y83610D01*
X115608Y83645D01*
X115543Y83676D01*
X115483Y83714D01*
X115432Y83727D01*
X115385Y83749D01*
X115314Y83757D01*
X115244Y83774D01*
X115192Y83770D01*
X115141Y83776D01*
X115070Y83761D01*
X114999Y83755D01*
X114951Y83735D01*
X114900Y83724D01*
X114839Y83687D01*
X114773Y83659D01*
X114717Y83614D01*
X114689Y83598D01*
X114674Y83580D01*
X114642Y83554D01*
X107022Y75934D01*
X106969Y75860D01*
X106909Y75791D01*
X106897Y75761D01*
X106878Y75734D01*
X106851Y75647D01*
X106817Y75563D01*
X106813Y75522D01*
X106806Y75499D01*
X106807Y75467D01*
X106799Y75396D01*
X106799Y68819D01*
X105561Y65831D01*
X103275Y63545D01*
X100287Y62307D01*
X97053Y62307D01*
X94065Y63545D01*
X91779Y65831D01*
X90541Y68819D01*
X90541Y85261D01*
X91452Y87459D01*
X91474Y87553D01*
X91502Y87646D01*
X91502Y87673D01*
X91508Y87698D01*
X91499Y87795D01*
X91496Y87892D01*
X91487Y87917D01*
X91485Y87943D01*
X91445Y88032D01*
X91412Y88123D01*
X91395Y88144D01*
X91385Y88168D01*
X91319Y88239D01*
X91258Y88315D01*
X91236Y88329D01*
X91218Y88349D01*
X91133Y88396D01*
X91051Y88448D01*
X91026Y88455D01*
X91003Y88467D01*
X90907Y88485D01*
X90813Y88508D01*
X90786Y88506D01*
X90761Y88511D01*
X90664Y88497D01*
X90567Y88489D01*
X90543Y88479D01*
X90517Y88475D01*
X90430Y88431D01*
X90341Y88393D01*
X90316Y88373D01*
X90298Y88364D01*
X90275Y88340D01*
X90210Y88288D01*
X81622Y79700D01*
X81569Y79626D01*
X81509Y79556D01*
X81497Y79526D01*
X81478Y79500D01*
X81451Y79413D01*
X81417Y79328D01*
X81413Y79287D01*
X81406Y79265D01*
X81407Y79233D01*
X81399Y79162D01*
X81399Y68819D01*
X80268Y66089D01*
X80241Y65975D01*
X80213Y65862D01*
X80213Y65855D01*
X80212Y65849D01*
X80223Y65733D01*
X80232Y65616D01*
X80234Y65611D01*
X80235Y65604D01*
X80283Y65497D01*
X80328Y65390D01*
X80333Y65384D01*
X80335Y65380D01*
X80347Y65366D01*
X80433Y65259D01*
X91444Y54248D01*
X91518Y54195D01*
X91588Y54135D01*
X91618Y54123D01*
X91644Y54104D01*
X91731Y54077D01*
X91816Y54043D01*
X91857Y54039D01*
X91879Y54032D01*
X91911Y54033D01*
X91982Y54025D01*
X498218Y54025D01*
X498308Y54039D01*
G37*
%LPC*%
G36*
X135783Y560767D02*
X135783Y560767D01*
X132795Y562005D01*
X130509Y564291D01*
X129271Y567279D01*
X129271Y583721D01*
X130509Y586709D01*
X132795Y588995D01*
X135783Y590233D01*
X138338Y590233D01*
X138408Y590244D01*
X138480Y590246D01*
X138529Y590264D01*
X138580Y590272D01*
X138644Y590306D01*
X138711Y590331D01*
X138752Y590363D01*
X138798Y590388D01*
X138847Y590440D01*
X138903Y590484D01*
X138931Y590528D01*
X138967Y590566D01*
X138997Y590631D01*
X139036Y590691D01*
X139049Y590742D01*
X139071Y590789D01*
X139079Y590860D01*
X139096Y590930D01*
X139092Y590982D01*
X139098Y591033D01*
X139083Y591104D01*
X139077Y591175D01*
X139057Y591223D01*
X139046Y591274D01*
X139009Y591335D01*
X138981Y591401D01*
X138936Y591457D01*
X138919Y591485D01*
X138902Y591500D01*
X138876Y591532D01*
X117342Y613066D01*
X117326Y613078D01*
X117314Y613093D01*
X117226Y613149D01*
X117142Y613209D01*
X117123Y613215D01*
X117107Y613226D01*
X117006Y613251D01*
X116907Y613282D01*
X116887Y613281D01*
X116868Y613286D01*
X116765Y613278D01*
X116662Y613275D01*
X116643Y613269D01*
X116623Y613267D01*
X116528Y613227D01*
X116431Y613191D01*
X116415Y613179D01*
X116397Y613171D01*
X116266Y613066D01*
X115205Y612005D01*
X112217Y610767D01*
X108983Y610767D01*
X105995Y612005D01*
X103709Y614291D01*
X102471Y617279D01*
X102471Y633721D01*
X103709Y636709D01*
X105995Y638995D01*
X108983Y640233D01*
X112217Y640233D01*
X115205Y638995D01*
X117491Y636709D01*
X118729Y633721D01*
X118729Y623378D01*
X118743Y623288D01*
X118751Y623197D01*
X118763Y623168D01*
X118768Y623136D01*
X118811Y623055D01*
X118847Y622971D01*
X118873Y622939D01*
X118884Y622918D01*
X118907Y622896D01*
X118952Y622840D01*
X127540Y614252D01*
X127619Y614195D01*
X127694Y614133D01*
X127718Y614124D01*
X127740Y614108D01*
X127833Y614080D01*
X127924Y614045D01*
X127950Y614044D01*
X127975Y614036D01*
X128072Y614038D01*
X128169Y614034D01*
X128195Y614042D01*
X128221Y614042D01*
X128312Y614076D01*
X128406Y614103D01*
X128427Y614118D01*
X128452Y614127D01*
X128528Y614188D01*
X128608Y614243D01*
X128623Y614264D01*
X128644Y614280D01*
X128696Y614362D01*
X128754Y614440D01*
X128763Y614465D01*
X128777Y614487D01*
X128800Y614582D01*
X128831Y614674D01*
X128830Y614701D01*
X128837Y614726D01*
X128829Y614823D01*
X128828Y614920D01*
X128819Y614952D01*
X128818Y614971D01*
X128805Y615001D01*
X128782Y615081D01*
X127871Y617279D01*
X127871Y633721D01*
X129109Y636709D01*
X131395Y638995D01*
X134383Y640233D01*
X137617Y640233D01*
X140605Y638995D01*
X142891Y636709D01*
X144129Y633721D01*
X144129Y623378D01*
X144143Y623288D01*
X144151Y623197D01*
X144163Y623168D01*
X144168Y623136D01*
X144211Y623055D01*
X144247Y622971D01*
X144273Y622939D01*
X144284Y622918D01*
X144307Y622896D01*
X144352Y622840D01*
X152940Y614252D01*
X153019Y614195D01*
X153094Y614133D01*
X153118Y614124D01*
X153140Y614108D01*
X153233Y614080D01*
X153324Y614045D01*
X153350Y614044D01*
X153375Y614036D01*
X153472Y614038D01*
X153569Y614034D01*
X153595Y614042D01*
X153621Y614042D01*
X153712Y614076D01*
X153806Y614103D01*
X153827Y614118D01*
X153852Y614127D01*
X153928Y614188D01*
X154008Y614243D01*
X154023Y614264D01*
X154044Y614280D01*
X154096Y614362D01*
X154154Y614440D01*
X154163Y614465D01*
X154177Y614487D01*
X154200Y614582D01*
X154231Y614674D01*
X154230Y614701D01*
X154237Y614726D01*
X154229Y614823D01*
X154228Y614920D01*
X154219Y614952D01*
X154218Y614971D01*
X154205Y615001D01*
X154182Y615081D01*
X153271Y617279D01*
X153271Y633721D01*
X154509Y636709D01*
X156795Y638995D01*
X159783Y640233D01*
X163017Y640233D01*
X166005Y638995D01*
X168291Y636709D01*
X169529Y633721D01*
X169529Y617279D01*
X168291Y614291D01*
X166005Y612005D01*
X163017Y610767D01*
X159783Y610767D01*
X157585Y611678D01*
X157491Y611700D01*
X157398Y611728D01*
X157371Y611728D01*
X157346Y611734D01*
X157249Y611725D01*
X157152Y611722D01*
X157127Y611713D01*
X157101Y611711D01*
X157012Y611671D01*
X156921Y611638D01*
X156900Y611621D01*
X156876Y611611D01*
X156805Y611545D01*
X156729Y611484D01*
X156715Y611462D01*
X156695Y611444D01*
X156648Y611359D01*
X156596Y611277D01*
X156589Y611252D01*
X156577Y611229D01*
X156559Y611133D01*
X156536Y611038D01*
X156538Y611012D01*
X156533Y610987D01*
X156547Y610890D01*
X156555Y610793D01*
X156565Y610769D01*
X156569Y610743D01*
X156613Y610656D01*
X156651Y610567D01*
X156671Y610542D01*
X156680Y610524D01*
X156704Y610501D01*
X156756Y610436D01*
X162406Y604786D01*
X162480Y604733D01*
X162550Y604673D01*
X162580Y604661D01*
X162606Y604642D01*
X162693Y604615D01*
X162778Y604581D01*
X162819Y604577D01*
X162841Y604570D01*
X162873Y604571D01*
X162944Y604563D01*
X196205Y604563D01*
X196295Y604577D01*
X196386Y604585D01*
X196415Y604597D01*
X196447Y604602D01*
X196528Y604645D01*
X196612Y604681D01*
X196644Y604707D01*
X196665Y604718D01*
X196687Y604741D01*
X196743Y604786D01*
X197802Y605845D01*
X202198Y605845D01*
X205307Y602736D01*
X205307Y598340D01*
X205023Y598056D01*
X204981Y597998D01*
X204932Y597946D01*
X204910Y597899D01*
X204880Y597857D01*
X204858Y597788D01*
X204828Y597723D01*
X204823Y597671D01*
X204807Y597621D01*
X204809Y597550D01*
X204801Y597479D01*
X204812Y597428D01*
X204814Y597376D01*
X204838Y597308D01*
X204853Y597238D01*
X204880Y597193D01*
X204898Y597145D01*
X204943Y597089D01*
X204980Y597027D01*
X205019Y596993D01*
X205052Y596953D01*
X205112Y596914D01*
X205167Y596867D01*
X205215Y596848D01*
X205259Y596820D01*
X205328Y596802D01*
X205395Y596775D01*
X205466Y596767D01*
X205497Y596759D01*
X205520Y596761D01*
X205561Y596757D01*
X219669Y596757D01*
X222250Y594176D01*
X230603Y585823D01*
X230640Y585797D01*
X230671Y585763D01*
X230739Y585725D01*
X230803Y585680D01*
X230846Y585666D01*
X230887Y585644D01*
X230963Y585630D01*
X231038Y585607D01*
X231084Y585609D01*
X231129Y585600D01*
X231206Y585612D01*
X231284Y585614D01*
X231327Y585630D01*
X231372Y585636D01*
X231441Y585671D01*
X231515Y585698D01*
X231550Y585727D01*
X231591Y585748D01*
X231646Y585803D01*
X231707Y585852D01*
X231731Y585891D01*
X231764Y585923D01*
X231829Y586043D01*
X231840Y586059D01*
X231841Y586064D01*
X231844Y586070D01*
X232109Y586709D01*
X234395Y588995D01*
X237383Y590233D01*
X240617Y590233D01*
X243605Y588995D01*
X245891Y586709D01*
X247129Y583721D01*
X247129Y567279D01*
X245891Y564291D01*
X243605Y562005D01*
X240617Y560767D01*
X237383Y560767D01*
X234395Y562005D01*
X232109Y564291D01*
X230871Y567279D01*
X230871Y573856D01*
X230857Y573946D01*
X230849Y574037D01*
X230837Y574067D01*
X230832Y574099D01*
X230789Y574179D01*
X230753Y574263D01*
X230727Y574295D01*
X230716Y574316D01*
X230693Y574338D01*
X230648Y574394D01*
X223028Y582014D01*
X222970Y582056D01*
X222918Y582105D01*
X222871Y582127D01*
X222829Y582158D01*
X222760Y582179D01*
X222695Y582209D01*
X222643Y582215D01*
X222593Y582230D01*
X222522Y582228D01*
X222451Y582236D01*
X222400Y582225D01*
X222348Y582224D01*
X222280Y582199D01*
X222210Y582184D01*
X222165Y582157D01*
X222117Y582139D01*
X222061Y582094D01*
X221999Y582058D01*
X221965Y582018D01*
X221925Y581986D01*
X221886Y581925D01*
X221839Y581871D01*
X221820Y581822D01*
X221792Y581779D01*
X221774Y581709D01*
X221747Y581643D01*
X221739Y581571D01*
X221731Y581540D01*
X221733Y581517D01*
X221729Y581476D01*
X221729Y567279D01*
X220491Y564291D01*
X218205Y562005D01*
X215217Y560767D01*
X211983Y560767D01*
X208995Y562005D01*
X206709Y564291D01*
X205471Y567279D01*
X205471Y583721D01*
X206709Y586709D01*
X207408Y587408D01*
X207450Y587466D01*
X207499Y587518D01*
X207521Y587565D01*
X207552Y587607D01*
X207573Y587676D01*
X207603Y587741D01*
X207609Y587793D01*
X207624Y587843D01*
X207622Y587914D01*
X207630Y587985D01*
X207619Y588036D01*
X207618Y588088D01*
X207593Y588156D01*
X207578Y588226D01*
X207551Y588271D01*
X207533Y588319D01*
X207488Y588375D01*
X207451Y588437D01*
X207412Y588471D01*
X207379Y588511D01*
X207319Y588550D01*
X207265Y588597D01*
X207216Y588616D01*
X207172Y588644D01*
X207103Y588662D01*
X207036Y588689D01*
X206965Y588697D01*
X206934Y588705D01*
X206911Y588703D01*
X206870Y588707D01*
X194930Y588707D01*
X194860Y588696D01*
X194788Y588694D01*
X194739Y588676D01*
X194688Y588668D01*
X194624Y588634D01*
X194557Y588609D01*
X194516Y588577D01*
X194470Y588552D01*
X194421Y588500D01*
X194365Y588456D01*
X194337Y588412D01*
X194301Y588374D01*
X194271Y588309D01*
X194232Y588249D01*
X194219Y588198D01*
X194197Y588151D01*
X194189Y588080D01*
X194172Y588010D01*
X194176Y587958D01*
X194170Y587907D01*
X194185Y587836D01*
X194191Y587765D01*
X194211Y587717D01*
X194222Y587666D01*
X194259Y587605D01*
X194287Y587539D01*
X194332Y587483D01*
X194349Y587455D01*
X194366Y587440D01*
X194392Y587408D01*
X195091Y586709D01*
X196329Y583721D01*
X196329Y567279D01*
X195091Y564291D01*
X192805Y562005D01*
X189817Y560767D01*
X186583Y560767D01*
X183595Y562005D01*
X181309Y564291D01*
X180071Y567279D01*
X180071Y583721D01*
X181309Y586709D01*
X182008Y587408D01*
X182050Y587466D01*
X182099Y587518D01*
X182121Y587565D01*
X182152Y587607D01*
X182173Y587676D01*
X182203Y587741D01*
X182209Y587793D01*
X182224Y587843D01*
X182222Y587914D01*
X182230Y587985D01*
X182219Y588036D01*
X182218Y588088D01*
X182193Y588156D01*
X182178Y588226D01*
X182151Y588271D01*
X182133Y588319D01*
X182088Y588375D01*
X182051Y588437D01*
X182012Y588471D01*
X181979Y588511D01*
X181919Y588550D01*
X181865Y588597D01*
X181816Y588616D01*
X181772Y588644D01*
X181703Y588662D01*
X181636Y588689D01*
X181565Y588697D01*
X181534Y588705D01*
X181511Y588703D01*
X181470Y588707D01*
X169530Y588707D01*
X169460Y588696D01*
X169388Y588694D01*
X169339Y588676D01*
X169288Y588668D01*
X169224Y588634D01*
X169157Y588609D01*
X169116Y588577D01*
X169070Y588552D01*
X169021Y588500D01*
X168965Y588456D01*
X168937Y588412D01*
X168901Y588374D01*
X168871Y588309D01*
X168832Y588249D01*
X168819Y588198D01*
X168797Y588151D01*
X168789Y588080D01*
X168772Y588010D01*
X168776Y587958D01*
X168770Y587907D01*
X168785Y587836D01*
X168791Y587765D01*
X168811Y587717D01*
X168822Y587666D01*
X168859Y587605D01*
X168887Y587539D01*
X168932Y587483D01*
X168949Y587455D01*
X168966Y587440D01*
X168992Y587408D01*
X169691Y586709D01*
X170929Y583721D01*
X170929Y567279D01*
X169691Y564291D01*
X167405Y562005D01*
X164417Y560767D01*
X161183Y560767D01*
X158195Y562005D01*
X155909Y564291D01*
X154671Y567279D01*
X154671Y583721D01*
X155909Y586709D01*
X156608Y587408D01*
X156650Y587466D01*
X156699Y587518D01*
X156721Y587565D01*
X156752Y587607D01*
X156773Y587676D01*
X156803Y587741D01*
X156809Y587793D01*
X156824Y587843D01*
X156822Y587914D01*
X156830Y587985D01*
X156819Y588036D01*
X156818Y588088D01*
X156793Y588156D01*
X156778Y588226D01*
X156751Y588271D01*
X156733Y588319D01*
X156688Y588375D01*
X156651Y588437D01*
X156612Y588471D01*
X156579Y588511D01*
X156519Y588550D01*
X156465Y588597D01*
X156416Y588616D01*
X156372Y588644D01*
X156303Y588662D01*
X156236Y588689D01*
X156165Y588697D01*
X156134Y588705D01*
X156111Y588703D01*
X156070Y588707D01*
X144130Y588707D01*
X144060Y588696D01*
X143988Y588694D01*
X143939Y588676D01*
X143888Y588668D01*
X143824Y588634D01*
X143757Y588609D01*
X143716Y588577D01*
X143670Y588552D01*
X143621Y588500D01*
X143565Y588456D01*
X143537Y588412D01*
X143501Y588374D01*
X143471Y588309D01*
X143432Y588249D01*
X143419Y588198D01*
X143397Y588151D01*
X143389Y588080D01*
X143372Y588010D01*
X143376Y587958D01*
X143370Y587907D01*
X143385Y587836D01*
X143391Y587765D01*
X143411Y587717D01*
X143422Y587666D01*
X143459Y587605D01*
X143487Y587539D01*
X143532Y587483D01*
X143549Y587455D01*
X143566Y587440D01*
X143592Y587408D01*
X144291Y586709D01*
X145529Y583721D01*
X145529Y567279D01*
X144291Y564291D01*
X142005Y562005D01*
X139017Y560767D01*
X135783Y560767D01*
G37*
%LPD*%
%LPC*%
G36*
X447802Y204693D02*
X447802Y204693D01*
X444693Y207802D01*
X444693Y212198D01*
X447802Y215307D01*
X452198Y215307D01*
X453257Y214248D01*
X453331Y214195D01*
X453401Y214135D01*
X453431Y214123D01*
X453457Y214104D01*
X453544Y214077D01*
X453629Y214043D01*
X453670Y214039D01*
X453692Y214032D01*
X453724Y214033D01*
X453795Y214025D01*
X471995Y214025D01*
X472091Y214040D01*
X472188Y214050D01*
X472212Y214060D01*
X472238Y214064D01*
X472324Y214110D01*
X472413Y214150D01*
X472432Y214167D01*
X472455Y214180D01*
X472522Y214250D01*
X472594Y214316D01*
X472607Y214339D01*
X472625Y214358D01*
X472666Y214446D01*
X472713Y214532D01*
X472717Y214557D01*
X472728Y214581D01*
X472739Y214678D01*
X472756Y214774D01*
X472752Y214800D01*
X472755Y214825D01*
X472735Y214920D01*
X472721Y215017D01*
X472709Y215040D01*
X472703Y215066D01*
X472653Y215150D01*
X472609Y215236D01*
X472590Y215254D01*
X472577Y215277D01*
X472503Y215340D01*
X472433Y215408D01*
X472405Y215424D01*
X472390Y215437D01*
X472359Y215449D01*
X472286Y215489D01*
X471645Y215755D01*
X469359Y218041D01*
X468121Y221029D01*
X468121Y237471D01*
X469359Y240459D01*
X471645Y242745D01*
X474633Y243983D01*
X477867Y243983D01*
X480855Y242745D01*
X483141Y240459D01*
X484379Y237471D01*
X484379Y221029D01*
X483141Y218041D01*
X480855Y215755D01*
X480214Y215489D01*
X480131Y215438D01*
X480045Y215392D01*
X480027Y215373D01*
X480005Y215360D01*
X479942Y215285D01*
X479875Y215214D01*
X479864Y215190D01*
X479848Y215170D01*
X479813Y215079D01*
X479772Y214991D01*
X479769Y214965D01*
X479759Y214941D01*
X479755Y214843D01*
X479745Y214747D01*
X479750Y214721D01*
X479749Y214695D01*
X479776Y214601D01*
X479797Y214506D01*
X479810Y214484D01*
X479818Y214459D01*
X479873Y214378D01*
X479923Y214295D01*
X479943Y214278D01*
X479958Y214257D01*
X480036Y214198D01*
X480110Y214135D01*
X480134Y214125D01*
X480155Y214110D01*
X480248Y214080D01*
X480338Y214043D01*
X480371Y214040D01*
X480389Y214034D01*
X480422Y214034D01*
X480505Y214025D01*
X497395Y214025D01*
X497491Y214040D01*
X497588Y214050D01*
X497612Y214060D01*
X497638Y214064D01*
X497724Y214110D01*
X497813Y214150D01*
X497832Y214167D01*
X497855Y214180D01*
X497922Y214250D01*
X497994Y214316D01*
X498007Y214339D01*
X498025Y214358D01*
X498066Y214446D01*
X498113Y214532D01*
X498117Y214557D01*
X498128Y214581D01*
X498139Y214678D01*
X498156Y214774D01*
X498152Y214800D01*
X498155Y214825D01*
X498135Y214920D01*
X498121Y215017D01*
X498109Y215040D01*
X498103Y215066D01*
X498053Y215150D01*
X498009Y215236D01*
X497990Y215254D01*
X497977Y215277D01*
X497903Y215340D01*
X497833Y215408D01*
X497805Y215424D01*
X497790Y215437D01*
X497759Y215449D01*
X497686Y215489D01*
X497045Y215755D01*
X494759Y218041D01*
X493521Y221029D01*
X493521Y237471D01*
X494759Y240459D01*
X497045Y242745D01*
X500033Y243983D01*
X503267Y243983D01*
X506255Y242745D01*
X508541Y240459D01*
X509779Y237471D01*
X509779Y221029D01*
X508541Y218041D01*
X506255Y215755D01*
X505614Y215489D01*
X505531Y215438D01*
X505445Y215392D01*
X505427Y215373D01*
X505405Y215360D01*
X505342Y215285D01*
X505275Y215214D01*
X505264Y215190D01*
X505248Y215170D01*
X505213Y215079D01*
X505172Y214991D01*
X505169Y214965D01*
X505159Y214941D01*
X505155Y214843D01*
X505145Y214747D01*
X505150Y214721D01*
X505149Y214695D01*
X505176Y214601D01*
X505197Y214506D01*
X505210Y214484D01*
X505218Y214459D01*
X505273Y214378D01*
X505323Y214295D01*
X505343Y214278D01*
X505358Y214257D01*
X505436Y214198D01*
X505510Y214135D01*
X505534Y214125D01*
X505555Y214110D01*
X505648Y214080D01*
X505738Y214043D01*
X505771Y214040D01*
X505789Y214034D01*
X505822Y214034D01*
X505905Y214025D01*
X522795Y214025D01*
X522891Y214040D01*
X522988Y214050D01*
X523012Y214060D01*
X523038Y214064D01*
X523124Y214110D01*
X523213Y214150D01*
X523232Y214167D01*
X523255Y214180D01*
X523322Y214250D01*
X523394Y214316D01*
X523407Y214339D01*
X523425Y214358D01*
X523466Y214446D01*
X523513Y214532D01*
X523517Y214557D01*
X523528Y214581D01*
X523539Y214678D01*
X523556Y214774D01*
X523552Y214800D01*
X523555Y214825D01*
X523535Y214920D01*
X523521Y215017D01*
X523509Y215040D01*
X523503Y215066D01*
X523453Y215150D01*
X523409Y215236D01*
X523390Y215254D01*
X523377Y215277D01*
X523303Y215340D01*
X523233Y215408D01*
X523205Y215424D01*
X523190Y215437D01*
X523159Y215449D01*
X523086Y215489D01*
X522445Y215755D01*
X520159Y218041D01*
X518921Y221029D01*
X518921Y237471D01*
X520159Y240459D01*
X522445Y242745D01*
X525433Y243983D01*
X528667Y243983D01*
X531655Y242745D01*
X533941Y240459D01*
X535179Y237471D01*
X535179Y221029D01*
X533941Y218041D01*
X531655Y215755D01*
X531014Y215489D01*
X530931Y215438D01*
X530845Y215392D01*
X530827Y215373D01*
X530805Y215360D01*
X530742Y215285D01*
X530675Y215214D01*
X530664Y215190D01*
X530648Y215170D01*
X530613Y215079D01*
X530572Y214991D01*
X530569Y214965D01*
X530559Y214941D01*
X530555Y214843D01*
X530545Y214747D01*
X530550Y214721D01*
X530549Y214695D01*
X530576Y214601D01*
X530597Y214506D01*
X530610Y214484D01*
X530618Y214459D01*
X530673Y214378D01*
X530723Y214295D01*
X530743Y214278D01*
X530758Y214257D01*
X530836Y214198D01*
X530910Y214135D01*
X530934Y214125D01*
X530955Y214110D01*
X531048Y214080D01*
X531138Y214043D01*
X531171Y214040D01*
X531189Y214034D01*
X531222Y214034D01*
X531305Y214025D01*
X547664Y214025D01*
X547684Y214028D01*
X547703Y214026D01*
X547805Y214048D01*
X547907Y214064D01*
X547924Y214074D01*
X547944Y214078D01*
X548033Y214131D01*
X548124Y214180D01*
X548138Y214194D01*
X548155Y214204D01*
X548222Y214283D01*
X548294Y214358D01*
X548302Y214376D01*
X548315Y214391D01*
X548353Y214487D01*
X548397Y214581D01*
X548399Y214601D01*
X548407Y214619D01*
X548425Y214786D01*
X548425Y215006D01*
X548406Y215121D01*
X548389Y215237D01*
X548387Y215243D01*
X548386Y215249D01*
X548331Y215351D01*
X548278Y215456D01*
X548273Y215461D01*
X548270Y215466D01*
X548186Y215546D01*
X548102Y215628D01*
X548096Y215632D01*
X548092Y215635D01*
X548075Y215643D01*
X547955Y215709D01*
X547845Y215755D01*
X545559Y218041D01*
X544321Y221029D01*
X544321Y237471D01*
X545559Y240459D01*
X547845Y242745D01*
X550833Y243983D01*
X554067Y243983D01*
X557055Y242745D01*
X559341Y240459D01*
X560579Y237471D01*
X560579Y221029D01*
X559341Y218041D01*
X557055Y215755D01*
X556945Y215709D01*
X556845Y215648D01*
X556745Y215588D01*
X556741Y215583D01*
X556736Y215580D01*
X556661Y215490D01*
X556585Y215401D01*
X556583Y215395D01*
X556579Y215390D01*
X556537Y215282D01*
X556493Y215173D01*
X556492Y215165D01*
X556491Y215161D01*
X556490Y215142D01*
X556475Y215006D01*
X556475Y210783D01*
X551667Y205975D01*
X453795Y205975D01*
X453705Y205961D01*
X453614Y205953D01*
X453585Y205941D01*
X453553Y205936D01*
X453472Y205893D01*
X453388Y205857D01*
X453356Y205831D01*
X453335Y205820D01*
X453313Y205797D01*
X453257Y205752D01*
X452198Y204693D01*
X447802Y204693D01*
G37*
%LPD*%
%LPC*%
G36*
X247802Y374693D02*
X247802Y374693D01*
X244693Y377802D01*
X244693Y382198D01*
X245752Y383257D01*
X245805Y383331D01*
X245865Y383401D01*
X245877Y383431D01*
X245896Y383457D01*
X245923Y383544D01*
X245957Y383629D01*
X245961Y383670D01*
X245968Y383692D01*
X245967Y383724D01*
X245975Y383795D01*
X245975Y522938D01*
X245961Y523028D01*
X245953Y523119D01*
X245941Y523149D01*
X245936Y523181D01*
X245893Y523261D01*
X245857Y523345D01*
X245831Y523377D01*
X245820Y523398D01*
X245797Y523420D01*
X245752Y523476D01*
X243174Y526054D01*
X243174Y533946D01*
X248754Y539526D01*
X256646Y539526D01*
X262226Y533946D01*
X262226Y526054D01*
X256646Y520474D01*
X254786Y520474D01*
X254766Y520471D01*
X254747Y520473D01*
X254645Y520451D01*
X254543Y520435D01*
X254526Y520425D01*
X254506Y520421D01*
X254417Y520368D01*
X254326Y520319D01*
X254312Y520305D01*
X254295Y520295D01*
X254228Y520216D01*
X254156Y520141D01*
X254148Y520123D01*
X254135Y520108D01*
X254096Y520012D01*
X254053Y519918D01*
X254051Y519898D01*
X254043Y519880D01*
X254025Y519713D01*
X254025Y383795D01*
X254039Y383705D01*
X254047Y383614D01*
X254059Y383585D01*
X254064Y383553D01*
X254107Y383472D01*
X254143Y383388D01*
X254169Y383356D01*
X254180Y383335D01*
X254203Y383313D01*
X254248Y383257D01*
X255307Y382198D01*
X255307Y377802D01*
X252198Y374693D01*
X247802Y374693D01*
G37*
%LPD*%
%LPC*%
G36*
X704251Y159855D02*
X704251Y159855D01*
X700890Y161247D01*
X698317Y163820D01*
X696925Y167181D01*
X696925Y186059D01*
X698317Y189420D01*
X700890Y191993D01*
X704251Y193385D01*
X707889Y193385D01*
X711250Y191993D01*
X713823Y189420D01*
X715215Y186059D01*
X715215Y167181D01*
X713823Y163820D01*
X711250Y161247D01*
X707889Y159855D01*
X704251Y159855D01*
G37*
%LPD*%
%LPC*%
G36*
X729651Y159855D02*
X729651Y159855D01*
X726290Y161247D01*
X723717Y163820D01*
X722325Y167181D01*
X722325Y186059D01*
X723717Y189420D01*
X726290Y191993D01*
X729651Y193385D01*
X733289Y193385D01*
X736650Y191993D01*
X739223Y189420D01*
X740615Y186059D01*
X740615Y167181D01*
X739223Y163820D01*
X736650Y161247D01*
X733289Y159855D01*
X729651Y159855D01*
G37*
%LPD*%
%LPC*%
G36*
X755051Y159855D02*
X755051Y159855D01*
X751690Y161247D01*
X749117Y163820D01*
X747725Y167181D01*
X747725Y186059D01*
X749117Y189420D01*
X751690Y191993D01*
X755051Y193385D01*
X758689Y193385D01*
X762050Y191993D01*
X764623Y189420D01*
X766015Y186059D01*
X766015Y167181D01*
X764623Y163820D01*
X762050Y161247D01*
X758689Y159855D01*
X755051Y159855D01*
G37*
%LPD*%
%LPC*%
G36*
X427431Y160015D02*
X427431Y160015D01*
X424070Y161407D01*
X421497Y163980D01*
X420105Y167341D01*
X420105Y186219D01*
X421497Y189580D01*
X424070Y192153D01*
X427431Y193545D01*
X431069Y193545D01*
X434430Y192153D01*
X437003Y189580D01*
X438395Y186219D01*
X438395Y167341D01*
X437003Y163980D01*
X434430Y161407D01*
X431069Y160015D01*
X427431Y160015D01*
G37*
%LPD*%
%LPC*%
G36*
X325831Y160015D02*
X325831Y160015D01*
X322470Y161407D01*
X319897Y163980D01*
X318505Y167341D01*
X318505Y186219D01*
X319897Y189580D01*
X322470Y192153D01*
X325831Y193545D01*
X329469Y193545D01*
X332830Y192153D01*
X335403Y189580D01*
X336795Y186219D01*
X336795Y167341D01*
X335403Y163980D01*
X332830Y161407D01*
X329469Y160015D01*
X325831Y160015D01*
G37*
%LPD*%
%LPC*%
G36*
X780451Y159855D02*
X780451Y159855D01*
X777090Y161247D01*
X774517Y163820D01*
X773125Y167181D01*
X773125Y186059D01*
X774517Y189420D01*
X777090Y191993D01*
X780451Y193385D01*
X784089Y193385D01*
X787450Y191993D01*
X790023Y189420D01*
X791415Y186059D01*
X791415Y167181D01*
X790023Y163820D01*
X787450Y161247D01*
X784089Y159855D01*
X780451Y159855D01*
G37*
%LPD*%
%LPC*%
G36*
X856651Y159855D02*
X856651Y159855D01*
X853290Y161247D01*
X850717Y163820D01*
X849325Y167181D01*
X849325Y186059D01*
X850717Y189420D01*
X853290Y191993D01*
X856651Y193385D01*
X860289Y193385D01*
X863650Y191993D01*
X866223Y189420D01*
X867615Y186059D01*
X867615Y167181D01*
X866223Y163820D01*
X863650Y161247D01*
X860289Y159855D01*
X856651Y159855D01*
G37*
%LPD*%
%LPC*%
G36*
X831251Y159855D02*
X831251Y159855D01*
X827890Y161247D01*
X825317Y163820D01*
X823925Y167181D01*
X823925Y186059D01*
X825317Y189420D01*
X827890Y191993D01*
X831251Y193385D01*
X834889Y193385D01*
X838250Y191993D01*
X840823Y189420D01*
X842215Y186059D01*
X842215Y167181D01*
X840823Y163820D01*
X838250Y161247D01*
X834889Y159855D01*
X831251Y159855D01*
G37*
%LPD*%
%LPC*%
G36*
X805851Y159855D02*
X805851Y159855D01*
X802490Y161247D01*
X799917Y163820D01*
X798525Y167181D01*
X798525Y186059D01*
X799917Y189420D01*
X802490Y191993D01*
X805851Y193385D01*
X809489Y193385D01*
X812850Y191993D01*
X815423Y189420D01*
X816815Y186059D01*
X816815Y167181D01*
X815423Y163820D01*
X812850Y161247D01*
X809489Y159855D01*
X805851Y159855D01*
G37*
%LPD*%
%LPC*%
G36*
X628051Y159855D02*
X628051Y159855D01*
X624690Y161247D01*
X622117Y163820D01*
X620725Y167181D01*
X620725Y186059D01*
X622117Y189420D01*
X624690Y191993D01*
X628051Y193385D01*
X631689Y193385D01*
X635050Y191993D01*
X637623Y189420D01*
X639015Y186059D01*
X639015Y167181D01*
X637623Y163820D01*
X635050Y161247D01*
X631689Y159855D01*
X628051Y159855D01*
G37*
%LPD*%
%LPC*%
G36*
X376631Y160015D02*
X376631Y160015D01*
X373270Y161407D01*
X370697Y163980D01*
X369305Y167341D01*
X369305Y186219D01*
X370697Y189580D01*
X373270Y192153D01*
X376631Y193545D01*
X380269Y193545D01*
X383630Y192153D01*
X386203Y189580D01*
X387595Y186219D01*
X387595Y167341D01*
X386203Y163980D01*
X383630Y161407D01*
X380269Y160015D01*
X376631Y160015D01*
G37*
%LPD*%
%LPC*%
G36*
X402031Y160015D02*
X402031Y160015D01*
X398670Y161407D01*
X396097Y163980D01*
X394705Y167341D01*
X394705Y186219D01*
X396097Y189580D01*
X398670Y192153D01*
X402031Y193545D01*
X405669Y193545D01*
X409030Y192153D01*
X411603Y189580D01*
X412995Y186219D01*
X412995Y167341D01*
X411603Y163980D01*
X409030Y161407D01*
X405669Y160015D01*
X402031Y160015D01*
G37*
%LPD*%
%LPC*%
G36*
X351231Y160015D02*
X351231Y160015D01*
X347870Y161407D01*
X345297Y163980D01*
X343905Y167341D01*
X343905Y186219D01*
X345297Y189580D01*
X347870Y192153D01*
X351231Y193545D01*
X354869Y193545D01*
X358230Y192153D01*
X360803Y189580D01*
X362195Y186219D01*
X362195Y167341D01*
X360803Y163980D01*
X358230Y161407D01*
X354869Y160015D01*
X351231Y160015D01*
G37*
%LPD*%
%LPC*%
G36*
X526451Y159855D02*
X526451Y159855D01*
X523090Y161247D01*
X520517Y163820D01*
X519125Y167181D01*
X519125Y186059D01*
X520517Y189420D01*
X523090Y191993D01*
X526451Y193385D01*
X530089Y193385D01*
X533450Y191993D01*
X536023Y189420D01*
X537415Y186059D01*
X537415Y167181D01*
X536023Y163820D01*
X533450Y161247D01*
X530089Y159855D01*
X526451Y159855D01*
G37*
%LPD*%
%LPC*%
G36*
X551851Y159855D02*
X551851Y159855D01*
X548490Y161247D01*
X545917Y163820D01*
X544525Y167181D01*
X544525Y186059D01*
X545917Y189420D01*
X548490Y191993D01*
X551851Y193385D01*
X555489Y193385D01*
X558850Y191993D01*
X561423Y189420D01*
X562815Y186059D01*
X562815Y167181D01*
X561423Y163820D01*
X558850Y161247D01*
X555489Y159855D01*
X551851Y159855D01*
G37*
%LPD*%
%LPC*%
G36*
X577251Y159855D02*
X577251Y159855D01*
X573890Y161247D01*
X571317Y163820D01*
X569925Y167181D01*
X569925Y186059D01*
X571317Y189420D01*
X573890Y191993D01*
X577251Y193385D01*
X580889Y193385D01*
X584250Y191993D01*
X586823Y189420D01*
X588215Y186059D01*
X588215Y167181D01*
X586823Y163820D01*
X584250Y161247D01*
X580889Y159855D01*
X577251Y159855D01*
G37*
%LPD*%
%LPC*%
G36*
X602651Y159855D02*
X602651Y159855D01*
X599290Y161247D01*
X596717Y163820D01*
X595325Y167181D01*
X595325Y186059D01*
X596717Y189420D01*
X599290Y191993D01*
X602651Y193385D01*
X606289Y193385D01*
X609650Y191993D01*
X612223Y189420D01*
X613615Y186059D01*
X613615Y167181D01*
X612223Y163820D01*
X609650Y161247D01*
X606289Y159855D01*
X602651Y159855D01*
G37*
%LPD*%
%LPC*%
G36*
X653451Y159855D02*
X653451Y159855D01*
X650090Y161247D01*
X647517Y163820D01*
X646125Y167181D01*
X646125Y186059D01*
X647517Y189420D01*
X650090Y191993D01*
X653451Y193385D01*
X657089Y193385D01*
X660450Y191993D01*
X663023Y189420D01*
X664415Y186059D01*
X664415Y167181D01*
X663023Y163820D01*
X660450Y161247D01*
X657089Y159855D01*
X653451Y159855D01*
G37*
%LPD*%
%LPC*%
G36*
X678851Y159855D02*
X678851Y159855D01*
X675490Y161247D01*
X672917Y163820D01*
X671525Y167181D01*
X671525Y186059D01*
X672917Y189420D01*
X675490Y191993D01*
X678851Y193385D01*
X682489Y193385D01*
X685850Y191993D01*
X688423Y189420D01*
X689815Y186059D01*
X689815Y167181D01*
X688423Y163820D01*
X685850Y161247D01*
X682489Y159855D01*
X678851Y159855D01*
G37*
%LPD*%
%LPC*%
G36*
X44657Y769435D02*
X44657Y769435D01*
X41325Y770815D01*
X38775Y773365D01*
X37395Y776697D01*
X37395Y780303D01*
X38775Y783635D01*
X41325Y786185D01*
X44657Y787565D01*
X63343Y787565D01*
X66675Y786185D01*
X69225Y783635D01*
X70605Y780303D01*
X70605Y776697D01*
X69225Y773365D01*
X66675Y770815D01*
X63343Y769435D01*
X44657Y769435D01*
G37*
%LPD*%
%LPC*%
G36*
X44657Y744035D02*
X44657Y744035D01*
X41325Y745415D01*
X38775Y747965D01*
X37395Y751297D01*
X37395Y754903D01*
X38775Y758235D01*
X41325Y760785D01*
X44657Y762165D01*
X63343Y762165D01*
X66675Y760785D01*
X69225Y758235D01*
X70605Y754903D01*
X70605Y751297D01*
X69225Y747965D01*
X66675Y745415D01*
X63343Y744035D01*
X44657Y744035D01*
G37*
%LPD*%
%LPC*%
G36*
X44657Y718635D02*
X44657Y718635D01*
X41325Y720015D01*
X38775Y722565D01*
X37395Y725897D01*
X37395Y729503D01*
X38775Y732835D01*
X41325Y735385D01*
X44657Y736765D01*
X63343Y736765D01*
X66675Y735385D01*
X69225Y732835D01*
X70605Y729503D01*
X70605Y725897D01*
X69225Y722565D01*
X66675Y720015D01*
X63343Y718635D01*
X44657Y718635D01*
G37*
%LPD*%
%LPC*%
G36*
X44657Y693235D02*
X44657Y693235D01*
X41325Y694615D01*
X38775Y697165D01*
X37395Y700497D01*
X37395Y704103D01*
X38775Y707435D01*
X41325Y709985D01*
X44657Y711365D01*
X63343Y711365D01*
X66675Y709985D01*
X69225Y707435D01*
X70605Y704103D01*
X70605Y700497D01*
X69225Y697165D01*
X66675Y694615D01*
X63343Y693235D01*
X44657Y693235D01*
G37*
%LPD*%
%LPC*%
G36*
X44657Y667835D02*
X44657Y667835D01*
X41325Y669215D01*
X38775Y671765D01*
X37395Y675097D01*
X37395Y678703D01*
X38775Y682035D01*
X41325Y684585D01*
X44657Y685965D01*
X63343Y685965D01*
X66675Y684585D01*
X69225Y682035D01*
X70605Y678703D01*
X70605Y675097D01*
X69225Y671765D01*
X66675Y669215D01*
X63343Y667835D01*
X44657Y667835D01*
G37*
%LPD*%
%LPC*%
G36*
X141683Y742167D02*
X141683Y742167D01*
X138695Y743405D01*
X136409Y745691D01*
X135171Y748679D01*
X135171Y765121D01*
X136409Y768109D01*
X138695Y770395D01*
X141683Y771633D01*
X144917Y771633D01*
X147905Y770395D01*
X150191Y768109D01*
X151429Y765121D01*
X151429Y748679D01*
X150191Y745691D01*
X147905Y743405D01*
X144917Y742167D01*
X141683Y742167D01*
G37*
%LPD*%
%LPC*%
G36*
X192483Y742167D02*
X192483Y742167D01*
X189495Y743405D01*
X187209Y745691D01*
X185971Y748679D01*
X185971Y765121D01*
X187209Y768109D01*
X189495Y770395D01*
X192483Y771633D01*
X195717Y771633D01*
X198705Y770395D01*
X200991Y768109D01*
X202229Y765121D01*
X202229Y748679D01*
X200991Y745691D01*
X198705Y743405D01*
X195717Y742167D01*
X192483Y742167D01*
G37*
%LPD*%
%LPC*%
G36*
X243283Y742167D02*
X243283Y742167D01*
X240295Y743405D01*
X238009Y745691D01*
X236771Y748679D01*
X236771Y765121D01*
X238009Y768109D01*
X240295Y770395D01*
X243283Y771633D01*
X246517Y771633D01*
X249505Y770395D01*
X251791Y768109D01*
X253029Y765121D01*
X253029Y748679D01*
X251791Y745691D01*
X249505Y743405D01*
X246517Y742167D01*
X243283Y742167D01*
G37*
%LPD*%
%LPC*%
G36*
X167083Y742167D02*
X167083Y742167D01*
X164095Y743405D01*
X161809Y745691D01*
X160571Y748679D01*
X160571Y765121D01*
X161809Y768109D01*
X164095Y770395D01*
X167083Y771633D01*
X170317Y771633D01*
X173305Y770395D01*
X175591Y768109D01*
X176829Y765121D01*
X176829Y748679D01*
X175591Y745691D01*
X173305Y743405D01*
X170317Y742167D01*
X167083Y742167D01*
G37*
%LPD*%
%LPC*%
G36*
X217883Y742167D02*
X217883Y742167D01*
X214895Y743405D01*
X212609Y745691D01*
X211371Y748679D01*
X211371Y765121D01*
X212609Y768109D01*
X214895Y770395D01*
X217883Y771633D01*
X221117Y771633D01*
X224105Y770395D01*
X226391Y768109D01*
X227629Y765121D01*
X227629Y748679D01*
X226391Y745691D01*
X224105Y743405D01*
X221117Y742167D01*
X217883Y742167D01*
G37*
%LPD*%
%LPC*%
G36*
X192483Y665967D02*
X192483Y665967D01*
X189495Y667205D01*
X187209Y669491D01*
X185971Y672479D01*
X185971Y688921D01*
X187209Y691909D01*
X189495Y694195D01*
X192483Y695433D01*
X195717Y695433D01*
X198705Y694195D01*
X200991Y691909D01*
X202229Y688921D01*
X202229Y672479D01*
X200991Y669491D01*
X198705Y667205D01*
X195717Y665967D01*
X192483Y665967D01*
G37*
%LPD*%
%LPC*%
G36*
X141683Y665967D02*
X141683Y665967D01*
X138695Y667205D01*
X136409Y669491D01*
X135171Y672479D01*
X135171Y688921D01*
X136409Y691909D01*
X138695Y694195D01*
X141683Y695433D01*
X144917Y695433D01*
X147905Y694195D01*
X150191Y691909D01*
X151429Y688921D01*
X151429Y672479D01*
X150191Y669491D01*
X147905Y667205D01*
X144917Y665967D01*
X141683Y665967D01*
G37*
%LPD*%
%LPC*%
G36*
X167083Y665967D02*
X167083Y665967D01*
X164095Y667205D01*
X161809Y669491D01*
X160571Y672479D01*
X160571Y688921D01*
X161809Y691909D01*
X164095Y694195D01*
X167083Y695433D01*
X170317Y695433D01*
X173305Y694195D01*
X175591Y691909D01*
X176829Y688921D01*
X176829Y672479D01*
X175591Y669491D01*
X173305Y667205D01*
X170317Y665967D01*
X167083Y665967D01*
G37*
%LPD*%
%LPC*%
G36*
X243283Y665967D02*
X243283Y665967D01*
X240295Y667205D01*
X238009Y669491D01*
X236771Y672479D01*
X236771Y688921D01*
X238009Y691909D01*
X240295Y694195D01*
X243283Y695433D01*
X246517Y695433D01*
X249505Y694195D01*
X251791Y691909D01*
X253029Y688921D01*
X253029Y672479D01*
X251791Y669491D01*
X249505Y667205D01*
X246517Y665967D01*
X243283Y665967D01*
G37*
%LPD*%
%LPC*%
G36*
X217883Y665967D02*
X217883Y665967D01*
X214895Y667205D01*
X212609Y669491D01*
X211371Y672479D01*
X211371Y688921D01*
X212609Y691909D01*
X214895Y694195D01*
X217883Y695433D01*
X221117Y695433D01*
X224105Y694195D01*
X226391Y691909D01*
X227629Y688921D01*
X227629Y672479D01*
X226391Y669491D01*
X224105Y667205D01*
X221117Y665967D01*
X217883Y665967D01*
G37*
%LPD*%
%LPC*%
G36*
X58183Y610767D02*
X58183Y610767D01*
X55195Y612005D01*
X52909Y614291D01*
X51671Y617279D01*
X51671Y633721D01*
X52909Y636709D01*
X55195Y638995D01*
X58183Y640233D01*
X61417Y640233D01*
X64405Y638995D01*
X66691Y636709D01*
X67929Y633721D01*
X67929Y617279D01*
X66691Y614291D01*
X64405Y612005D01*
X61417Y610767D01*
X58183Y610767D01*
G37*
%LPD*%
%LPC*%
G36*
X83583Y610767D02*
X83583Y610767D01*
X80595Y612005D01*
X78309Y614291D01*
X77071Y617279D01*
X77071Y633721D01*
X78309Y636709D01*
X80595Y638995D01*
X83583Y640233D01*
X86817Y640233D01*
X89805Y638995D01*
X92091Y636709D01*
X93329Y633721D01*
X93329Y617279D01*
X92091Y614291D01*
X89805Y612005D01*
X86817Y610767D01*
X83583Y610767D01*
G37*
%LPD*%
%LPC*%
G36*
X210583Y610767D02*
X210583Y610767D01*
X207595Y612005D01*
X205309Y614291D01*
X204071Y617279D01*
X204071Y633721D01*
X205309Y636709D01*
X207595Y638995D01*
X210583Y640233D01*
X213817Y640233D01*
X216805Y638995D01*
X219091Y636709D01*
X220329Y633721D01*
X220329Y617279D01*
X219091Y614291D01*
X216805Y612005D01*
X213817Y610767D01*
X210583Y610767D01*
G37*
%LPD*%
%LPC*%
G36*
X185183Y610767D02*
X185183Y610767D01*
X182195Y612005D01*
X179909Y614291D01*
X178671Y617279D01*
X178671Y633721D01*
X179909Y636709D01*
X182195Y638995D01*
X185183Y640233D01*
X188417Y640233D01*
X191405Y638995D01*
X193691Y636709D01*
X194929Y633721D01*
X194929Y617279D01*
X193691Y614291D01*
X191405Y612005D01*
X188417Y610767D01*
X185183Y610767D01*
G37*
%LPD*%
%LPC*%
G36*
X235983Y610767D02*
X235983Y610767D01*
X232995Y612005D01*
X230709Y614291D01*
X229471Y617279D01*
X229471Y633721D01*
X230709Y636709D01*
X232995Y638995D01*
X235983Y640233D01*
X239217Y640233D01*
X242205Y638995D01*
X244491Y636709D01*
X245729Y633721D01*
X245729Y617279D01*
X244491Y614291D01*
X242205Y612005D01*
X239217Y610767D01*
X235983Y610767D01*
G37*
%LPD*%
%LPC*%
G36*
X110383Y560767D02*
X110383Y560767D01*
X107395Y562005D01*
X105109Y564291D01*
X103871Y567279D01*
X103871Y583721D01*
X105109Y586709D01*
X107395Y588995D01*
X110383Y590233D01*
X113617Y590233D01*
X116605Y588995D01*
X118891Y586709D01*
X120129Y583721D01*
X120129Y567279D01*
X118891Y564291D01*
X116605Y562005D01*
X113617Y560767D01*
X110383Y560767D01*
G37*
%LPD*%
%LPC*%
G36*
X84983Y560767D02*
X84983Y560767D01*
X81995Y562005D01*
X79709Y564291D01*
X78471Y567279D01*
X78471Y583721D01*
X79709Y586709D01*
X81995Y588995D01*
X84983Y590233D01*
X88217Y590233D01*
X91205Y588995D01*
X93491Y586709D01*
X94729Y583721D01*
X94729Y567279D01*
X93491Y564291D01*
X91205Y562005D01*
X88217Y560767D01*
X84983Y560767D01*
G37*
%LPD*%
%LPC*%
G36*
X59583Y560767D02*
X59583Y560767D01*
X56595Y562005D01*
X54309Y564291D01*
X53071Y567279D01*
X53071Y583721D01*
X54309Y586709D01*
X56595Y588995D01*
X59583Y590233D01*
X62817Y590233D01*
X65805Y588995D01*
X68091Y586709D01*
X69329Y583721D01*
X69329Y567279D01*
X68091Y564291D01*
X65805Y562005D01*
X62817Y560767D01*
X59583Y560767D01*
G37*
%LPD*%
%LPC*%
G36*
X855633Y214517D02*
X855633Y214517D01*
X852645Y215755D01*
X850359Y218041D01*
X849121Y221029D01*
X849121Y237471D01*
X850359Y240459D01*
X852645Y242745D01*
X855633Y243983D01*
X858867Y243983D01*
X861855Y242745D01*
X864141Y240459D01*
X865379Y237471D01*
X865379Y221029D01*
X864141Y218041D01*
X861855Y215755D01*
X858867Y214517D01*
X855633Y214517D01*
G37*
%LPD*%
%LPC*%
G36*
X830233Y214517D02*
X830233Y214517D01*
X827245Y215755D01*
X824959Y218041D01*
X823721Y221029D01*
X823721Y237471D01*
X824959Y240459D01*
X827245Y242745D01*
X830233Y243983D01*
X833467Y243983D01*
X836455Y242745D01*
X838741Y240459D01*
X839979Y237471D01*
X839979Y221029D01*
X838741Y218041D01*
X836455Y215755D01*
X833467Y214517D01*
X830233Y214517D01*
G37*
%LPD*%
%LPC*%
G36*
X779433Y214517D02*
X779433Y214517D01*
X776445Y215755D01*
X774159Y218041D01*
X772921Y221029D01*
X772921Y237471D01*
X774159Y240459D01*
X776445Y242745D01*
X779433Y243983D01*
X782667Y243983D01*
X785655Y242745D01*
X787941Y240459D01*
X789179Y237471D01*
X789179Y221029D01*
X787941Y218041D01*
X785655Y215755D01*
X782667Y214517D01*
X779433Y214517D01*
G37*
%LPD*%
%LPC*%
G36*
X754033Y214517D02*
X754033Y214517D01*
X751045Y215755D01*
X748759Y218041D01*
X747521Y221029D01*
X747521Y237471D01*
X748759Y240459D01*
X751045Y242745D01*
X754033Y243983D01*
X757267Y243983D01*
X760255Y242745D01*
X762541Y240459D01*
X763779Y237471D01*
X763779Y221029D01*
X762541Y218041D01*
X760255Y215755D01*
X757267Y214517D01*
X754033Y214517D01*
G37*
%LPD*%
%LPC*%
G36*
X46253Y62307D02*
X46253Y62307D01*
X43265Y63545D01*
X40979Y65831D01*
X39741Y68819D01*
X39741Y85261D01*
X40979Y88249D01*
X43265Y90535D01*
X46253Y91773D01*
X49487Y91773D01*
X52475Y90535D01*
X54761Y88249D01*
X55999Y85261D01*
X55999Y68819D01*
X54761Y65831D01*
X52475Y63545D01*
X49487Y62307D01*
X46253Y62307D01*
G37*
%LPD*%
%LPC*%
G36*
X550833Y62117D02*
X550833Y62117D01*
X547845Y63355D01*
X545559Y65641D01*
X544321Y68629D01*
X544321Y85071D01*
X545559Y88059D01*
X547845Y90345D01*
X550833Y91583D01*
X554067Y91583D01*
X557055Y90345D01*
X559341Y88059D01*
X560579Y85071D01*
X560579Y68629D01*
X559341Y65641D01*
X557055Y63355D01*
X554067Y62117D01*
X550833Y62117D01*
G37*
%LPD*%
%LPC*%
G36*
X652433Y62117D02*
X652433Y62117D01*
X649445Y63355D01*
X647159Y65641D01*
X645921Y68629D01*
X645921Y85071D01*
X647159Y88059D01*
X649445Y90345D01*
X652433Y91583D01*
X655667Y91583D01*
X658655Y90345D01*
X660941Y88059D01*
X662179Y85071D01*
X662179Y68629D01*
X660941Y65641D01*
X658655Y63355D01*
X655667Y62117D01*
X652433Y62117D01*
G37*
%LPD*%
%LPC*%
G36*
X474633Y62117D02*
X474633Y62117D01*
X471645Y63355D01*
X469359Y65641D01*
X468121Y68629D01*
X468121Y85071D01*
X469359Y88059D01*
X471645Y90345D01*
X474633Y91583D01*
X477867Y91583D01*
X480855Y90345D01*
X483141Y88059D01*
X484379Y85071D01*
X484379Y68629D01*
X483141Y65641D01*
X480855Y63355D01*
X477867Y62117D01*
X474633Y62117D01*
G37*
%LPD*%
%LPC*%
G36*
X576233Y62117D02*
X576233Y62117D01*
X573245Y63355D01*
X570959Y65641D01*
X569721Y68629D01*
X569721Y85071D01*
X570959Y88059D01*
X573245Y90345D01*
X576233Y91583D01*
X579467Y91583D01*
X582455Y90345D01*
X584741Y88059D01*
X585979Y85071D01*
X585979Y68629D01*
X584741Y65641D01*
X582455Y63355D01*
X579467Y62117D01*
X576233Y62117D01*
G37*
%LPD*%
%LPC*%
G36*
X627033Y62117D02*
X627033Y62117D01*
X624045Y63355D01*
X621759Y65641D01*
X620521Y68629D01*
X620521Y85071D01*
X621759Y88059D01*
X624045Y90345D01*
X627033Y91583D01*
X630267Y91583D01*
X633255Y90345D01*
X635541Y88059D01*
X636779Y85071D01*
X636779Y68629D01*
X635541Y65641D01*
X633255Y63355D01*
X630267Y62117D01*
X627033Y62117D01*
G37*
%LPD*%
%LPC*%
G36*
X601633Y62117D02*
X601633Y62117D01*
X598645Y63355D01*
X596359Y65641D01*
X595121Y68629D01*
X595121Y85071D01*
X596359Y88059D01*
X598645Y90345D01*
X601633Y91583D01*
X604867Y91583D01*
X607855Y90345D01*
X610141Y88059D01*
X611379Y85071D01*
X611379Y68629D01*
X610141Y65641D01*
X607855Y63355D01*
X604867Y62117D01*
X601633Y62117D01*
G37*
%LPD*%
%LPC*%
G36*
X677833Y62117D02*
X677833Y62117D01*
X674845Y63355D01*
X672559Y65641D01*
X671321Y68629D01*
X671321Y85071D01*
X672559Y88059D01*
X674845Y90345D01*
X677833Y91583D01*
X681067Y91583D01*
X684055Y90345D01*
X686341Y88059D01*
X687579Y85071D01*
X687579Y68629D01*
X686341Y65641D01*
X684055Y63355D01*
X681067Y62117D01*
X677833Y62117D01*
G37*
%LPD*%
%LPC*%
G36*
X703233Y62117D02*
X703233Y62117D01*
X700245Y63355D01*
X697959Y65641D01*
X696721Y68629D01*
X696721Y85071D01*
X697959Y88059D01*
X700245Y90345D01*
X703233Y91583D01*
X706467Y91583D01*
X709455Y90345D01*
X711741Y88059D01*
X712979Y85071D01*
X712979Y68629D01*
X711741Y65641D01*
X709455Y63355D01*
X706467Y62117D01*
X703233Y62117D01*
G37*
%LPD*%
%LPC*%
G36*
X728633Y62117D02*
X728633Y62117D01*
X725645Y63355D01*
X723359Y65641D01*
X722121Y68629D01*
X722121Y85071D01*
X723359Y88059D01*
X725645Y90345D01*
X728633Y91583D01*
X731867Y91583D01*
X734855Y90345D01*
X737141Y88059D01*
X738379Y85071D01*
X738379Y68629D01*
X737141Y65641D01*
X734855Y63355D01*
X731867Y62117D01*
X728633Y62117D01*
G37*
%LPD*%
%LPC*%
G36*
X754033Y62117D02*
X754033Y62117D01*
X751045Y63355D01*
X748759Y65641D01*
X747521Y68629D01*
X747521Y85071D01*
X748759Y88059D01*
X751045Y90345D01*
X754033Y91583D01*
X757267Y91583D01*
X760255Y90345D01*
X762541Y88059D01*
X763779Y85071D01*
X763779Y68629D01*
X762541Y65641D01*
X760255Y63355D01*
X757267Y62117D01*
X754033Y62117D01*
G37*
%LPD*%
%LPC*%
G36*
X779433Y62117D02*
X779433Y62117D01*
X776445Y63355D01*
X774159Y65641D01*
X772921Y68629D01*
X772921Y85071D01*
X774159Y88059D01*
X776445Y90345D01*
X779433Y91583D01*
X782667Y91583D01*
X785655Y90345D01*
X787941Y88059D01*
X789179Y85071D01*
X789179Y68629D01*
X787941Y65641D01*
X785655Y63355D01*
X782667Y62117D01*
X779433Y62117D01*
G37*
%LPD*%
%LPC*%
G36*
X804833Y62117D02*
X804833Y62117D01*
X801845Y63355D01*
X799559Y65641D01*
X798321Y68629D01*
X798321Y85071D01*
X799559Y88059D01*
X801845Y90345D01*
X804833Y91583D01*
X808067Y91583D01*
X811055Y90345D01*
X813341Y88059D01*
X814579Y85071D01*
X814579Y68629D01*
X813341Y65641D01*
X811055Y63355D01*
X808067Y62117D01*
X804833Y62117D01*
G37*
%LPD*%
%LPC*%
G36*
X830233Y62117D02*
X830233Y62117D01*
X827245Y63355D01*
X824959Y65641D01*
X823721Y68629D01*
X823721Y85071D01*
X824959Y88059D01*
X827245Y90345D01*
X830233Y91583D01*
X833467Y91583D01*
X836455Y90345D01*
X838741Y88059D01*
X839979Y85071D01*
X839979Y68629D01*
X838741Y65641D01*
X836455Y63355D01*
X833467Y62117D01*
X830233Y62117D01*
G37*
%LPD*%
%LPC*%
G36*
X201883Y403367D02*
X201883Y403367D01*
X198895Y404605D01*
X196609Y406891D01*
X195371Y409879D01*
X195371Y426321D01*
X196609Y429309D01*
X198895Y431595D01*
X201883Y432833D01*
X205117Y432833D01*
X208105Y431595D01*
X210391Y429309D01*
X211629Y426321D01*
X211629Y409879D01*
X210391Y406891D01*
X208105Y404605D01*
X205117Y403367D01*
X201883Y403367D01*
G37*
%LPD*%
%LPC*%
G36*
X49483Y403367D02*
X49483Y403367D01*
X46495Y404605D01*
X44209Y406891D01*
X42971Y409879D01*
X42971Y426321D01*
X44209Y429309D01*
X46495Y431595D01*
X49483Y432833D01*
X52717Y432833D01*
X55705Y431595D01*
X57991Y429309D01*
X59229Y426321D01*
X59229Y409879D01*
X57991Y406891D01*
X55705Y404605D01*
X52717Y403367D01*
X49483Y403367D01*
G37*
%LPD*%
%LPC*%
G36*
X176483Y403367D02*
X176483Y403367D01*
X173495Y404605D01*
X171209Y406891D01*
X169971Y409879D01*
X169971Y426321D01*
X171209Y429309D01*
X173495Y431595D01*
X176483Y432833D01*
X179717Y432833D01*
X182705Y431595D01*
X184991Y429309D01*
X186229Y426321D01*
X186229Y409879D01*
X184991Y406891D01*
X182705Y404605D01*
X179717Y403367D01*
X176483Y403367D01*
G37*
%LPD*%
%LPC*%
G36*
X651883Y343367D02*
X651883Y343367D01*
X648895Y344605D01*
X646609Y346891D01*
X645371Y349879D01*
X645371Y366321D01*
X646609Y369309D01*
X648895Y371595D01*
X651883Y372833D01*
X655117Y372833D01*
X658105Y371595D01*
X660391Y369309D01*
X661629Y366321D01*
X661629Y349879D01*
X660391Y346891D01*
X658105Y344605D01*
X655117Y343367D01*
X651883Y343367D01*
G37*
%LPD*%
%LPC*%
G36*
X677283Y343367D02*
X677283Y343367D01*
X674295Y344605D01*
X672009Y346891D01*
X670771Y349879D01*
X670771Y366321D01*
X672009Y369309D01*
X674295Y371595D01*
X677283Y372833D01*
X680517Y372833D01*
X683505Y371595D01*
X685791Y369309D01*
X687029Y366321D01*
X687029Y349879D01*
X685791Y346891D01*
X683505Y344605D01*
X680517Y343367D01*
X677283Y343367D01*
G37*
%LPD*%
%LPC*%
G36*
X626483Y343367D02*
X626483Y343367D01*
X623495Y344605D01*
X621209Y346891D01*
X619971Y349879D01*
X619971Y366321D01*
X621209Y369309D01*
X623495Y371595D01*
X626483Y372833D01*
X629717Y372833D01*
X632705Y371595D01*
X634991Y369309D01*
X636229Y366321D01*
X636229Y349879D01*
X634991Y346891D01*
X632705Y344605D01*
X629717Y343367D01*
X626483Y343367D01*
G37*
%LPD*%
%LPC*%
G36*
X499483Y343367D02*
X499483Y343367D01*
X496495Y344605D01*
X494209Y346891D01*
X492971Y349879D01*
X492971Y366321D01*
X494209Y369309D01*
X496495Y371595D01*
X499483Y372833D01*
X502717Y372833D01*
X505705Y371595D01*
X507991Y369309D01*
X509229Y366321D01*
X509229Y349879D01*
X507991Y346891D01*
X505705Y344605D01*
X502717Y343367D01*
X499483Y343367D01*
G37*
%LPD*%
%LPC*%
G36*
X601083Y343367D02*
X601083Y343367D01*
X598095Y344605D01*
X595809Y346891D01*
X594571Y349879D01*
X594571Y366321D01*
X595809Y369309D01*
X598095Y371595D01*
X601083Y372833D01*
X604317Y372833D01*
X607305Y371595D01*
X609591Y369309D01*
X610829Y366321D01*
X610829Y349879D01*
X609591Y346891D01*
X607305Y344605D01*
X604317Y343367D01*
X601083Y343367D01*
G37*
%LPD*%
%LPC*%
G36*
X524883Y343367D02*
X524883Y343367D01*
X521895Y344605D01*
X519609Y346891D01*
X518371Y349879D01*
X518371Y366321D01*
X519609Y369309D01*
X521895Y371595D01*
X524883Y372833D01*
X528117Y372833D01*
X531105Y371595D01*
X533391Y369309D01*
X534629Y366321D01*
X534629Y349879D01*
X533391Y346891D01*
X531105Y344605D01*
X528117Y343367D01*
X524883Y343367D01*
G37*
%LPD*%
%LPC*%
G36*
X550283Y343367D02*
X550283Y343367D01*
X547295Y344605D01*
X545009Y346891D01*
X543771Y349879D01*
X543771Y366321D01*
X545009Y369309D01*
X547295Y371595D01*
X550283Y372833D01*
X553517Y372833D01*
X556505Y371595D01*
X558791Y369309D01*
X560029Y366321D01*
X560029Y349879D01*
X558791Y346891D01*
X556505Y344605D01*
X553517Y343367D01*
X550283Y343367D01*
G37*
%LPD*%
%LPC*%
G36*
X575683Y343367D02*
X575683Y343367D01*
X572695Y344605D01*
X570409Y346891D01*
X569171Y349879D01*
X569171Y366321D01*
X570409Y369309D01*
X572695Y371595D01*
X575683Y372833D01*
X578917Y372833D01*
X581905Y371595D01*
X584191Y369309D01*
X585429Y366321D01*
X585429Y349879D01*
X584191Y346891D01*
X581905Y344605D01*
X578917Y343367D01*
X575683Y343367D01*
G37*
%LPD*%
%LPC*%
G36*
X176483Y327167D02*
X176483Y327167D01*
X173495Y328405D01*
X171209Y330691D01*
X169971Y333679D01*
X169971Y350121D01*
X171209Y353109D01*
X173495Y355395D01*
X176483Y356633D01*
X179717Y356633D01*
X182705Y355395D01*
X184991Y353109D01*
X186229Y350121D01*
X186229Y333679D01*
X184991Y330691D01*
X182705Y328405D01*
X179717Y327167D01*
X176483Y327167D01*
G37*
%LPD*%
%LPC*%
G36*
X201883Y327167D02*
X201883Y327167D01*
X198895Y328405D01*
X196609Y330691D01*
X195371Y333679D01*
X195371Y350121D01*
X196609Y353109D01*
X198895Y355395D01*
X201883Y356633D01*
X205117Y356633D01*
X208105Y355395D01*
X210391Y353109D01*
X211629Y350121D01*
X211629Y333679D01*
X210391Y330691D01*
X208105Y328405D01*
X205117Y327167D01*
X201883Y327167D01*
G37*
%LPD*%
%LPC*%
G36*
X49483Y327167D02*
X49483Y327167D01*
X46495Y328405D01*
X44209Y330691D01*
X42971Y333679D01*
X42971Y350121D01*
X44209Y353109D01*
X46495Y355395D01*
X49483Y356633D01*
X52717Y356633D01*
X55705Y355395D01*
X57991Y353109D01*
X59229Y350121D01*
X59229Y333679D01*
X57991Y330691D01*
X55705Y328405D01*
X52717Y327167D01*
X49483Y327167D01*
G37*
%LPD*%
%LPC*%
G36*
X601083Y267167D02*
X601083Y267167D01*
X598095Y268405D01*
X595809Y270691D01*
X594571Y273679D01*
X594571Y290121D01*
X595809Y293109D01*
X598095Y295395D01*
X601083Y296633D01*
X604317Y296633D01*
X607305Y295395D01*
X609591Y293109D01*
X610829Y290121D01*
X610829Y273679D01*
X609591Y270691D01*
X607305Y268405D01*
X604317Y267167D01*
X601083Y267167D01*
G37*
%LPD*%
%LPC*%
G36*
X524883Y267167D02*
X524883Y267167D01*
X521895Y268405D01*
X519609Y270691D01*
X518371Y273679D01*
X518371Y290121D01*
X519609Y293109D01*
X521895Y295395D01*
X524883Y296633D01*
X528117Y296633D01*
X531105Y295395D01*
X533391Y293109D01*
X534629Y290121D01*
X534629Y273679D01*
X533391Y270691D01*
X531105Y268405D01*
X528117Y267167D01*
X524883Y267167D01*
G37*
%LPD*%
%LPC*%
G36*
X550283Y267167D02*
X550283Y267167D01*
X547295Y268405D01*
X545009Y270691D01*
X543771Y273679D01*
X543771Y290121D01*
X545009Y293109D01*
X547295Y295395D01*
X550283Y296633D01*
X553517Y296633D01*
X556505Y295395D01*
X558791Y293109D01*
X560029Y290121D01*
X560029Y273679D01*
X558791Y270691D01*
X556505Y268405D01*
X553517Y267167D01*
X550283Y267167D01*
G37*
%LPD*%
%LPC*%
G36*
X575683Y267167D02*
X575683Y267167D01*
X572695Y268405D01*
X570409Y270691D01*
X569171Y273679D01*
X569171Y290121D01*
X570409Y293109D01*
X572695Y295395D01*
X575683Y296633D01*
X578917Y296633D01*
X581905Y295395D01*
X584191Y293109D01*
X585429Y290121D01*
X585429Y273679D01*
X584191Y270691D01*
X581905Y268405D01*
X578917Y267167D01*
X575683Y267167D01*
G37*
%LPD*%
%LPC*%
G36*
X626483Y267167D02*
X626483Y267167D01*
X623495Y268405D01*
X621209Y270691D01*
X619971Y273679D01*
X619971Y290121D01*
X621209Y293109D01*
X623495Y295395D01*
X626483Y296633D01*
X629717Y296633D01*
X632705Y295395D01*
X634991Y293109D01*
X636229Y290121D01*
X636229Y273679D01*
X634991Y270691D01*
X632705Y268405D01*
X629717Y267167D01*
X626483Y267167D01*
G37*
%LPD*%
%LPC*%
G36*
X651883Y267167D02*
X651883Y267167D01*
X648895Y268405D01*
X646609Y270691D01*
X645371Y273679D01*
X645371Y290121D01*
X646609Y293109D01*
X648895Y295395D01*
X651883Y296633D01*
X655117Y296633D01*
X658105Y295395D01*
X660391Y293109D01*
X661629Y290121D01*
X661629Y273679D01*
X660391Y270691D01*
X658105Y268405D01*
X655117Y267167D01*
X651883Y267167D01*
G37*
%LPD*%
%LPC*%
G36*
X71653Y214707D02*
X71653Y214707D01*
X68665Y215945D01*
X66379Y218231D01*
X65141Y221219D01*
X65141Y237661D01*
X66379Y240649D01*
X68665Y242935D01*
X71653Y244173D01*
X74887Y244173D01*
X77875Y242935D01*
X80161Y240649D01*
X81399Y237661D01*
X81399Y221219D01*
X80161Y218231D01*
X77875Y215945D01*
X74887Y214707D01*
X71653Y214707D01*
G37*
%LPD*%
%LPC*%
G36*
X224053Y214707D02*
X224053Y214707D01*
X221065Y215945D01*
X218779Y218231D01*
X217541Y221219D01*
X217541Y237661D01*
X218779Y240649D01*
X221065Y242935D01*
X224053Y244173D01*
X227287Y244173D01*
X230275Y242935D01*
X232561Y240649D01*
X233799Y237661D01*
X233799Y221219D01*
X232561Y218231D01*
X230275Y215945D01*
X227287Y214707D01*
X224053Y214707D01*
G37*
%LPD*%
%LPC*%
G36*
X249453Y214707D02*
X249453Y214707D01*
X246465Y215945D01*
X244179Y218231D01*
X242941Y221219D01*
X242941Y237661D01*
X244179Y240649D01*
X246465Y242935D01*
X249453Y244173D01*
X252687Y244173D01*
X255675Y242935D01*
X257961Y240649D01*
X259199Y237661D01*
X259199Y221219D01*
X257961Y218231D01*
X255675Y215945D01*
X252687Y214707D01*
X249453Y214707D01*
G37*
%LPD*%
%LPC*%
G36*
X300253Y214707D02*
X300253Y214707D01*
X297265Y215945D01*
X294979Y218231D01*
X293741Y221219D01*
X293741Y237661D01*
X294979Y240649D01*
X297265Y242935D01*
X300253Y244173D01*
X303487Y244173D01*
X306475Y242935D01*
X308761Y240649D01*
X309999Y237661D01*
X309999Y221219D01*
X308761Y218231D01*
X306475Y215945D01*
X303487Y214707D01*
X300253Y214707D01*
G37*
%LPD*%
%LPC*%
G36*
X46253Y214707D02*
X46253Y214707D01*
X43265Y215945D01*
X40979Y218231D01*
X39741Y221219D01*
X39741Y237661D01*
X40979Y240649D01*
X43265Y242935D01*
X46253Y244173D01*
X49487Y244173D01*
X52475Y242935D01*
X54761Y240649D01*
X55999Y237661D01*
X55999Y221219D01*
X54761Y218231D01*
X52475Y215945D01*
X49487Y214707D01*
X46253Y214707D01*
G37*
%LPD*%
%LPC*%
G36*
X427253Y214707D02*
X427253Y214707D01*
X424265Y215945D01*
X421979Y218231D01*
X420741Y221219D01*
X420741Y237661D01*
X421979Y240649D01*
X424265Y242935D01*
X427253Y244173D01*
X430487Y244173D01*
X433475Y242935D01*
X435761Y240649D01*
X436999Y237661D01*
X436999Y221219D01*
X435761Y218231D01*
X433475Y215945D01*
X430487Y214707D01*
X427253Y214707D01*
G37*
%LPD*%
%LPC*%
G36*
X351053Y214707D02*
X351053Y214707D01*
X348065Y215945D01*
X345779Y218231D01*
X344541Y221219D01*
X344541Y237661D01*
X345779Y240649D01*
X348065Y242935D01*
X351053Y244173D01*
X354287Y244173D01*
X357275Y242935D01*
X359561Y240649D01*
X360799Y237661D01*
X360799Y221219D01*
X359561Y218231D01*
X357275Y215945D01*
X354287Y214707D01*
X351053Y214707D01*
G37*
%LPD*%
%LPC*%
G36*
X376453Y214707D02*
X376453Y214707D01*
X373465Y215945D01*
X371179Y218231D01*
X369941Y221219D01*
X369941Y237661D01*
X371179Y240649D01*
X373465Y242935D01*
X376453Y244173D01*
X379687Y244173D01*
X382675Y242935D01*
X384961Y240649D01*
X386199Y237661D01*
X386199Y221219D01*
X384961Y218231D01*
X382675Y215945D01*
X379687Y214707D01*
X376453Y214707D01*
G37*
%LPD*%
%LPC*%
G36*
X401853Y214707D02*
X401853Y214707D01*
X398865Y215945D01*
X396579Y218231D01*
X395341Y221219D01*
X395341Y237661D01*
X396579Y240649D01*
X398865Y242935D01*
X401853Y244173D01*
X405087Y244173D01*
X408075Y242935D01*
X410361Y240649D01*
X411599Y237661D01*
X411599Y221219D01*
X410361Y218231D01*
X408075Y215945D01*
X405087Y214707D01*
X401853Y214707D01*
G37*
%LPD*%
%LPC*%
G36*
X325653Y214707D02*
X325653Y214707D01*
X322665Y215945D01*
X320379Y218231D01*
X319141Y221219D01*
X319141Y237661D01*
X320379Y240649D01*
X322665Y242935D01*
X325653Y244173D01*
X328887Y244173D01*
X331875Y242935D01*
X334161Y240649D01*
X335399Y237661D01*
X335399Y221219D01*
X334161Y218231D01*
X331875Y215945D01*
X328887Y214707D01*
X325653Y214707D01*
G37*
%LPD*%
%LPC*%
G36*
X274853Y214707D02*
X274853Y214707D01*
X271865Y215945D01*
X269579Y218231D01*
X268341Y221219D01*
X268341Y237661D01*
X269579Y240649D01*
X271865Y242935D01*
X274853Y244173D01*
X278087Y244173D01*
X281075Y242935D01*
X283361Y240649D01*
X284599Y237661D01*
X284599Y221219D01*
X283361Y218231D01*
X281075Y215945D01*
X278087Y214707D01*
X274853Y214707D01*
G37*
%LPD*%
%LPC*%
G36*
X198653Y214707D02*
X198653Y214707D01*
X195665Y215945D01*
X193379Y218231D01*
X192141Y221219D01*
X192141Y237661D01*
X193379Y240649D01*
X195665Y242935D01*
X198653Y244173D01*
X201887Y244173D01*
X204875Y242935D01*
X207161Y240649D01*
X208399Y237661D01*
X208399Y221219D01*
X207161Y218231D01*
X204875Y215945D01*
X201887Y214707D01*
X198653Y214707D01*
G37*
%LPD*%
%LPC*%
G36*
X728633Y214517D02*
X728633Y214517D01*
X725645Y215755D01*
X723359Y218041D01*
X722121Y221029D01*
X722121Y237471D01*
X723359Y240459D01*
X725645Y242745D01*
X728633Y243983D01*
X731867Y243983D01*
X734855Y242745D01*
X737141Y240459D01*
X738379Y237471D01*
X738379Y221029D01*
X737141Y218041D01*
X734855Y215755D01*
X731867Y214517D01*
X728633Y214517D01*
G37*
%LPD*%
%LPC*%
G36*
X703233Y214517D02*
X703233Y214517D01*
X700245Y215755D01*
X697959Y218041D01*
X696721Y221029D01*
X696721Y237471D01*
X697959Y240459D01*
X700245Y242745D01*
X703233Y243983D01*
X706467Y243983D01*
X709455Y242745D01*
X711741Y240459D01*
X712979Y237471D01*
X712979Y221029D01*
X711741Y218041D01*
X709455Y215755D01*
X706467Y214517D01*
X703233Y214517D01*
G37*
%LPD*%
%LPC*%
G36*
X677833Y214517D02*
X677833Y214517D01*
X674845Y215755D01*
X672559Y218041D01*
X671321Y221029D01*
X671321Y237471D01*
X672559Y240459D01*
X674845Y242745D01*
X677833Y243983D01*
X681067Y243983D01*
X684055Y242745D01*
X686341Y240459D01*
X687579Y237471D01*
X687579Y221029D01*
X686341Y218041D01*
X684055Y215755D01*
X681067Y214517D01*
X677833Y214517D01*
G37*
%LPD*%
%LPC*%
G36*
X804833Y214517D02*
X804833Y214517D01*
X801845Y215755D01*
X799559Y218041D01*
X798321Y221029D01*
X798321Y237471D01*
X799559Y240459D01*
X801845Y242745D01*
X804833Y243983D01*
X808067Y243983D01*
X811055Y242745D01*
X813341Y240459D01*
X814579Y237471D01*
X814579Y221029D01*
X813341Y218041D01*
X811055Y215755D01*
X808067Y214517D01*
X804833Y214517D01*
G37*
%LPD*%
%LPC*%
G36*
X576233Y214517D02*
X576233Y214517D01*
X573245Y215755D01*
X570959Y218041D01*
X569721Y221029D01*
X569721Y237471D01*
X570959Y240459D01*
X573245Y242745D01*
X576233Y243983D01*
X579467Y243983D01*
X582455Y242745D01*
X584741Y240459D01*
X585979Y237471D01*
X585979Y221029D01*
X584741Y218041D01*
X582455Y215755D01*
X579467Y214517D01*
X576233Y214517D01*
G37*
%LPD*%
%LPC*%
G36*
X627033Y214517D02*
X627033Y214517D01*
X624045Y215755D01*
X621759Y218041D01*
X620521Y221029D01*
X620521Y237471D01*
X621759Y240459D01*
X624045Y242745D01*
X627033Y243983D01*
X630267Y243983D01*
X633255Y242745D01*
X635541Y240459D01*
X636779Y237471D01*
X636779Y221029D01*
X635541Y218041D01*
X633255Y215755D01*
X630267Y214517D01*
X627033Y214517D01*
G37*
%LPD*%
%LPC*%
G36*
X652433Y214517D02*
X652433Y214517D01*
X649445Y215755D01*
X647159Y218041D01*
X645921Y221029D01*
X645921Y237471D01*
X647159Y240459D01*
X649445Y242745D01*
X652433Y243983D01*
X655667Y243983D01*
X658655Y242745D01*
X660941Y240459D01*
X662179Y237471D01*
X662179Y221029D01*
X660941Y218041D01*
X658655Y215755D01*
X655667Y214517D01*
X652433Y214517D01*
G37*
%LPD*%
%LPC*%
G36*
X601633Y214517D02*
X601633Y214517D01*
X598645Y215755D01*
X596359Y218041D01*
X595121Y221029D01*
X595121Y237471D01*
X596359Y240459D01*
X598645Y242745D01*
X601633Y243983D01*
X604867Y243983D01*
X607855Y242745D01*
X610141Y240459D01*
X611379Y237471D01*
X611379Y221029D01*
X610141Y218041D01*
X607855Y215755D01*
X604867Y214517D01*
X601633Y214517D01*
G37*
%LPD*%
%LPC*%
G36*
X458754Y330474D02*
X458754Y330474D01*
X453174Y336054D01*
X453174Y343946D01*
X458754Y349526D01*
X466646Y349526D01*
X472226Y343946D01*
X472226Y336054D01*
X466646Y330474D01*
X458754Y330474D01*
G37*
%LPD*%
%LPC*%
G36*
X43354Y460474D02*
X43354Y460474D01*
X37774Y466054D01*
X37774Y473946D01*
X43354Y479526D01*
X51246Y479526D01*
X56826Y473946D01*
X56826Y466054D01*
X51246Y460474D01*
X43354Y460474D01*
G37*
%LPD*%
%LPC*%
G36*
X188754Y520474D02*
X188754Y520474D01*
X183174Y526054D01*
X183174Y533946D01*
X188754Y539526D01*
X196646Y539526D01*
X202226Y533946D01*
X202226Y526054D01*
X196646Y520474D01*
X188754Y520474D01*
G37*
%LPD*%
%LPC*%
G36*
X68754Y520474D02*
X68754Y520474D01*
X63174Y526054D01*
X63174Y533946D01*
X68754Y539526D01*
X76646Y539526D01*
X82226Y533946D01*
X82226Y526054D01*
X76646Y520474D01*
X68754Y520474D01*
G37*
%LPD*%
%LPC*%
G36*
X68754Y280474D02*
X68754Y280474D01*
X63174Y286054D01*
X63174Y293946D01*
X68754Y299526D01*
X76646Y299526D01*
X82226Y293946D01*
X82226Y286054D01*
X76646Y280474D01*
X68754Y280474D01*
G37*
%LPD*%
%LPC*%
G36*
X848419Y28373D02*
X848419Y28373D01*
X848419Y35270D01*
X848669Y36849D01*
X849164Y38370D01*
X849890Y39795D01*
X850830Y41089D01*
X851961Y42220D01*
X853255Y43160D01*
X854680Y43886D01*
X856201Y44381D01*
X857057Y44516D01*
X857057Y28373D01*
X848419Y28373D01*
G37*
%LPD*%
%LPC*%
G36*
X680423Y283423D02*
X680423Y283423D01*
X680423Y297525D01*
X681567Y297297D01*
X683232Y296608D01*
X684730Y295607D01*
X686003Y294334D01*
X687004Y292836D01*
X687693Y291171D01*
X688045Y289405D01*
X688045Y283423D01*
X680423Y283423D01*
G37*
%LPD*%
%LPC*%
G36*
X430393Y78563D02*
X430393Y78563D01*
X430393Y92665D01*
X431537Y92437D01*
X433202Y91748D01*
X434700Y90747D01*
X435973Y89474D01*
X436974Y87976D01*
X437663Y86311D01*
X438015Y84545D01*
X438015Y78563D01*
X430393Y78563D01*
G37*
%LPD*%
%LPC*%
G36*
X858773Y78373D02*
X858773Y78373D01*
X858773Y92475D01*
X859917Y92247D01*
X861582Y91558D01*
X863080Y90557D01*
X864353Y89284D01*
X865354Y87786D01*
X866043Y86121D01*
X866395Y84355D01*
X866395Y78373D01*
X858773Y78373D01*
G37*
%LPD*%
%LPC*%
G36*
X680423Y280377D02*
X680423Y280377D01*
X688045Y280377D01*
X688045Y274395D01*
X687693Y272629D01*
X687004Y270964D01*
X686003Y269466D01*
X684730Y268193D01*
X683232Y267192D01*
X681567Y266503D01*
X680423Y266275D01*
X680423Y280377D01*
G37*
%LPD*%
%LPC*%
G36*
X858773Y75327D02*
X858773Y75327D01*
X866395Y75327D01*
X866395Y69345D01*
X866043Y67579D01*
X865354Y65914D01*
X864353Y64416D01*
X863080Y63143D01*
X861582Y62142D01*
X859917Y61453D01*
X858773Y61225D01*
X858773Y75327D01*
G37*
%LPD*%
%LPC*%
G36*
X669755Y283423D02*
X669755Y283423D01*
X669755Y289405D01*
X670107Y291171D01*
X670796Y292836D01*
X671797Y294334D01*
X673070Y295607D01*
X674568Y296608D01*
X676233Y297297D01*
X677377Y297525D01*
X677377Y283423D01*
X669755Y283423D01*
G37*
%LPD*%
%LPC*%
G36*
X419725Y78563D02*
X419725Y78563D01*
X419725Y84545D01*
X420077Y86311D01*
X420766Y87976D01*
X421767Y89474D01*
X423040Y90747D01*
X424538Y91748D01*
X426203Y92437D01*
X427347Y92665D01*
X427347Y78563D01*
X419725Y78563D01*
G37*
%LPD*%
%LPC*%
G36*
X848105Y78373D02*
X848105Y78373D01*
X848105Y84355D01*
X848457Y86121D01*
X849146Y87786D01*
X850147Y89284D01*
X851420Y90557D01*
X852918Y91558D01*
X854583Y92247D01*
X855727Y92475D01*
X855727Y78373D01*
X848105Y78373D01*
G37*
%LPD*%
%LPC*%
G36*
X676233Y266503D02*
X676233Y266503D01*
X674568Y267192D01*
X673070Y268193D01*
X671797Y269466D01*
X670796Y270964D01*
X670107Y272629D01*
X669755Y274395D01*
X669755Y280377D01*
X677377Y280377D01*
X677377Y266275D01*
X676233Y266503D01*
G37*
%LPD*%
%LPC*%
G36*
X854583Y61453D02*
X854583Y61453D01*
X852918Y62142D01*
X851420Y63143D01*
X850147Y64416D01*
X849146Y65914D01*
X848457Y67579D01*
X848105Y69345D01*
X848105Y75327D01*
X855727Y75327D01*
X855727Y61225D01*
X854583Y61453D01*
G37*
%LPD*%
%LPC*%
G36*
X48823Y531523D02*
X48823Y531523D01*
X48823Y540542D01*
X51667Y540542D01*
X57842Y534367D01*
X57842Y531523D01*
X48823Y531523D01*
G37*
%LPD*%
%LPC*%
G36*
X228823Y531523D02*
X228823Y531523D01*
X228823Y540542D01*
X231667Y540542D01*
X237842Y534367D01*
X237842Y531523D01*
X228823Y531523D01*
G37*
%LPD*%
%LPC*%
G36*
X108823Y531523D02*
X108823Y531523D01*
X108823Y540542D01*
X111667Y540542D01*
X117842Y534367D01*
X117842Y531523D01*
X108823Y531523D01*
G37*
%LPD*%
%LPC*%
G36*
X74223Y471523D02*
X74223Y471523D01*
X74223Y480542D01*
X77067Y480542D01*
X83242Y474367D01*
X83242Y471523D01*
X74223Y471523D01*
G37*
%LPD*%
%LPC*%
G36*
X168823Y531523D02*
X168823Y531523D01*
X168823Y540542D01*
X171667Y540542D01*
X177842Y534367D01*
X177842Y531523D01*
X168823Y531523D01*
G37*
%LPD*%
%LPC*%
G36*
X48823Y291523D02*
X48823Y291523D01*
X48823Y300542D01*
X51667Y300542D01*
X57842Y294367D01*
X57842Y291523D01*
X48823Y291523D01*
G37*
%LPD*%
%LPC*%
G36*
X438823Y341523D02*
X438823Y341523D01*
X438823Y350542D01*
X441667Y350542D01*
X447842Y344367D01*
X447842Y341523D01*
X438823Y341523D01*
G37*
%LPD*%
%LPC*%
G36*
X96758Y531523D02*
X96758Y531523D01*
X96758Y534367D01*
X102933Y540542D01*
X105777Y540542D01*
X105777Y531523D01*
X96758Y531523D01*
G37*
%LPD*%
%LPC*%
G36*
X216758Y531523D02*
X216758Y531523D01*
X216758Y534367D01*
X222933Y540542D01*
X225777Y540542D01*
X225777Y531523D01*
X216758Y531523D01*
G37*
%LPD*%
%LPC*%
G36*
X156758Y531523D02*
X156758Y531523D01*
X156758Y534367D01*
X162933Y540542D01*
X165777Y540542D01*
X165777Y531523D01*
X156758Y531523D01*
G37*
%LPD*%
%LPC*%
G36*
X36758Y531523D02*
X36758Y531523D01*
X36758Y534367D01*
X42933Y540542D01*
X45777Y540542D01*
X45777Y531523D01*
X36758Y531523D01*
G37*
%LPD*%
%LPC*%
G36*
X62158Y471523D02*
X62158Y471523D01*
X62158Y474367D01*
X68333Y480542D01*
X71177Y480542D01*
X71177Y471523D01*
X62158Y471523D01*
G37*
%LPD*%
%LPC*%
G36*
X48823Y279458D02*
X48823Y279458D01*
X48823Y288477D01*
X57842Y288477D01*
X57842Y285633D01*
X51667Y279458D01*
X48823Y279458D01*
G37*
%LPD*%
%LPC*%
G36*
X426758Y341523D02*
X426758Y341523D01*
X426758Y344367D01*
X432933Y350542D01*
X435777Y350542D01*
X435777Y341523D01*
X426758Y341523D01*
G37*
%LPD*%
%LPC*%
G36*
X36758Y291523D02*
X36758Y291523D01*
X36758Y294367D01*
X42933Y300542D01*
X45777Y300542D01*
X45777Y291523D01*
X36758Y291523D01*
G37*
%LPD*%
%LPC*%
G36*
X48823Y519458D02*
X48823Y519458D01*
X48823Y528477D01*
X57842Y528477D01*
X57842Y525633D01*
X51667Y519458D01*
X48823Y519458D01*
G37*
%LPD*%
%LPC*%
G36*
X108823Y519458D02*
X108823Y519458D01*
X108823Y528477D01*
X117842Y528477D01*
X117842Y525633D01*
X111667Y519458D01*
X108823Y519458D01*
G37*
%LPD*%
%LPC*%
G36*
X74223Y459458D02*
X74223Y459458D01*
X74223Y468477D01*
X83242Y468477D01*
X83242Y465633D01*
X77067Y459458D01*
X74223Y459458D01*
G37*
%LPD*%
%LPC*%
G36*
X168823Y519458D02*
X168823Y519458D01*
X168823Y528477D01*
X177842Y528477D01*
X177842Y525633D01*
X171667Y519458D01*
X168823Y519458D01*
G37*
%LPD*%
%LPC*%
G36*
X438823Y259458D02*
X438823Y259458D01*
X438823Y268477D01*
X447842Y268477D01*
X447842Y265633D01*
X441667Y259458D01*
X438823Y259458D01*
G37*
%LPD*%
%LPC*%
G36*
X228823Y519458D02*
X228823Y519458D01*
X228823Y528477D01*
X237842Y528477D01*
X237842Y525633D01*
X231667Y519458D01*
X228823Y519458D01*
G37*
%LPD*%
%LPC*%
G36*
X438823Y329458D02*
X438823Y329458D01*
X438823Y338477D01*
X447842Y338477D01*
X447842Y335633D01*
X441667Y329458D01*
X438823Y329458D01*
G37*
%LPD*%
%LPC*%
G36*
X102933Y519458D02*
X102933Y519458D01*
X96758Y525633D01*
X96758Y528477D01*
X105777Y528477D01*
X105777Y519458D01*
X102933Y519458D01*
G37*
%LPD*%
%LPC*%
G36*
X162933Y519458D02*
X162933Y519458D01*
X156758Y525633D01*
X156758Y528477D01*
X165777Y528477D01*
X165777Y519458D01*
X162933Y519458D01*
G37*
%LPD*%
%LPC*%
G36*
X68333Y459458D02*
X68333Y459458D01*
X62158Y465633D01*
X62158Y468477D01*
X71177Y468477D01*
X71177Y459458D01*
X68333Y459458D01*
G37*
%LPD*%
%LPC*%
G36*
X42933Y279458D02*
X42933Y279458D01*
X36758Y285633D01*
X36758Y288477D01*
X45777Y288477D01*
X45777Y279458D01*
X42933Y279458D01*
G37*
%LPD*%
%LPC*%
G36*
X432933Y329458D02*
X432933Y329458D01*
X426758Y335633D01*
X426758Y338477D01*
X435777Y338477D01*
X435777Y329458D01*
X432933Y329458D01*
G37*
%LPD*%
%LPC*%
G36*
X432933Y259458D02*
X432933Y259458D01*
X426758Y265633D01*
X426758Y268477D01*
X435777Y268477D01*
X435777Y259458D01*
X432933Y259458D01*
G37*
%LPD*%
%LPC*%
G36*
X222933Y519458D02*
X222933Y519458D01*
X216758Y525633D01*
X216758Y528477D01*
X225777Y528477D01*
X225777Y519458D01*
X222933Y519458D01*
G37*
%LPD*%
%LPC*%
G36*
X42933Y519458D02*
X42933Y519458D01*
X36758Y525633D01*
X36758Y528477D01*
X45777Y528477D01*
X45777Y519458D01*
X42933Y519458D01*
G37*
%LPD*%
%LPC*%
G36*
X47299Y529999D02*
X47299Y529999D01*
X47299Y530001D01*
X47301Y530001D01*
X47301Y529999D01*
X47299Y529999D01*
G37*
%LPD*%
%LPC*%
G36*
X167299Y529999D02*
X167299Y529999D01*
X167299Y530001D01*
X167301Y530001D01*
X167301Y529999D01*
X167299Y529999D01*
G37*
%LPD*%
%LPC*%
G36*
X107299Y529999D02*
X107299Y529999D01*
X107299Y530001D01*
X107301Y530001D01*
X107301Y529999D01*
X107299Y529999D01*
G37*
%LPD*%
%LPC*%
G36*
X72699Y469999D02*
X72699Y469999D01*
X72699Y470001D01*
X72701Y470001D01*
X72701Y469999D01*
X72699Y469999D01*
G37*
%LPD*%
%LPC*%
G36*
X47299Y289999D02*
X47299Y289999D01*
X47299Y290001D01*
X47301Y290001D01*
X47301Y289999D01*
X47299Y289999D01*
G37*
%LPD*%
%LPC*%
G36*
X437299Y339999D02*
X437299Y339999D01*
X437299Y340001D01*
X437301Y340001D01*
X437301Y339999D01*
X437299Y339999D01*
G37*
%LPD*%
%LPC*%
G36*
X678899Y281899D02*
X678899Y281899D01*
X678899Y281901D01*
X678901Y281901D01*
X678901Y281899D01*
X678899Y281899D01*
G37*
%LPD*%
%LPC*%
G36*
X857249Y76849D02*
X857249Y76849D01*
X857249Y76851D01*
X857251Y76851D01*
X857251Y76849D01*
X857249Y76849D01*
G37*
%LPD*%
%LPC*%
G36*
X227299Y529999D02*
X227299Y529999D01*
X227299Y530001D01*
X227301Y530001D01*
X227301Y529999D01*
X227299Y529999D01*
G37*
%LPD*%
D10*
X730000Y390000D03*
X300000Y390000D03*
X300000Y590000D03*
X300000Y790000D03*
X150000Y790000D03*
D11*
X528270Y184240D02*
X528270Y169000D01*
X553670Y169000D02*
X553670Y184240D01*
X579070Y184240D02*
X579070Y169000D01*
X604470Y169000D02*
X604470Y184240D01*
X629870Y184240D02*
X629870Y169000D01*
X655270Y169000D02*
X655270Y184240D01*
X680670Y184240D02*
X680670Y169000D01*
X706070Y169000D02*
X706070Y184240D01*
X731470Y184240D02*
X731470Y169000D01*
X756870Y169000D02*
X756870Y184240D01*
X782270Y184240D02*
X782270Y169000D01*
X807670Y169000D02*
X807670Y184240D01*
X833070Y184240D02*
X833070Y169000D01*
X858470Y169000D02*
X858470Y184240D01*
X528380Y34470D02*
X528380Y19230D01*
X553780Y19230D02*
X553780Y34470D01*
X579180Y34470D02*
X579180Y19230D01*
X604580Y19230D02*
X604580Y34470D01*
X629980Y34470D02*
X629980Y19230D01*
X655380Y19230D02*
X655380Y34470D01*
X680780Y34470D02*
X680780Y19230D01*
X706180Y19230D02*
X706180Y34470D01*
X731580Y34470D02*
X731580Y19230D01*
X756980Y19230D02*
X756980Y34470D01*
X782380Y34470D02*
X782380Y19230D01*
X807780Y19230D02*
X807780Y34470D01*
X833180Y34470D02*
X833180Y19230D01*
X858580Y19230D02*
X858580Y34470D01*
D12*
X61540Y778500D02*
X46460Y778500D01*
X46460Y753100D02*
X61540Y753100D01*
X61540Y727700D02*
X46460Y727700D01*
X46460Y702300D02*
X61540Y702300D01*
X61540Y676900D02*
X46460Y676900D01*
D11*
X99050Y184400D02*
X99050Y169160D01*
X124450Y169160D02*
X124450Y184400D01*
X149850Y184400D02*
X149850Y169160D01*
X175250Y169160D02*
X175250Y184400D01*
X200650Y184400D02*
X200650Y169160D01*
X226050Y169160D02*
X226050Y184400D01*
X251450Y184400D02*
X251450Y169160D01*
X276850Y169160D02*
X276850Y184400D01*
X302250Y184400D02*
X302250Y169160D01*
X327650Y169160D02*
X327650Y184400D01*
X353050Y184400D02*
X353050Y169160D01*
X378450Y169160D02*
X378450Y184400D01*
X403850Y184400D02*
X403850Y169160D01*
X429250Y169160D02*
X429250Y184400D01*
X98510Y34450D02*
X98510Y19210D01*
X123910Y19210D02*
X123910Y34450D01*
X149310Y34450D02*
X149310Y19210D01*
X174710Y19210D02*
X174710Y34450D01*
X200110Y34450D02*
X200110Y19210D01*
X225510Y19210D02*
X225510Y34450D01*
X250910Y34450D02*
X250910Y19210D01*
X276310Y19210D02*
X276310Y34450D01*
X301710Y34450D02*
X301710Y19210D01*
X327110Y19210D02*
X327110Y34450D01*
X352510Y34450D02*
X352510Y19210D01*
X377910Y19210D02*
X377910Y34450D01*
X403310Y34450D02*
X403310Y19210D01*
X428710Y19210D02*
X428710Y34450D01*
D13*
X59800Y618896D02*
X59800Y632104D01*
X85200Y632104D02*
X85200Y618896D01*
X110600Y618896D02*
X110600Y632104D01*
X136000Y632104D02*
X136000Y618896D01*
X161400Y618896D02*
X161400Y632104D01*
X186800Y632104D02*
X186800Y618896D01*
X212200Y618896D02*
X212200Y632104D01*
X237600Y632104D02*
X237600Y618896D01*
X61200Y582104D02*
X61200Y568896D01*
X86600Y568896D02*
X86600Y582104D01*
X112000Y582104D02*
X112000Y568896D01*
X137400Y568896D02*
X137400Y582104D01*
X162800Y582104D02*
X162800Y568896D01*
X188200Y568896D02*
X188200Y582104D01*
X213600Y582104D02*
X213600Y568896D01*
X239000Y568896D02*
X239000Y582104D01*
X143300Y674096D02*
X143300Y687304D01*
X168700Y687304D02*
X168700Y674096D01*
X194100Y674096D02*
X194100Y687304D01*
X219500Y687304D02*
X219500Y674096D01*
X244900Y674096D02*
X244900Y687304D01*
X244900Y750296D02*
X244900Y763504D01*
X219500Y763504D02*
X219500Y750296D01*
X194100Y750296D02*
X194100Y763504D01*
X168700Y763504D02*
X168700Y750296D01*
X143300Y750296D02*
X143300Y763504D01*
X47870Y83644D02*
X47870Y70436D01*
X73270Y70436D02*
X73270Y83644D01*
X200270Y83644D02*
X200270Y70436D01*
X225670Y70436D02*
X225670Y83644D01*
X98670Y83644D02*
X98670Y70436D01*
X124070Y70436D02*
X124070Y83644D01*
X174870Y83644D02*
X174870Y70436D01*
X149470Y70436D02*
X149470Y83644D01*
X251070Y83644D02*
X251070Y70436D01*
X276470Y70436D02*
X276470Y83644D01*
X301870Y83644D02*
X301870Y70436D01*
X327270Y70436D02*
X327270Y83644D01*
X352670Y83644D02*
X352670Y70436D01*
X378070Y70436D02*
X378070Y83644D01*
X403470Y83644D02*
X403470Y70436D01*
X428870Y70436D02*
X428870Y83644D01*
X428870Y222836D02*
X428870Y236044D01*
X403470Y236044D02*
X403470Y222836D01*
X378070Y222836D02*
X378070Y236044D01*
X352670Y236044D02*
X352670Y222836D01*
X327270Y222836D02*
X327270Y236044D01*
X301870Y236044D02*
X301870Y222836D01*
X276470Y222836D02*
X276470Y236044D01*
X251070Y236044D02*
X251070Y222836D01*
X225670Y222836D02*
X225670Y236044D01*
X200270Y236044D02*
X200270Y222836D01*
X174870Y222836D02*
X174870Y236044D01*
X149470Y236044D02*
X149470Y222836D01*
X124070Y222836D02*
X124070Y236044D01*
X98670Y236044D02*
X98670Y222836D01*
X73270Y222836D02*
X73270Y236044D01*
X47870Y236044D02*
X47870Y222836D01*
X51100Y335296D02*
X51100Y348504D01*
X76500Y348504D02*
X76500Y335296D01*
X203500Y335296D02*
X203500Y348504D01*
X228900Y348504D02*
X228900Y335296D01*
X101900Y335296D02*
X101900Y348504D01*
X127300Y348504D02*
X127300Y335296D01*
X178100Y335296D02*
X178100Y348504D01*
X152700Y348504D02*
X152700Y335296D01*
X228900Y411496D02*
X228900Y424704D01*
X203500Y424704D02*
X203500Y411496D01*
X178100Y411496D02*
X178100Y424704D01*
X152700Y424704D02*
X152700Y411496D01*
X127300Y411496D02*
X127300Y424704D01*
X101900Y424704D02*
X101900Y411496D01*
X76500Y411496D02*
X76500Y424704D01*
X51100Y424704D02*
X51100Y411496D01*
X476250Y83454D02*
X476250Y70246D01*
X501650Y70246D02*
X501650Y83454D01*
X628650Y83454D02*
X628650Y70246D01*
X654050Y70246D02*
X654050Y83454D01*
X527050Y83454D02*
X527050Y70246D01*
X552450Y70246D02*
X552450Y83454D01*
X603250Y83454D02*
X603250Y70246D01*
X577850Y70246D02*
X577850Y83454D01*
X679450Y83454D02*
X679450Y70246D01*
X704850Y70246D02*
X704850Y83454D01*
X730250Y83454D02*
X730250Y70246D01*
X755650Y70246D02*
X755650Y83454D01*
X781050Y83454D02*
X781050Y70246D01*
X806450Y70246D02*
X806450Y83454D01*
X831850Y83454D02*
X831850Y70246D01*
X857250Y70246D02*
X857250Y83454D01*
X857250Y222646D02*
X857250Y235854D01*
X831850Y235854D02*
X831850Y222646D01*
X806450Y222646D02*
X806450Y235854D01*
X781050Y235854D02*
X781050Y222646D01*
X755650Y222646D02*
X755650Y235854D01*
X730250Y235854D02*
X730250Y222646D01*
X704850Y222646D02*
X704850Y235854D01*
X679450Y235854D02*
X679450Y222646D01*
X654050Y222646D02*
X654050Y235854D01*
X628650Y235854D02*
X628650Y222646D01*
X603250Y222646D02*
X603250Y235854D01*
X577850Y235854D02*
X577850Y222646D01*
X552450Y222646D02*
X552450Y235854D01*
X527050Y235854D02*
X527050Y222646D01*
X501650Y222646D02*
X501650Y235854D01*
X476250Y235854D02*
X476250Y222646D01*
X501100Y275296D02*
X501100Y288504D01*
X526500Y288504D02*
X526500Y275296D01*
X653500Y275296D02*
X653500Y288504D01*
X678900Y288504D02*
X678900Y275296D01*
X551900Y275296D02*
X551900Y288504D01*
X577300Y288504D02*
X577300Y275296D01*
X628100Y275296D02*
X628100Y288504D01*
X602700Y288504D02*
X602700Y275296D01*
X678900Y351496D02*
X678900Y364704D01*
X653500Y364704D02*
X653500Y351496D01*
X628100Y351496D02*
X628100Y364704D01*
X602700Y364704D02*
X602700Y351496D01*
X577300Y351496D02*
X577300Y364704D01*
X551900Y364704D02*
X551900Y351496D01*
X526500Y351496D02*
X526500Y364704D01*
X501100Y364704D02*
X501100Y351496D01*
D14*
X462700Y340000D03*
X437300Y340000D03*
X462700Y270000D03*
X437300Y270000D03*
D15*
X47300Y470000D03*
X72700Y470000D03*
D14*
X72700Y290000D03*
X47300Y290000D03*
D15*
X227300Y530000D03*
X252700Y530000D03*
X167300Y530000D03*
X192700Y530000D03*
X107300Y530000D03*
X132700Y530000D03*
X47300Y530000D03*
X72700Y530000D03*
D16*
X130000Y360414D03*
D17*
X138842Y218434D02*
X145068Y212208D01*
X131282Y359132D02*
X130000Y360414D01*
X131282Y359132D02*
X131702Y359132D01*
X145068Y212208D02*
X167792Y212208D01*
X138842Y351992D02*
X131702Y359132D01*
X138842Y351992D02*
X138842Y218434D01*
X300937Y176780D02*
X302250Y176780D01*
X300937Y176780D02*
X281673Y196044D01*
X183956Y196044D01*
X167792Y212208D01*
D18*
X240000Y430000D02*
X185000Y485000D01*
X240000Y430000D02*
X240000Y370000D01*
X260000Y370000D01*
D16*
X185000Y485000D03*
X260000Y370000D03*
D17*
X228900Y308870D02*
X149470Y229440D01*
X218272Y330894D02*
X218272Y352906D01*
X228900Y320266D02*
X228900Y308870D01*
X228900Y363534D02*
X228900Y418100D01*
X218272Y330894D02*
X228900Y320266D01*
X218272Y352906D02*
X228900Y363534D01*
D16*
X250000Y380000D03*
D17*
X250000Y527300D01*
X252700Y530000D01*
D16*
X450000Y80000D03*
D17*
X221268Y59808D02*
X215042Y66034D01*
X433272Y59808D02*
X439498Y66034D01*
X102436Y77040D02*
X98670Y77040D01*
X439498Y69498D02*
X439498Y66034D01*
X119668Y94272D02*
X102436Y77040D01*
X204672Y94272D02*
X215042Y83902D01*
X215042Y66034D01*
X204672Y94272D02*
X119668Y94272D01*
X221268Y59808D02*
X433272Y59808D01*
X439498Y69498D02*
X450000Y80000D01*
D16*
X450000Y210000D03*
D17*
X550000Y210000D01*
X552450Y212450D01*
X552450Y229250D01*
X527050Y76850D02*
X500200Y50000D01*
X90000Y50000D01*
X73270Y66730D01*
X73270Y77040D01*
X120520Y124290D01*
D16*
X120520Y500520D03*
D17*
X120520Y470785D01*
X120520Y156623D02*
X120520Y124290D01*
X120520Y156623D02*
X112806Y164337D01*
X112806Y193670D01*
X88042Y218434D01*
X88042Y438308D01*
X120520Y470785D01*
X132700Y473739D02*
X132700Y530000D01*
X116672Y247442D02*
X98670Y229440D01*
X116672Y457711D02*
X132700Y473739D01*
X116672Y457711D02*
X116672Y247442D01*
X98670Y229440D02*
X132066Y196044D01*
X154673Y196044D01*
X163606Y187111D01*
X163606Y164337D01*
X227943Y100000D01*
X480000Y100000D01*
X501650Y78350D01*
X501650Y76850D01*
X152700Y457300D02*
X140000Y470000D01*
D16*
X140000Y470000D03*
D17*
X142072Y429106D02*
X142072Y407094D01*
X152700Y396466D02*
X152700Y341900D01*
X152700Y439734D02*
X152700Y457300D01*
X142072Y407094D02*
X152700Y396466D01*
X142072Y429106D02*
X152700Y439734D01*
D18*
X260000Y360000D02*
X270000Y370000D01*
X260000Y360000D02*
X240000Y360000D01*
D16*
X270000Y370000D03*
X240000Y360000D03*
D17*
X160962Y600538D02*
X136000Y625500D01*
X160962Y600538D02*
X200000Y600538D01*
D16*
X200000Y600538D03*
D17*
X143368Y592732D02*
X110600Y625500D01*
X235234Y575500D02*
X239000Y575500D01*
X235234Y575500D02*
X218002Y592732D01*
X143368Y592732D01*
D16*
X270000Y470000D03*
D17*
X307340Y432660D01*
X307340Y404756D01*
X467681Y282025D02*
X467806Y281900D01*
X501100Y281900D01*
X430071Y282025D02*
X307340Y404756D01*
X430071Y282025D02*
X467681Y282025D01*
M02*
