M48
;GenerationSoftware,Autodesk,EAGLE,9.3.0*%
;CreationDate,2019-02-03T00:40:51Z*%
FMAT,2
ICI,OFF
METRIC,TZ,000.000
T4C0.350
T3C0.813
T2C1.000
T1C1.016
%
G90
M71
T1
X78227Y17662
X14931Y2683
X17471Y2683
X20011Y2683
X22551Y2683
X25091Y2683
X27631Y2683
X30171Y2683
X32711Y2683
X35251Y2683
X37791Y2683
X40331Y2683
X73000Y39000
X30000Y39000
X30000Y59000
X30000Y79000
X15000Y79000
X52827Y17662
X55367Y17662
X57907Y17662
X60447Y17662
X62987Y17662
X65527Y17662
X68067Y17662
X70607Y17662
X73147Y17662
X75687Y17662
X20065Y17678
X80767Y17662
X83307Y17662
X85847Y17662
X52838Y2685
X55378Y2685
X57918Y2685
X60458Y2685
X62998Y2685
X65538Y2685
X68078Y2685
X70618Y2685
X73158Y2685
X75698Y2685
X78238Y2685
X80778Y2685
X83318Y2685
X85858Y2685
X27685Y17678
X9905Y17678
X12445Y17678
X14985Y17678
X17525Y17678
X42871Y2683
X22605Y17678
X25145Y17678
X12391Y2683
X30225Y17678
X32765Y17678
X35305Y17678
X37845Y17678
X40385Y17678
X42925Y17678
X9851Y2683
T2
X5400Y77850
X5400Y75310
X5400Y72770
X5400Y70230
X5400Y67690
T3
X4730Y47000
X7270Y47000
X7270Y29000
X4730Y29000
X22730Y53000
X25270Y53000
X16730Y53000
X19270Y53000
X10730Y53000
X13270Y53000
X4730Y53000
X7270Y53000
X5980Y62550
X8520Y62550
X11060Y62550
X13600Y62550
X16140Y62550
X18680Y62550
X21220Y62550
X23760Y62550
X6120Y57550
X8660Y57550
X11200Y57550
X13740Y57550
X16280Y57550
X18820Y57550
X21360Y57550
X23900Y57550
X14330Y68070
X16870Y68070
X19410Y68070
X21950Y68070
X24490Y68070
X24490Y75690
X21950Y75690
X19410Y75690
X16870Y75690
X14330Y75690
X4787Y7704
X7327Y7704
X20027Y7704
X22567Y7704
X9867Y7704
X12407Y7704
X17487Y7704
X14947Y7704
X25107Y7704
X27647Y7704
X30187Y7704
X32727Y7704
X35267Y7704
X37807Y7704
X40347Y7704
X42887Y7704
X42887Y22944
X40347Y22944
X37807Y22944
X35267Y22944
X32727Y22944
X30187Y22944
X27647Y22944
X25107Y22944
X22567Y22944
X20027Y22944
X17487Y22944
X14947Y22944
X12407Y22944
X9867Y22944
X7327Y22944
X4787Y22944
X5110Y34190
X7650Y34190
X20350Y34190
X22890Y34190
X10190Y34190
X12730Y34190
X17810Y34190
X15270Y34190
X22890Y41810
X20350Y41810
X17810Y41810
X15270Y41810
X12730Y41810
X10190Y41810
X7650Y41810
X5110Y41810
X47625Y7685
X50165Y7685
X62865Y7685
X65405Y7685
X52705Y7685
X55245Y7685
X60325Y7685
X57785Y7685
X67945Y7685
X70485Y7685
X73025Y7685
X75565Y7685
X78105Y7685
X80645Y7685
X83185Y7685
X85725Y7685
X85725Y22925
X83185Y22925
X80645Y22925
X78105Y22925
X75565Y22925
X73025Y22925
X70485Y22925
X67945Y22925
X65405Y22925
X62865Y22925
X60325Y22925
X57785Y22925
X55245Y22925
X52705Y22925
X50165Y22925
X47625Y22925
X50110Y28190
X52650Y28190
X65350Y28190
X67890Y28190
X55190Y28190
X57730Y28190
X62810Y28190
X60270Y28190
X67890Y35810
X65350Y35810
X62810Y35810
X60270Y35810
X57730Y35810
X55190Y35810
X52650Y35810
X50110Y35810
X46270Y34000
X43730Y34000
X46270Y27000
X43730Y27000
T4
X18500Y48500
X26000Y37000
X25000Y38000
X45000Y8000
X45000Y21000
X12052Y50052
X14000Y47000
X27000Y37000
X24000Y36000
X20000Y60054
X27000Y47000
X13000Y36041
M30