G04 EAGLE Gerber RS-274X export*
G75*
%MOMM*%
%FSLAX34Y34*%
%LPD*%
%INSilkscreen Bottom*%
%IPPOS*%
%AMOC8*
5,1,8,0,0,1.08239X$1,22.5*%
G01*
%ADD10C,0.127000*%


D10*
X500363Y176973D02*
X500363Y168083D01*
X500365Y167983D01*
X500371Y167884D01*
X500381Y167784D01*
X500394Y167686D01*
X500412Y167587D01*
X500433Y167490D01*
X500458Y167394D01*
X500487Y167298D01*
X500520Y167204D01*
X500556Y167111D01*
X500596Y167020D01*
X500640Y166930D01*
X500687Y166842D01*
X500737Y166756D01*
X500791Y166672D01*
X500848Y166590D01*
X500908Y166511D01*
X500972Y166433D01*
X501038Y166359D01*
X501107Y166287D01*
X501179Y166218D01*
X501253Y166152D01*
X501331Y166088D01*
X501410Y166028D01*
X501492Y165971D01*
X501576Y165917D01*
X501662Y165867D01*
X501750Y165820D01*
X501840Y165776D01*
X501931Y165736D01*
X502024Y165700D01*
X502118Y165667D01*
X502214Y165638D01*
X502310Y165613D01*
X502407Y165592D01*
X502506Y165574D01*
X502604Y165561D01*
X502704Y165551D01*
X502803Y165545D01*
X502903Y165543D01*
X504173Y165543D01*
X494954Y165543D02*
X491779Y165543D01*
X491668Y165545D01*
X491558Y165551D01*
X491447Y165560D01*
X491337Y165574D01*
X491228Y165591D01*
X491119Y165612D01*
X491011Y165637D01*
X490904Y165666D01*
X490798Y165698D01*
X490693Y165734D01*
X490590Y165774D01*
X490488Y165817D01*
X490387Y165864D01*
X490288Y165915D01*
X490192Y165968D01*
X490097Y166025D01*
X490004Y166086D01*
X489913Y166149D01*
X489824Y166216D01*
X489738Y166286D01*
X489655Y166359D01*
X489573Y166434D01*
X489495Y166512D01*
X489420Y166594D01*
X489347Y166677D01*
X489277Y166763D01*
X489210Y166852D01*
X489147Y166943D01*
X489086Y167036D01*
X489029Y167131D01*
X488976Y167227D01*
X488925Y167326D01*
X488878Y167427D01*
X488835Y167529D01*
X488795Y167632D01*
X488759Y167737D01*
X488727Y167843D01*
X488698Y167950D01*
X488673Y168058D01*
X488652Y168167D01*
X488635Y168276D01*
X488621Y168386D01*
X488612Y168497D01*
X488606Y168607D01*
X488604Y168718D01*
X488606Y168829D01*
X488612Y168939D01*
X488621Y169050D01*
X488635Y169160D01*
X488652Y169269D01*
X488673Y169378D01*
X488698Y169486D01*
X488727Y169593D01*
X488759Y169699D01*
X488795Y169804D01*
X488835Y169907D01*
X488878Y170009D01*
X488925Y170110D01*
X488976Y170209D01*
X489029Y170306D01*
X489086Y170400D01*
X489147Y170493D01*
X489210Y170584D01*
X489277Y170673D01*
X489347Y170759D01*
X489420Y170842D01*
X489495Y170924D01*
X489573Y171002D01*
X489655Y171077D01*
X489738Y171150D01*
X489824Y171220D01*
X489913Y171287D01*
X490004Y171350D01*
X490097Y171411D01*
X490192Y171468D01*
X490288Y171521D01*
X490387Y171572D01*
X490488Y171619D01*
X490590Y171662D01*
X490693Y171702D01*
X490798Y171738D01*
X490904Y171770D01*
X491011Y171799D01*
X491119Y171824D01*
X491228Y171845D01*
X491337Y171862D01*
X491447Y171876D01*
X491558Y171885D01*
X491668Y171891D01*
X491779Y171893D01*
X491144Y176973D02*
X494954Y176973D01*
X491144Y176973D02*
X491044Y176971D01*
X490945Y176965D01*
X490845Y176955D01*
X490747Y176942D01*
X490648Y176924D01*
X490551Y176903D01*
X490455Y176878D01*
X490359Y176849D01*
X490265Y176816D01*
X490172Y176780D01*
X490081Y176740D01*
X489991Y176696D01*
X489903Y176649D01*
X489817Y176599D01*
X489733Y176545D01*
X489651Y176488D01*
X489572Y176428D01*
X489494Y176364D01*
X489420Y176298D01*
X489348Y176229D01*
X489279Y176157D01*
X489213Y176083D01*
X489149Y176005D01*
X489089Y175926D01*
X489032Y175844D01*
X488978Y175760D01*
X488928Y175674D01*
X488881Y175586D01*
X488837Y175496D01*
X488797Y175405D01*
X488761Y175312D01*
X488728Y175218D01*
X488699Y175122D01*
X488674Y175026D01*
X488653Y174929D01*
X488635Y174830D01*
X488622Y174732D01*
X488612Y174632D01*
X488606Y174533D01*
X488604Y174433D01*
X488606Y174333D01*
X488612Y174234D01*
X488622Y174134D01*
X488635Y174036D01*
X488653Y173937D01*
X488674Y173840D01*
X488699Y173744D01*
X488728Y173648D01*
X488761Y173554D01*
X488797Y173461D01*
X488837Y173370D01*
X488881Y173280D01*
X488928Y173192D01*
X488978Y173106D01*
X489032Y173022D01*
X489089Y172940D01*
X489149Y172861D01*
X489213Y172783D01*
X489279Y172709D01*
X489348Y172637D01*
X489420Y172568D01*
X489494Y172502D01*
X489572Y172438D01*
X489651Y172378D01*
X489733Y172321D01*
X489817Y172267D01*
X489903Y172217D01*
X489991Y172170D01*
X490081Y172126D01*
X490172Y172086D01*
X490265Y172050D01*
X490359Y172017D01*
X490455Y171988D01*
X490551Y171963D01*
X490648Y171942D01*
X490747Y171924D01*
X490845Y171911D01*
X490945Y171901D01*
X491044Y171895D01*
X491144Y171893D01*
X493684Y171893D01*
X510473Y37203D02*
X510473Y28313D01*
X510475Y28213D01*
X510481Y28114D01*
X510491Y28014D01*
X510504Y27916D01*
X510522Y27817D01*
X510543Y27720D01*
X510568Y27624D01*
X510597Y27528D01*
X510630Y27434D01*
X510666Y27341D01*
X510706Y27250D01*
X510750Y27160D01*
X510797Y27072D01*
X510847Y26986D01*
X510901Y26902D01*
X510958Y26820D01*
X511018Y26741D01*
X511082Y26663D01*
X511148Y26589D01*
X511217Y26517D01*
X511289Y26448D01*
X511363Y26382D01*
X511441Y26318D01*
X511520Y26258D01*
X511602Y26201D01*
X511686Y26147D01*
X511772Y26097D01*
X511860Y26050D01*
X511950Y26006D01*
X512041Y25966D01*
X512134Y25930D01*
X512228Y25897D01*
X512324Y25868D01*
X512420Y25843D01*
X512517Y25822D01*
X512616Y25804D01*
X512714Y25791D01*
X512814Y25781D01*
X512913Y25775D01*
X513013Y25773D01*
X514283Y25773D01*
X505064Y28313D02*
X502524Y37203D01*
X505064Y28313D02*
X498714Y28313D01*
X500619Y30853D02*
X500619Y25773D01*
X81143Y178243D02*
X81143Y187133D01*
X81143Y178243D02*
X81145Y178143D01*
X81151Y178044D01*
X81161Y177944D01*
X81174Y177846D01*
X81192Y177747D01*
X81213Y177650D01*
X81238Y177554D01*
X81267Y177458D01*
X81300Y177364D01*
X81336Y177271D01*
X81376Y177180D01*
X81420Y177090D01*
X81467Y177002D01*
X81517Y176916D01*
X81571Y176832D01*
X81628Y176750D01*
X81688Y176671D01*
X81752Y176593D01*
X81818Y176519D01*
X81887Y176447D01*
X81959Y176378D01*
X82033Y176312D01*
X82111Y176248D01*
X82190Y176188D01*
X82272Y176131D01*
X82356Y176077D01*
X82442Y176027D01*
X82530Y175980D01*
X82620Y175936D01*
X82711Y175896D01*
X82804Y175860D01*
X82898Y175827D01*
X82994Y175798D01*
X83090Y175773D01*
X83187Y175752D01*
X83286Y175734D01*
X83384Y175721D01*
X83484Y175711D01*
X83583Y175705D01*
X83683Y175703D01*
X84953Y175703D01*
X75163Y175703D02*
X75163Y187133D01*
X71988Y187133D01*
X71877Y187131D01*
X71767Y187125D01*
X71656Y187116D01*
X71546Y187102D01*
X71437Y187085D01*
X71328Y187064D01*
X71220Y187039D01*
X71113Y187010D01*
X71007Y186978D01*
X70902Y186942D01*
X70799Y186902D01*
X70697Y186859D01*
X70596Y186812D01*
X70497Y186761D01*
X70401Y186708D01*
X70306Y186651D01*
X70213Y186590D01*
X70122Y186527D01*
X70033Y186460D01*
X69947Y186390D01*
X69864Y186317D01*
X69782Y186242D01*
X69704Y186164D01*
X69629Y186082D01*
X69556Y185999D01*
X69486Y185913D01*
X69419Y185824D01*
X69356Y185733D01*
X69295Y185640D01*
X69238Y185546D01*
X69185Y185449D01*
X69134Y185350D01*
X69087Y185249D01*
X69044Y185147D01*
X69004Y185044D01*
X68968Y184939D01*
X68936Y184833D01*
X68907Y184726D01*
X68882Y184618D01*
X68861Y184509D01*
X68844Y184400D01*
X68830Y184290D01*
X68821Y184179D01*
X68815Y184069D01*
X68813Y183958D01*
X68815Y183847D01*
X68821Y183737D01*
X68830Y183626D01*
X68844Y183516D01*
X68861Y183407D01*
X68882Y183298D01*
X68907Y183190D01*
X68936Y183083D01*
X68968Y182977D01*
X69004Y182872D01*
X69044Y182769D01*
X69087Y182667D01*
X69134Y182566D01*
X69185Y182467D01*
X69238Y182371D01*
X69295Y182276D01*
X69356Y182183D01*
X69419Y182092D01*
X69486Y182003D01*
X69556Y181917D01*
X69629Y181834D01*
X69704Y181752D01*
X69782Y181674D01*
X69864Y181599D01*
X69947Y181526D01*
X70033Y181456D01*
X70122Y181389D01*
X70213Y181326D01*
X70306Y181265D01*
X70401Y181208D01*
X70497Y181155D01*
X70596Y181104D01*
X70697Y181057D01*
X70799Y181014D01*
X70902Y180974D01*
X71007Y180938D01*
X71113Y180906D01*
X71220Y180877D01*
X71328Y180852D01*
X71437Y180831D01*
X71546Y180814D01*
X71656Y180800D01*
X71767Y180791D01*
X71877Y180785D01*
X71988Y180783D01*
X75163Y180783D01*
X64304Y184593D02*
X61129Y187133D01*
X61129Y175703D01*
X64304Y175703D02*
X57954Y175703D01*
X80603Y37183D02*
X80603Y28293D01*
X80605Y28193D01*
X80611Y28094D01*
X80621Y27994D01*
X80634Y27896D01*
X80652Y27797D01*
X80673Y27700D01*
X80698Y27604D01*
X80727Y27508D01*
X80760Y27414D01*
X80796Y27321D01*
X80836Y27230D01*
X80880Y27140D01*
X80927Y27052D01*
X80977Y26966D01*
X81031Y26882D01*
X81088Y26800D01*
X81148Y26721D01*
X81212Y26643D01*
X81278Y26569D01*
X81347Y26497D01*
X81419Y26428D01*
X81493Y26362D01*
X81571Y26298D01*
X81650Y26238D01*
X81732Y26181D01*
X81816Y26127D01*
X81902Y26077D01*
X81990Y26030D01*
X82080Y25986D01*
X82171Y25946D01*
X82264Y25910D01*
X82358Y25877D01*
X82454Y25848D01*
X82550Y25823D01*
X82647Y25802D01*
X82746Y25784D01*
X82844Y25771D01*
X82944Y25761D01*
X83043Y25755D01*
X83143Y25753D01*
X84413Y25753D01*
X74623Y25753D02*
X74623Y37183D01*
X71448Y37183D01*
X71337Y37181D01*
X71227Y37175D01*
X71116Y37166D01*
X71006Y37152D01*
X70897Y37135D01*
X70788Y37114D01*
X70680Y37089D01*
X70573Y37060D01*
X70467Y37028D01*
X70362Y36992D01*
X70259Y36952D01*
X70157Y36909D01*
X70056Y36862D01*
X69957Y36811D01*
X69861Y36758D01*
X69766Y36701D01*
X69673Y36640D01*
X69582Y36577D01*
X69493Y36510D01*
X69407Y36440D01*
X69324Y36367D01*
X69242Y36292D01*
X69164Y36214D01*
X69089Y36132D01*
X69016Y36049D01*
X68946Y35963D01*
X68879Y35874D01*
X68816Y35783D01*
X68755Y35690D01*
X68698Y35595D01*
X68645Y35499D01*
X68594Y35400D01*
X68547Y35299D01*
X68504Y35197D01*
X68464Y35094D01*
X68428Y34989D01*
X68396Y34883D01*
X68367Y34776D01*
X68342Y34668D01*
X68321Y34559D01*
X68304Y34450D01*
X68290Y34340D01*
X68281Y34229D01*
X68275Y34119D01*
X68273Y34008D01*
X68275Y33897D01*
X68281Y33787D01*
X68290Y33676D01*
X68304Y33566D01*
X68321Y33457D01*
X68342Y33348D01*
X68367Y33240D01*
X68396Y33133D01*
X68428Y33027D01*
X68464Y32922D01*
X68504Y32819D01*
X68547Y32717D01*
X68594Y32616D01*
X68645Y32517D01*
X68698Y32420D01*
X68755Y32326D01*
X68816Y32233D01*
X68879Y32142D01*
X68946Y32053D01*
X69016Y31967D01*
X69089Y31884D01*
X69164Y31802D01*
X69242Y31724D01*
X69324Y31649D01*
X69407Y31576D01*
X69493Y31506D01*
X69582Y31439D01*
X69673Y31376D01*
X69766Y31315D01*
X69861Y31258D01*
X69957Y31205D01*
X70056Y31154D01*
X70157Y31107D01*
X70259Y31064D01*
X70362Y31024D01*
X70467Y30988D01*
X70573Y30956D01*
X70680Y30927D01*
X70788Y30902D01*
X70897Y30881D01*
X71006Y30864D01*
X71116Y30850D01*
X71227Y30841D01*
X71337Y30835D01*
X71448Y30833D01*
X74623Y30833D01*
X60272Y37184D02*
X60168Y37182D01*
X60063Y37176D01*
X59959Y37167D01*
X59856Y37154D01*
X59753Y37136D01*
X59651Y37116D01*
X59549Y37091D01*
X59449Y37063D01*
X59349Y37031D01*
X59251Y36995D01*
X59154Y36956D01*
X59059Y36914D01*
X58965Y36868D01*
X58873Y36818D01*
X58783Y36766D01*
X58695Y36710D01*
X58609Y36650D01*
X58525Y36588D01*
X58444Y36523D01*
X58365Y36455D01*
X58288Y36383D01*
X58215Y36310D01*
X58143Y36233D01*
X58075Y36154D01*
X58010Y36073D01*
X57948Y35989D01*
X57888Y35903D01*
X57832Y35815D01*
X57780Y35725D01*
X57730Y35633D01*
X57684Y35539D01*
X57642Y35444D01*
X57603Y35347D01*
X57567Y35249D01*
X57535Y35149D01*
X57507Y35049D01*
X57482Y34947D01*
X57462Y34845D01*
X57444Y34742D01*
X57431Y34639D01*
X57422Y34535D01*
X57416Y34430D01*
X57414Y34326D01*
X60272Y37183D02*
X60390Y37181D01*
X60509Y37175D01*
X60627Y37166D01*
X60744Y37153D01*
X60861Y37135D01*
X60978Y37115D01*
X61094Y37090D01*
X61209Y37062D01*
X61322Y37029D01*
X61435Y36994D01*
X61547Y36954D01*
X61657Y36912D01*
X61766Y36865D01*
X61874Y36815D01*
X61979Y36762D01*
X62083Y36705D01*
X62185Y36645D01*
X62285Y36582D01*
X62383Y36515D01*
X62479Y36446D01*
X62572Y36373D01*
X62663Y36297D01*
X62752Y36219D01*
X62838Y36137D01*
X62921Y36053D01*
X63002Y35967D01*
X63079Y35877D01*
X63154Y35786D01*
X63226Y35692D01*
X63295Y35595D01*
X63360Y35497D01*
X63423Y35396D01*
X63482Y35293D01*
X63538Y35189D01*
X63590Y35083D01*
X63639Y34975D01*
X63684Y34866D01*
X63726Y34755D01*
X63764Y34643D01*
X58366Y32104D02*
X58290Y32179D01*
X58215Y32258D01*
X58144Y32339D01*
X58075Y32423D01*
X58010Y32509D01*
X57948Y32597D01*
X57888Y32687D01*
X57832Y32779D01*
X57779Y32874D01*
X57730Y32970D01*
X57684Y33068D01*
X57641Y33167D01*
X57602Y33268D01*
X57567Y33370D01*
X57535Y33473D01*
X57507Y33577D01*
X57482Y33682D01*
X57461Y33789D01*
X57444Y33895D01*
X57431Y34002D01*
X57422Y34110D01*
X57416Y34218D01*
X57414Y34326D01*
X58367Y32103D02*
X63764Y25753D01*
X57414Y25753D01*
M02*
