G04 EAGLE Gerber RS-274X export*
G75*
%MOMM*%
%FSLAX34Y34*%
%LPD*%
%INSoldermask Top*%
%IPPOS*%
%AMOC8*
5,1,8,0,0,1.08239X$1,22.5*%
G01*
%ADD10R,1.727200X1.727200*%
%ADD11C,1.727200*%
%ADD12C,1.711200*%
%ADD13C,1.524000*%
%ADD14P,1.951982X8X202.500000*%
%ADD15P,1.951982X8X22.500000*%
%ADD16C,0.959600*%


D10*
X730000Y390000D03*
X300000Y390000D03*
X300000Y590000D03*
X300000Y790000D03*
X150000Y790000D03*
D11*
X528270Y184240D02*
X528270Y169000D01*
X553670Y169000D02*
X553670Y184240D01*
X579070Y184240D02*
X579070Y169000D01*
X604470Y169000D02*
X604470Y184240D01*
X629870Y184240D02*
X629870Y169000D01*
X655270Y169000D02*
X655270Y184240D01*
X680670Y184240D02*
X680670Y169000D01*
X706070Y169000D02*
X706070Y184240D01*
X731470Y184240D02*
X731470Y169000D01*
X756870Y169000D02*
X756870Y184240D01*
X782270Y184240D02*
X782270Y169000D01*
X807670Y169000D02*
X807670Y184240D01*
X833070Y184240D02*
X833070Y169000D01*
X858470Y169000D02*
X858470Y184240D01*
X528380Y34470D02*
X528380Y19230D01*
X553780Y19230D02*
X553780Y34470D01*
X579180Y34470D02*
X579180Y19230D01*
X604580Y19230D02*
X604580Y34470D01*
X629980Y34470D02*
X629980Y19230D01*
X655380Y19230D02*
X655380Y34470D01*
X680780Y34470D02*
X680780Y19230D01*
X706180Y19230D02*
X706180Y34470D01*
X731580Y34470D02*
X731580Y19230D01*
X756980Y19230D02*
X756980Y34470D01*
X782380Y34470D02*
X782380Y19230D01*
X807780Y19230D02*
X807780Y34470D01*
X833180Y34470D02*
X833180Y19230D01*
X858580Y19230D02*
X858580Y34470D01*
D12*
X61540Y778500D02*
X46460Y778500D01*
X46460Y753100D02*
X61540Y753100D01*
X61540Y727700D02*
X46460Y727700D01*
X46460Y702300D02*
X61540Y702300D01*
X61540Y676900D02*
X46460Y676900D01*
D11*
X99050Y184400D02*
X99050Y169160D01*
X124450Y169160D02*
X124450Y184400D01*
X149850Y184400D02*
X149850Y169160D01*
X175250Y169160D02*
X175250Y184400D01*
X200650Y184400D02*
X200650Y169160D01*
X226050Y169160D02*
X226050Y184400D01*
X251450Y184400D02*
X251450Y169160D01*
X276850Y169160D02*
X276850Y184400D01*
X302250Y184400D02*
X302250Y169160D01*
X327650Y169160D02*
X327650Y184400D01*
X353050Y184400D02*
X353050Y169160D01*
X378450Y169160D02*
X378450Y184400D01*
X403850Y184400D02*
X403850Y169160D01*
X429250Y169160D02*
X429250Y184400D01*
X98510Y34450D02*
X98510Y19210D01*
X123910Y19210D02*
X123910Y34450D01*
X149310Y34450D02*
X149310Y19210D01*
X174710Y19210D02*
X174710Y34450D01*
X200110Y34450D02*
X200110Y19210D01*
X225510Y19210D02*
X225510Y34450D01*
X250910Y34450D02*
X250910Y19210D01*
X276310Y19210D02*
X276310Y34450D01*
X301710Y34450D02*
X301710Y19210D01*
X327110Y19210D02*
X327110Y34450D01*
X352510Y34450D02*
X352510Y19210D01*
X377910Y19210D02*
X377910Y34450D01*
X403310Y34450D02*
X403310Y19210D01*
X428710Y19210D02*
X428710Y34450D01*
D13*
X59800Y618896D02*
X59800Y632104D01*
X85200Y632104D02*
X85200Y618896D01*
X110600Y618896D02*
X110600Y632104D01*
X136000Y632104D02*
X136000Y618896D01*
X161400Y618896D02*
X161400Y632104D01*
X186800Y632104D02*
X186800Y618896D01*
X212200Y618896D02*
X212200Y632104D01*
X237600Y632104D02*
X237600Y618896D01*
X61200Y582104D02*
X61200Y568896D01*
X86600Y568896D02*
X86600Y582104D01*
X112000Y582104D02*
X112000Y568896D01*
X137400Y568896D02*
X137400Y582104D01*
X162800Y582104D02*
X162800Y568896D01*
X188200Y568896D02*
X188200Y582104D01*
X213600Y582104D02*
X213600Y568896D01*
X239000Y568896D02*
X239000Y582104D01*
X143300Y674096D02*
X143300Y687304D01*
X168700Y687304D02*
X168700Y674096D01*
X194100Y674096D02*
X194100Y687304D01*
X219500Y687304D02*
X219500Y674096D01*
X244900Y674096D02*
X244900Y687304D01*
X244900Y750296D02*
X244900Y763504D01*
X219500Y763504D02*
X219500Y750296D01*
X194100Y750296D02*
X194100Y763504D01*
X168700Y763504D02*
X168700Y750296D01*
X143300Y750296D02*
X143300Y763504D01*
X47870Y83644D02*
X47870Y70436D01*
X73270Y70436D02*
X73270Y83644D01*
X200270Y83644D02*
X200270Y70436D01*
X225670Y70436D02*
X225670Y83644D01*
X98670Y83644D02*
X98670Y70436D01*
X124070Y70436D02*
X124070Y83644D01*
X174870Y83644D02*
X174870Y70436D01*
X149470Y70436D02*
X149470Y83644D01*
X251070Y83644D02*
X251070Y70436D01*
X276470Y70436D02*
X276470Y83644D01*
X301870Y83644D02*
X301870Y70436D01*
X327270Y70436D02*
X327270Y83644D01*
X352670Y83644D02*
X352670Y70436D01*
X378070Y70436D02*
X378070Y83644D01*
X403470Y83644D02*
X403470Y70436D01*
X428870Y70436D02*
X428870Y83644D01*
X428870Y222836D02*
X428870Y236044D01*
X403470Y236044D02*
X403470Y222836D01*
X378070Y222836D02*
X378070Y236044D01*
X352670Y236044D02*
X352670Y222836D01*
X327270Y222836D02*
X327270Y236044D01*
X301870Y236044D02*
X301870Y222836D01*
X276470Y222836D02*
X276470Y236044D01*
X251070Y236044D02*
X251070Y222836D01*
X225670Y222836D02*
X225670Y236044D01*
X200270Y236044D02*
X200270Y222836D01*
X174870Y222836D02*
X174870Y236044D01*
X149470Y236044D02*
X149470Y222836D01*
X124070Y222836D02*
X124070Y236044D01*
X98670Y236044D02*
X98670Y222836D01*
X73270Y222836D02*
X73270Y236044D01*
X47870Y236044D02*
X47870Y222836D01*
X51100Y335296D02*
X51100Y348504D01*
X76500Y348504D02*
X76500Y335296D01*
X203500Y335296D02*
X203500Y348504D01*
X228900Y348504D02*
X228900Y335296D01*
X101900Y335296D02*
X101900Y348504D01*
X127300Y348504D02*
X127300Y335296D01*
X178100Y335296D02*
X178100Y348504D01*
X152700Y348504D02*
X152700Y335296D01*
X228900Y411496D02*
X228900Y424704D01*
X203500Y424704D02*
X203500Y411496D01*
X178100Y411496D02*
X178100Y424704D01*
X152700Y424704D02*
X152700Y411496D01*
X127300Y411496D02*
X127300Y424704D01*
X101900Y424704D02*
X101900Y411496D01*
X76500Y411496D02*
X76500Y424704D01*
X51100Y424704D02*
X51100Y411496D01*
X476250Y83454D02*
X476250Y70246D01*
X501650Y70246D02*
X501650Y83454D01*
X628650Y83454D02*
X628650Y70246D01*
X654050Y70246D02*
X654050Y83454D01*
X527050Y83454D02*
X527050Y70246D01*
X552450Y70246D02*
X552450Y83454D01*
X603250Y83454D02*
X603250Y70246D01*
X577850Y70246D02*
X577850Y83454D01*
X679450Y83454D02*
X679450Y70246D01*
X704850Y70246D02*
X704850Y83454D01*
X730250Y83454D02*
X730250Y70246D01*
X755650Y70246D02*
X755650Y83454D01*
X781050Y83454D02*
X781050Y70246D01*
X806450Y70246D02*
X806450Y83454D01*
X831850Y83454D02*
X831850Y70246D01*
X857250Y70246D02*
X857250Y83454D01*
X857250Y222646D02*
X857250Y235854D01*
X831850Y235854D02*
X831850Y222646D01*
X806450Y222646D02*
X806450Y235854D01*
X781050Y235854D02*
X781050Y222646D01*
X755650Y222646D02*
X755650Y235854D01*
X730250Y235854D02*
X730250Y222646D01*
X704850Y222646D02*
X704850Y235854D01*
X679450Y235854D02*
X679450Y222646D01*
X654050Y222646D02*
X654050Y235854D01*
X628650Y235854D02*
X628650Y222646D01*
X603250Y222646D02*
X603250Y235854D01*
X577850Y235854D02*
X577850Y222646D01*
X552450Y222646D02*
X552450Y235854D01*
X527050Y235854D02*
X527050Y222646D01*
X501650Y222646D02*
X501650Y235854D01*
X476250Y235854D02*
X476250Y222646D01*
X501100Y275296D02*
X501100Y288504D01*
X526500Y288504D02*
X526500Y275296D01*
X653500Y275296D02*
X653500Y288504D01*
X678900Y288504D02*
X678900Y275296D01*
X551900Y275296D02*
X551900Y288504D01*
X577300Y288504D02*
X577300Y275296D01*
X628100Y275296D02*
X628100Y288504D01*
X602700Y288504D02*
X602700Y275296D01*
X678900Y351496D02*
X678900Y364704D01*
X653500Y364704D02*
X653500Y351496D01*
X628100Y351496D02*
X628100Y364704D01*
X602700Y364704D02*
X602700Y351496D01*
X577300Y351496D02*
X577300Y364704D01*
X551900Y364704D02*
X551900Y351496D01*
X526500Y351496D02*
X526500Y364704D01*
X501100Y364704D02*
X501100Y351496D01*
D14*
X462700Y340000D03*
X437300Y340000D03*
X462700Y270000D03*
X437300Y270000D03*
D15*
X47300Y470000D03*
X72700Y470000D03*
D14*
X72700Y290000D03*
X47300Y290000D03*
D15*
X227300Y530000D03*
X252700Y530000D03*
X167300Y530000D03*
X192700Y530000D03*
X107300Y530000D03*
X132700Y530000D03*
X47300Y530000D03*
X72700Y530000D03*
D16*
X130000Y360414D03*
X185000Y485000D03*
X260000Y370000D03*
X250000Y380000D03*
X450000Y80000D03*
X450000Y210000D03*
X120520Y500520D03*
X140000Y470000D03*
X270000Y370000D03*
X240000Y360000D03*
X200000Y600538D03*
X270000Y470000D03*
M02*
